<svg width="1448" height="912" viewBox="0 0 1448 912" fill="none" xmlns="http://www.w3.org/2000/svg">
<g clip-path="url(#clip0_582_632)" filter="url(#filter0_d_582_632)">
<rect width="1440" height="904" transform="translate(4)" fill="#0D0D0D"/>
<g filter="url(#filter1_f_582_632)">
<path d="M546.556 696.742C507.021 789.111 559.783 900.293 405.971 834.458C252.159 768.623 159.519 640.373 199.055 548.004C238.591 455.635 395.331 434.125 549.143 499.96C702.955 565.795 586.092 604.373 546.556 696.742Z" fill="#00C0FD"/>
</g>
<g filter="url(#filter2_f_582_632)">
<ellipse cx="262.777" cy="650.34" rx="271.039" ry="163.105" transform="rotate(23.1719 262.777 650.34)" fill="#FF59E4"/>
</g>
<g filter="url(#filter3_f_582_632)">
<path d="M288.636 699.319C255.008 777.886 393.877 912.684 598.81 1000.4C803.743 1088.12 586.509 919.775 620.137 841.209C653.766 762.642 925.521 803.6 720.589 715.884C515.656 628.169 322.264 620.752 288.636 699.319Z" fill="#6C06EE"/>
</g>
<g filter="url(#filter4_f_582_632)">
<path d="M330.943 108.482C330.943 -144.088 138.92 -348.837 487.164 -348.837C835.408 -348.837 1117.72 -144.088 1117.72 108.482C1117.72 361.053 835.408 565.802 487.164 565.802C138.92 565.802 330.943 361.053 330.943 108.482Z" fill="#4B00DB"/>
</g>
<g filter="url(#filter5_f_582_632)">
<ellipse cx="912.646" cy="-65.9266" rx="565.354" ry="410.071" transform="rotate(-180 912.646 -65.9266)" fill="#B500F4"/>
</g>
<g filter="url(#filter6_f_582_632)">
<path d="M823.378 -152.26C823.378 -367.782 445.794 -542.498 -19.9804 -542.498C-485.754 -542.498 69.9365 -367.782 69.9365 -152.26C69.9365 63.2627 -485.755 237.978 -19.9805 237.978C445.794 237.978 823.378 63.2628 823.378 -152.26Z" fill="#4B00DB"/>
</g>
<rect x="793.189" y="403.257" width="134" height="938" transform="rotate(121.439 793.189 403.257)" fill="url(#paint0_linear_582_632)" fill-opacity="0.08"/>
<ellipse cx="364.5" cy="695.5" rx="271.5" ry="123.5" fill="white" fill-opacity="0.1"/>
<path d="M635.308 686.611C635.614 688.569 635.819 690.539 635.923 692.52L635.423 692.546C635.474 693.528 635.5 694.513 635.5 695.5C635.5 696.487 635.474 697.472 635.423 698.454L635.923 698.48C635.819 700.461 635.614 702.431 635.308 704.389L634.814 704.312C634.511 706.247 634.109 708.17 633.611 710.08L634.095 710.206C633.598 712.111 633.006 714.003 632.32 715.881L631.851 715.709C631.182 717.54 630.425 719.358 629.58 721.161L630.032 721.373C629.2 723.149 628.284 724.911 627.285 726.658L626.851 726.41C625.888 728.097 624.847 729.769 623.731 731.428L624.146 731.707C623.057 733.324 621.897 734.927 620.669 736.515L620.273 736.209C619.086 737.744 617.833 739.264 616.517 740.771L616.893 741.1C615.607 742.571 614.261 744.029 612.856 745.471L612.498 745.123C611.137 746.521 609.719 747.905 608.247 749.276L608.588 749.642C607.158 750.973 605.678 752.29 604.147 753.594L603.823 753.213C602.344 754.473 600.819 755.72 599.247 756.953L599.556 757.346C598.015 758.555 596.43 759.752 594.802 760.935L594.508 760.53C592.922 761.683 591.295 762.823 589.628 763.949L589.908 764.364C588.294 765.455 586.643 766.533 584.955 767.599L584.688 767.177C583.034 768.222 581.344 769.254 579.62 770.274L579.874 770.705C578.181 771.707 576.454 772.697 574.696 773.674L574.453 773.237C572.75 774.183 571.016 775.118 569.252 776.041L569.484 776.484C567.739 777.397 565.965 778.299 564.162 779.188L563.941 778.74C562.186 779.605 560.404 780.46 558.596 781.303L558.807 781.756C557.028 782.585 555.223 783.403 553.393 784.21L553.191 783.752C551.389 784.546 549.563 785.329 547.712 786.101L547.905 786.562C546.098 787.316 544.268 788.058 542.416 788.79L542.233 788.325C540.396 789.05 538.537 789.764 536.658 790.468L536.833 790.936C534.999 791.622 533.146 792.297 531.272 792.961L531.105 792.49C529.246 793.149 527.368 793.797 525.47 794.435L525.63 794.909C523.768 795.534 521.889 796.149 519.991 796.753L519.84 796.276C517.962 796.874 516.066 797.462 514.154 798.038L514.298 798.517C512.414 799.085 510.514 799.642 508.598 800.189L508.46 799.709C506.566 800.249 504.655 800.78 502.729 801.3L502.859 801.782C500.958 802.296 499.041 802.799 497.109 803.292L496.986 802.807C495.076 803.294 493.152 803.771 491.214 804.238L491.331 804.724C489.415 805.185 487.485 805.637 485.542 806.078L485.431 805.59C483.508 806.026 481.571 806.453 479.622 806.869L479.727 807.358C477.799 807.77 475.859 808.171 473.907 808.563L473.809 808.072C471.873 808.461 469.925 808.839 467.966 809.207L468.058 809.698C466.122 810.062 464.174 810.416 462.215 810.76L462.129 810.267C460.181 810.609 458.223 810.941 456.254 811.263L456.335 811.756C454.391 812.074 452.438 812.382 450.474 812.68L450.399 812.185C448.441 812.483 446.473 812.77 444.496 813.047L444.565 813.542C442.617 813.815 440.658 814.079 438.691 814.332L438.627 813.836C436.662 814.09 434.688 814.333 432.705 814.567L432.763 815.064C430.808 815.294 428.845 815.514 426.874 815.725L426.821 815.228C424.853 815.439 422.877 815.639 420.894 815.83L420.941 816.328C418.978 816.517 417.006 816.696 415.027 816.865L414.984 816.367C413.016 816.536 411.04 816.694 409.056 816.844L409.094 817.342C407.122 817.49 405.142 817.629 403.156 817.758L403.124 817.259C401.155 817.386 399.18 817.504 397.198 817.613L397.225 818.112C395.245 818.22 393.26 818.319 391.267 818.407L391.245 817.908C389.277 817.995 387.303 818.074 385.322 818.142L385.34 818.642C383.358 818.71 381.37 818.769 379.376 818.818L379.364 818.318C377.393 818.366 375.417 818.405 373.435 818.434L373.443 818.934C371.463 818.963 369.479 818.983 367.489 818.993L367.486 818.493C366.492 818.498 365.497 818.5 364.5 818.5C363.503 818.5 362.508 818.498 361.514 818.493L361.511 818.993C359.521 818.983 357.537 818.963 355.557 818.934L355.565 818.434C353.583 818.405 351.607 818.366 349.636 818.318L349.624 818.818C347.63 818.769 345.642 818.71 343.66 818.642L343.678 818.142C341.697 818.074 339.723 817.995 337.755 817.908L337.733 818.407C335.74 818.319 333.755 818.22 331.775 818.112L331.802 817.613C329.82 817.504 327.845 817.386 325.876 817.259L325.844 817.758C323.858 817.629 321.878 817.49 319.906 817.342L319.944 816.844C317.96 816.694 315.984 816.536 314.016 816.367L313.973 816.865C311.994 816.696 310.022 816.517 308.058 816.328L308.106 815.83C306.123 815.639 304.147 815.439 302.179 815.228L302.126 815.725C300.155 815.514 298.192 815.294 296.237 815.064L296.295 814.567C294.312 814.333 292.338 814.09 290.373 813.836L290.309 814.332C288.341 814.079 286.383 813.815 284.435 813.542L284.504 813.047C282.527 812.77 280.559 812.483 278.601 812.185L278.526 812.68C276.562 812.382 274.609 812.074 272.665 811.756L272.746 811.263C270.777 810.941 268.819 810.609 266.871 810.267L266.785 810.76C264.826 810.416 262.878 810.062 260.942 809.698L261.034 809.207C259.075 808.839 257.127 808.461 255.191 808.072L255.093 808.563C253.141 808.171 251.201 807.77 249.273 807.358L249.378 806.869C247.428 806.453 245.492 806.026 243.569 805.59L243.458 806.078C241.515 805.637 239.585 805.185 237.669 804.724L237.786 804.238C235.848 803.771 233.924 803.294 232.014 802.807L231.891 803.292C229.959 802.799 228.042 802.296 226.141 801.782L226.271 801.3C224.345 800.78 222.434 800.249 220.54 799.709L220.402 800.189C218.486 799.642 216.586 799.085 214.702 798.517L214.846 798.038C212.934 797.462 211.038 796.874 209.16 796.276L209.009 796.753C207.111 796.149 205.232 795.534 203.37 794.909L203.53 794.435C201.632 793.797 199.754 793.149 197.895 792.49L197.728 792.961C195.854 792.297 194.001 791.622 192.167 790.936L192.342 790.468C190.463 789.764 188.604 789.05 186.767 788.325L186.584 788.79C184.732 788.058 182.902 787.316 181.095 786.562L181.288 786.101C179.437 785.329 177.611 784.546 175.809 783.752L175.607 784.21C173.777 783.403 171.972 782.585 170.193 781.756L170.404 781.303C168.596 780.46 166.814 779.605 165.059 778.74L164.838 779.188C163.035 778.299 161.261 777.397 159.516 776.484L159.748 776.041C157.984 775.118 156.25 774.183 154.547 773.237L154.304 773.674C152.546 772.697 150.819 771.707 149.126 770.705L149.38 770.274C147.656 769.254 145.966 768.222 144.312 767.177L144.045 767.599C142.357 766.533 140.706 765.455 139.092 764.364L139.372 763.949C137.705 762.823 136.078 761.683 134.492 760.53L134.198 760.935C132.57 759.752 130.985 758.555 129.444 757.346L129.753 756.953C128.181 755.72 126.656 754.473 125.177 753.213L124.853 753.594C123.322 752.29 121.842 750.973 120.412 749.642L120.753 749.276C119.281 747.905 117.863 746.52 116.502 745.122L116.144 745.471C114.739 744.028 113.393 742.571 112.107 741.1L112.483 740.771C111.167 739.264 109.914 737.744 108.727 736.209L108.331 736.515C107.102 734.927 105.943 733.324 104.854 731.707L105.269 731.427C104.153 729.769 103.112 728.097 102.149 726.41L101.715 726.658C100.716 724.911 99.8 723.149 98.9676 721.373L99.4203 721.161C98.5752 719.358 97.8175 717.54 97.1492 715.709L96.6795 715.881C95.9942 714.003 95.4019 712.111 94.905 710.206L95.3888 710.08C94.8905 708.17 94.489 706.247 94.1864 704.312L93.6924 704.389C93.3864 702.431 93.1806 700.461 93.0775 698.48L93.5768 698.454C93.5257 697.472 93.5 696.487 93.5 695.5C93.5 694.513 93.5257 693.528 93.5768 692.546L93.0775 692.52C93.1806 690.539 93.3864 688.569 93.6924 686.611L94.1864 686.688C94.489 684.753 94.8905 682.83 95.3888 680.92L94.905 680.794C95.4019 678.889 95.9942 676.997 96.6795 675.119L97.1492 675.291C97.8175 673.46 98.5752 671.642 99.4203 669.839L98.9676 669.627C99.8 667.851 100.716 666.089 101.715 664.342L102.149 664.59C103.112 662.903 104.153 661.231 105.269 659.573L104.854 659.293C105.943 657.676 107.103 656.073 108.331 654.485L108.727 654.791C109.914 653.256 111.167 651.736 112.483 650.229L112.107 649.9C113.393 648.429 114.739 646.971 116.144 645.529L116.502 645.877C117.863 644.479 119.281 643.095 120.753 641.724L120.412 641.358C121.842 640.027 123.322 638.71 124.853 637.406L125.177 637.787C126.656 636.527 128.181 635.28 129.753 634.047L129.444 633.654C130.985 632.445 132.57 631.248 134.198 630.065L134.492 630.47C136.078 629.317 137.705 628.177 139.372 627.051L139.092 626.636C140.706 625.545 142.357 624.467 144.045 623.401L144.312 623.823C145.966 622.778 147.656 621.746 149.38 620.726L149.126 620.295C150.819 619.293 152.546 618.303 154.304 617.326L154.547 617.763C156.25 616.817 157.984 615.882 159.748 614.959L159.516 614.516C161.261 613.603 163.035 612.701 164.838 611.812L165.059 612.26C166.814 611.395 168.596 610.54 170.404 609.697L170.193 609.244C171.972 608.415 173.777 607.597 175.607 606.79L175.809 607.248C177.611 606.454 179.437 605.671 181.288 604.899L181.095 604.438C182.902 603.684 184.732 602.942 186.584 602.21L186.767 602.675C188.604 601.95 190.463 601.236 192.342 600.532L192.167 600.064C194.001 599.378 195.854 598.703 197.728 598.039L197.895 598.51C199.754 597.851 201.632 597.203 203.53 596.565L203.37 596.091C205.232 595.466 207.111 594.851 209.009 594.247L209.16 594.724C211.038 594.126 212.934 593.538 214.846 592.962L214.702 592.483C216.586 591.915 218.486 591.358 220.402 590.811L220.54 591.291C222.434 590.751 224.345 590.22 226.271 589.7L226.141 589.218C228.042 588.704 229.959 588.201 231.891 587.708L232.014 588.193C233.924 587.706 235.848 587.229 237.786 586.762L237.669 586.276C239.585 585.815 241.515 585.363 243.458 584.922L243.569 585.41C245.492 584.974 247.429 584.547 249.378 584.131L249.273 583.642C251.201 583.23 253.141 582.829 255.093 582.437L255.191 582.928C257.127 582.539 259.075 582.161 261.034 581.793L260.942 581.302C262.878 580.938 264.826 580.584 266.785 580.24L266.871 580.733C268.819 580.391 270.777 580.059 272.746 579.737L272.665 579.244C274.609 578.926 276.562 578.618 278.526 578.32L278.601 578.815C280.559 578.517 282.527 578.23 284.504 577.953L284.435 577.458C286.383 577.185 288.342 576.921 290.309 576.668L290.373 577.164C292.338 576.91 294.312 576.667 296.295 576.433L296.237 575.936C298.192 575.706 300.155 575.486 302.126 575.275L302.179 575.772C304.147 575.561 306.123 575.361 308.106 575.17L308.059 574.672C310.022 574.483 311.994 574.304 313.973 574.135L314.016 574.633C315.984 574.464 317.96 574.306 319.944 574.156L319.906 573.658C321.878 573.51 323.858 573.371 325.844 573.242L325.876 573.741C327.845 573.614 329.82 573.496 331.802 573.387L331.775 572.888C333.755 572.78 335.74 572.681 337.733 572.593L337.755 573.092C339.723 573.005 341.697 572.926 343.678 572.858L343.66 572.358C345.642 572.29 347.63 572.231 349.624 572.182L349.636 572.682C351.607 572.634 353.583 572.595 355.565 572.566L355.557 572.066C357.537 572.037 359.521 572.017 361.511 572.007L361.514 572.507C362.508 572.502 363.503 572.5 364.5 572.5C365.497 572.5 366.492 572.502 367.486 572.507L367.489 572.007C369.479 572.017 371.463 572.037 373.443 572.066L373.435 572.566C375.417 572.595 377.393 572.634 379.364 572.682L379.376 572.182C381.37 572.231 383.358 572.29 385.34 572.358L385.322 572.858C387.303 572.926 389.277 573.005 391.245 573.092L391.267 572.593C393.26 572.681 395.245 572.78 397.225 572.888L397.198 573.387C399.18 573.496 401.155 573.614 403.124 573.741L403.156 573.242C405.142 573.371 407.122 573.51 409.094 573.658L409.056 574.156C411.04 574.306 413.016 574.464 414.984 574.633L415.027 574.135C417.006 574.304 418.978 574.483 420.941 574.672L420.894 575.17C422.877 575.361 424.853 575.561 426.821 575.772L426.874 575.275C428.845 575.486 430.808 575.706 432.763 575.936L432.705 576.433C434.688 576.667 436.662 576.91 438.627 577.164L438.691 576.668C440.659 576.921 442.617 577.185 444.565 577.458L444.496 577.953C446.473 578.23 448.441 578.517 450.399 578.815L450.474 578.32C452.438 578.618 454.391 578.926 456.335 579.244L456.254 579.737C458.223 580.059 460.181 580.391 462.129 580.733L462.215 580.24C464.174 580.584 466.122 580.938 468.058 581.302L467.966 581.793C469.925 582.161 471.873 582.539 473.809 582.928L473.907 582.437C475.859 582.829 477.799 583.23 479.727 583.642L479.622 584.131C481.572 584.547 483.508 584.974 485.431 585.41L485.542 584.922C487.485 585.363 489.415 585.815 491.331 586.276L491.214 586.762C493.152 587.229 495.076 587.706 496.986 588.193L497.109 587.708C499.041 588.201 500.958 588.704 502.859 589.218L502.729 589.7C504.655 590.22 506.566 590.751 508.46 591.291L508.598 590.811C510.514 591.358 512.414 591.915 514.298 592.483L514.154 592.962C516.066 593.538 517.962 594.126 519.84 594.724L519.991 594.247C521.889 594.851 523.768 595.466 525.63 596.091L525.47 596.565C527.368 597.203 529.246 597.851 531.105 598.51L531.272 598.039C533.146 598.703 534.999 599.378 536.833 600.064L536.658 600.532C538.537 601.236 540.396 601.95 542.233 602.675L542.416 602.21C544.268 602.942 546.098 603.684 547.905 604.438L547.712 604.899C549.563 605.671 551.389 606.454 553.191 607.248L553.393 606.79C555.223 607.597 557.028 608.415 558.807 609.244L558.596 609.697C560.404 610.54 562.186 611.395 563.941 612.26L564.162 611.812C565.965 612.701 567.739 613.603 569.484 614.516L569.252 614.959C571.016 615.882 572.75 616.817 574.453 617.763L574.696 617.326C576.454 618.303 578.181 619.293 579.874 620.295L579.62 620.726C581.344 621.746 583.034 622.778 584.688 623.823L584.955 623.401C586.643 624.467 588.294 625.545 589.908 626.636L589.628 627.051C591.295 628.177 592.922 629.317 594.508 630.47L594.802 630.065C596.43 631.248 598.015 632.445 599.556 633.654L599.247 634.047C600.819 635.28 602.344 636.527 603.823 637.787L604.147 637.406C605.678 638.71 607.158 640.027 608.588 641.358L608.247 641.724C609.719 643.095 611.137 644.48 612.498 645.878L612.856 645.529C614.261 646.972 615.608 648.429 616.893 649.9L616.517 650.229C617.833 651.736 619.086 653.256 620.273 654.791L620.669 654.485C621.898 656.073 623.057 657.676 624.146 659.293L623.731 659.573C624.847 661.231 625.888 662.903 626.851 664.59L627.285 664.342C628.284 666.089 629.2 667.851 630.032 669.627L629.58 669.839C630.425 671.642 631.182 673.46 631.851 675.291L632.32 675.119C633.006 676.997 633.598 678.889 634.095 680.794L633.611 680.92C634.109 682.83 634.511 684.753 634.814 686.688L635.308 686.611Z" stroke="white" stroke-opacity="0.32" stroke-dasharray="6 6"/>
<ellipse cx="364.5" cy="749.5" rx="271.5" ry="123.5" fill="white" fill-opacity="0.12"/>
<path d="M635.308 740.611C635.614 742.569 635.819 744.539 635.923 746.52L635.423 746.546C635.474 747.528 635.5 748.513 635.5 749.5C635.5 750.487 635.474 751.472 635.423 752.454L635.923 752.48C635.819 754.461 635.614 756.431 635.308 758.389L634.814 758.312C634.511 760.247 634.109 762.17 633.611 764.08L634.095 764.206C633.598 766.111 633.006 768.003 632.32 769.881L631.851 769.709C631.182 771.54 630.425 773.358 629.58 775.161L630.032 775.373C629.2 777.149 628.284 778.911 627.285 780.658L626.851 780.41C625.888 782.097 624.847 783.769 623.731 785.428L624.146 785.707C623.057 787.324 621.897 788.927 620.669 790.515L620.273 790.209C619.086 791.744 617.833 793.264 616.517 794.771L616.893 795.1C615.607 796.571 614.261 798.029 612.856 799.471L612.498 799.123C611.137 800.521 609.719 801.905 608.247 803.276L608.588 803.642C607.158 804.973 605.678 806.29 604.147 807.594L603.823 807.213C602.344 808.473 600.819 809.72 599.247 810.953L599.556 811.346C598.015 812.555 596.43 813.752 594.802 814.935L594.508 814.53C592.922 815.683 591.295 816.823 589.628 817.949L589.908 818.364C588.294 819.455 586.643 820.533 584.955 821.599L584.688 821.177C583.034 822.222 581.344 823.254 579.62 824.274L579.874 824.705C578.181 825.707 576.454 826.697 574.696 827.674L574.453 827.237C572.75 828.183 571.016 829.118 569.252 830.041L569.484 830.484C567.739 831.397 565.965 832.299 564.162 833.188L563.941 832.74C562.186 833.605 560.404 834.46 558.596 835.303L558.807 835.756C557.028 836.585 555.223 837.403 553.393 838.21L553.191 837.752C551.389 838.546 549.563 839.329 547.712 840.101L547.905 840.562C546.098 841.316 544.268 842.058 542.416 842.79L542.233 842.325C540.396 843.05 538.537 843.764 536.658 844.468L536.833 844.936C534.999 845.622 533.146 846.297 531.272 846.961L531.105 846.49C529.246 847.149 527.368 847.797 525.47 848.435L525.63 848.909C523.768 849.534 521.889 850.149 519.991 850.753L519.84 850.276C517.962 850.874 516.066 851.462 514.154 852.038L514.298 852.517C512.414 853.085 510.514 853.642 508.598 854.189L508.46 853.709C506.566 854.249 504.655 854.78 502.729 855.3L502.859 855.782C500.958 856.296 499.041 856.799 497.109 857.292L496.986 856.807C495.076 857.294 493.152 857.771 491.214 858.238L491.331 858.724C489.415 859.185 487.485 859.637 485.542 860.078L485.431 859.59C483.508 860.026 481.571 860.453 479.622 860.869L479.727 861.358C477.799 861.77 475.859 862.171 473.907 862.563L473.809 862.072C471.873 862.461 469.925 862.839 467.966 863.207L468.058 863.698C466.122 864.062 464.174 864.416 462.215 864.76L462.129 864.267C460.181 864.609 458.223 864.941 456.254 865.263L456.335 865.756C454.391 866.074 452.438 866.382 450.474 866.68L450.399 866.185C448.441 866.483 446.473 866.77 444.496 867.047L444.565 867.542C442.617 867.815 440.658 868.079 438.691 868.332L438.627 867.836C436.662 868.09 434.688 868.333 432.705 868.567L432.763 869.064C430.808 869.294 428.845 869.514 426.874 869.725L426.821 869.228C424.853 869.439 422.877 869.639 420.894 869.83L420.941 870.328C418.978 870.517 417.006 870.696 415.027 870.865L414.984 870.367C413.016 870.536 411.04 870.694 409.056 870.844L409.094 871.342C407.122 871.49 405.142 871.629 403.156 871.758L403.124 871.259C401.155 871.386 399.18 871.504 397.198 871.613L397.225 872.112C395.245 872.22 393.26 872.319 391.267 872.407L391.245 871.908C389.277 871.995 387.303 872.074 385.322 872.142L385.34 872.642C383.358 872.71 381.37 872.769 379.376 872.818L379.364 872.318C377.393 872.366 375.417 872.405 373.435 872.434L373.443 872.934C371.463 872.963 369.479 872.983 367.489 872.993L367.486 872.493C366.492 872.498 365.497 872.5 364.5 872.5C363.503 872.5 362.508 872.498 361.514 872.493L361.511 872.993C359.521 872.983 357.537 872.963 355.557 872.934L355.565 872.434C353.583 872.405 351.607 872.366 349.636 872.318L349.624 872.818C347.63 872.769 345.642 872.71 343.66 872.642L343.678 872.142C341.697 872.074 339.723 871.995 337.755 871.908L337.733 872.407C335.74 872.319 333.755 872.22 331.775 872.112L331.802 871.613C329.82 871.504 327.845 871.386 325.876 871.259L325.844 871.758C323.858 871.629 321.878 871.49 319.906 871.342L319.944 870.844C317.96 870.694 315.984 870.536 314.016 870.367L313.973 870.865C311.994 870.696 310.022 870.517 308.058 870.328L308.106 869.83C306.123 869.639 304.147 869.439 302.179 869.228L302.126 869.725C300.155 869.514 298.192 869.294 296.237 869.064L296.295 868.567C294.312 868.333 292.338 868.09 290.373 867.836L290.309 868.332C288.341 868.079 286.383 867.815 284.435 867.542L284.504 867.047C282.527 866.77 280.559 866.483 278.601 866.185L278.526 866.68C276.562 866.382 274.609 866.074 272.665 865.756L272.746 865.263C270.777 864.941 268.819 864.609 266.871 864.267L266.785 864.76C264.826 864.416 262.878 864.062 260.942 863.698L261.034 863.207C259.075 862.839 257.127 862.461 255.191 862.072L255.093 862.563C253.141 862.171 251.201 861.77 249.273 861.358L249.378 860.869C247.428 860.453 245.492 860.026 243.569 859.59L243.458 860.078C241.515 859.637 239.585 859.185 237.669 858.724L237.786 858.238C235.848 857.771 233.924 857.294 232.014 856.807L231.891 857.292C229.959 856.799 228.042 856.296 226.141 855.782L226.271 855.3C224.345 854.78 222.434 854.249 220.54 853.709L220.402 854.189C218.486 853.642 216.586 853.085 214.702 852.517L214.846 852.038C212.934 851.462 211.038 850.874 209.16 850.276L209.009 850.753C207.111 850.149 205.232 849.534 203.37 848.909L203.53 848.435C201.632 847.797 199.754 847.149 197.895 846.49L197.728 846.961C195.854 846.297 194.001 845.622 192.167 844.936L192.342 844.468C190.463 843.764 188.604 843.05 186.767 842.325L186.584 842.79C184.732 842.058 182.902 841.316 181.095 840.562L181.288 840.101C179.437 839.329 177.611 838.546 175.809 837.752L175.607 838.21C173.777 837.403 171.972 836.585 170.193 835.756L170.404 835.303C168.596 834.46 166.814 833.605 165.059 832.74L164.838 833.188C163.035 832.299 161.261 831.397 159.516 830.484L159.748 830.041C157.984 829.118 156.25 828.183 154.547 827.237L154.304 827.674C152.546 826.697 150.819 825.707 149.126 824.705L149.38 824.274C147.656 823.254 145.966 822.222 144.312 821.177L144.045 821.599C142.357 820.533 140.706 819.455 139.092 818.364L139.372 817.949C137.705 816.823 136.078 815.683 134.492 814.53L134.198 814.935C132.57 813.752 130.985 812.555 129.444 811.346L129.753 810.953C128.181 809.72 126.656 808.473 125.177 807.213L124.853 807.594C123.322 806.29 121.842 804.973 120.412 803.642L120.753 803.276C119.281 801.905 117.863 800.52 116.502 799.122L116.144 799.471C114.739 798.028 113.393 796.571 112.107 795.1L112.483 794.771C111.167 793.264 109.914 791.744 108.727 790.209L108.331 790.515C107.102 788.927 105.943 787.324 104.854 785.707L105.269 785.427C104.153 783.769 103.112 782.097 102.149 780.41L101.715 780.658C100.716 778.911 99.8 777.149 98.9676 775.373L99.4203 775.161C98.5752 773.358 97.8175 771.54 97.1492 769.709L96.6795 769.881C95.9942 768.003 95.4019 766.111 94.905 764.206L95.3888 764.08C94.8905 762.17 94.489 760.247 94.1864 758.312L93.6924 758.389C93.3864 756.431 93.1806 754.461 93.0775 752.48L93.5768 752.454C93.5257 751.472 93.5 750.487 93.5 749.5C93.5 748.513 93.5257 747.528 93.5768 746.546L93.0775 746.52C93.1806 744.539 93.3864 742.569 93.6924 740.611L94.1864 740.688C94.489 738.753 94.8905 736.83 95.3888 734.92L94.905 734.794C95.4019 732.889 95.9942 730.997 96.6795 729.119L97.1492 729.291C97.8175 727.46 98.5752 725.642 99.4203 723.839L98.9676 723.627C99.8 721.851 100.716 720.089 101.715 718.342L102.149 718.59C103.112 716.903 104.153 715.231 105.269 713.573L104.854 713.293C105.943 711.676 107.103 710.073 108.331 708.485L108.727 708.791C109.914 707.256 111.167 705.736 112.483 704.229L112.107 703.9C113.393 702.429 114.739 700.971 116.144 699.529L116.502 699.877C117.863 698.479 119.281 697.095 120.753 695.724L120.412 695.358C121.842 694.027 123.322 692.71 124.853 691.406L125.177 691.787C126.656 690.527 128.181 689.28 129.753 688.047L129.444 687.654C130.985 686.445 132.57 685.248 134.198 684.065L134.492 684.47C136.078 683.317 137.705 682.177 139.372 681.051L139.092 680.636C140.706 679.545 142.357 678.467 144.045 677.401L144.312 677.823C145.966 676.778 147.656 675.746 149.38 674.726L149.126 674.295C150.819 673.293 152.546 672.303 154.304 671.326L154.547 671.763C156.25 670.817 157.984 669.882 159.748 668.959L159.516 668.516C161.261 667.603 163.035 666.701 164.838 665.812L165.059 666.26C166.814 665.395 168.596 664.54 170.404 663.697L170.193 663.244C171.972 662.415 173.777 661.597 175.607 660.79L175.809 661.248C177.611 660.454 179.437 659.671 181.288 658.899L181.095 658.438C182.902 657.684 184.732 656.942 186.584 656.21L186.767 656.675C188.604 655.95 190.463 655.236 192.342 654.532L192.167 654.064C194.001 653.378 195.854 652.703 197.728 652.039L197.895 652.51C199.754 651.851 201.632 651.203 203.53 650.565L203.37 650.091C205.232 649.466 207.111 648.851 209.009 648.247L209.16 648.724C211.038 648.126 212.934 647.538 214.846 646.962L214.702 646.483C216.586 645.915 218.486 645.358 220.402 644.811L220.54 645.291C222.434 644.751 224.345 644.22 226.271 643.7L226.141 643.218C228.042 642.704 229.959 642.201 231.891 641.708L232.014 642.193C233.924 641.706 235.848 641.229 237.786 640.762L237.669 640.276C239.585 639.815 241.515 639.363 243.458 638.922L243.569 639.41C245.492 638.974 247.429 638.547 249.378 638.131L249.273 637.642C251.201 637.23 253.141 636.829 255.093 636.437L255.191 636.928C257.127 636.539 259.075 636.161 261.034 635.793L260.942 635.302C262.878 634.938 264.826 634.584 266.785 634.24L266.871 634.733C268.819 634.391 270.777 634.059 272.746 633.737L272.665 633.244C274.609 632.926 276.562 632.618 278.526 632.32L278.601 632.815C280.559 632.517 282.527 632.23 284.504 631.953L284.435 631.458C286.383 631.185 288.342 630.921 290.309 630.668L290.373 631.164C292.338 630.91 294.312 630.667 296.295 630.433L296.237 629.936C298.192 629.706 300.155 629.486 302.126 629.275L302.179 629.772C304.147 629.561 306.123 629.361 308.106 629.17L308.059 628.672C310.022 628.483 311.994 628.304 313.973 628.135L314.016 628.633C315.984 628.464 317.96 628.306 319.944 628.156L319.906 627.658C321.878 627.51 323.858 627.371 325.844 627.242L325.876 627.741C327.845 627.614 329.82 627.496 331.802 627.387L331.775 626.888C333.755 626.78 335.74 626.681 337.733 626.593L337.755 627.092C339.723 627.005 341.697 626.926 343.678 626.858L343.66 626.358C345.642 626.29 347.63 626.231 349.624 626.182L349.636 626.682C351.607 626.634 353.583 626.595 355.565 626.566L355.557 626.066C357.537 626.037 359.521 626.017 361.511 626.007L361.514 626.507C362.508 626.502 363.503 626.5 364.5 626.5C365.497 626.5 366.492 626.502 367.486 626.507L367.489 626.007C369.479 626.017 371.463 626.037 373.443 626.066L373.435 626.566C375.417 626.595 377.393 626.634 379.364 626.682L379.376 626.182C381.37 626.231 383.358 626.29 385.34 626.358L385.322 626.858C387.303 626.926 389.277 627.005 391.245 627.092L391.267 626.593C393.26 626.681 395.245 626.78 397.225 626.888L397.198 627.387C399.18 627.496 401.155 627.614 403.124 627.741L403.156 627.242C405.142 627.371 407.122 627.51 409.094 627.658L409.056 628.156C411.04 628.306 413.016 628.464 414.984 628.633L415.027 628.135C417.006 628.304 418.978 628.483 420.941 628.672L420.894 629.17C422.877 629.361 424.853 629.561 426.821 629.772L426.874 629.275C428.845 629.486 430.808 629.706 432.763 629.936L432.705 630.433C434.688 630.667 436.662 630.91 438.627 631.164L438.691 630.668C440.659 630.921 442.617 631.185 444.565 631.458L444.496 631.953C446.473 632.23 448.441 632.517 450.399 632.815L450.474 632.32C452.438 632.618 454.391 632.926 456.335 633.244L456.254 633.737C458.223 634.059 460.181 634.391 462.129 634.733L462.215 634.24C464.174 634.584 466.122 634.938 468.058 635.302L467.966 635.793C469.925 636.161 471.873 636.539 473.809 636.928L473.907 636.437C475.859 636.829 477.799 637.23 479.727 637.642L479.622 638.131C481.572 638.547 483.508 638.974 485.431 639.41L485.542 638.922C487.485 639.363 489.415 639.815 491.331 640.276L491.214 640.762C493.152 641.229 495.076 641.706 496.986 642.193L497.109 641.708C499.041 642.201 500.958 642.704 502.859 643.218L502.729 643.7C504.655 644.22 506.566 644.751 508.46 645.291L508.598 644.811C510.514 645.358 512.414 645.915 514.298 646.483L514.154 646.962C516.066 647.538 517.962 648.126 519.84 648.724L519.991 648.247C521.889 648.851 523.768 649.466 525.63 650.091L525.47 650.565C527.368 651.203 529.246 651.851 531.105 652.51L531.272 652.039C533.146 652.703 534.999 653.378 536.833 654.064L536.658 654.532C538.537 655.236 540.396 655.95 542.233 656.675L542.416 656.21C544.268 656.942 546.098 657.684 547.905 658.438L547.712 658.899C549.563 659.671 551.389 660.454 553.191 661.248L553.393 660.79C555.223 661.597 557.028 662.415 558.807 663.244L558.596 663.697C560.404 664.54 562.186 665.395 563.941 666.26L564.162 665.812C565.965 666.701 567.739 667.603 569.484 668.516L569.252 668.959C571.016 669.882 572.75 670.817 574.453 671.763L574.696 671.326C576.454 672.303 578.181 673.293 579.874 674.295L579.62 674.726C581.344 675.746 583.034 676.778 584.688 677.823L584.955 677.401C586.643 678.467 588.294 679.545 589.908 680.636L589.628 681.051C591.295 682.177 592.922 683.317 594.508 684.47L594.802 684.065C596.43 685.248 598.015 686.445 599.556 687.654L599.247 688.047C600.819 689.28 602.344 690.527 603.823 691.787L604.147 691.406C605.678 692.71 607.158 694.027 608.588 695.358L608.247 695.724C609.719 697.095 611.137 698.48 612.498 699.878L612.856 699.529C614.261 700.972 615.608 702.429 616.893 703.9L616.517 704.229C617.833 705.736 619.086 707.256 620.273 708.791L620.669 708.485C621.898 710.073 623.057 711.676 624.146 713.293L623.731 713.573C624.847 715.231 625.888 716.903 626.851 718.59L627.285 718.342C628.284 720.089 629.2 721.851 630.032 723.627L629.58 723.839C630.425 725.642 631.182 727.46 631.851 729.291L632.32 729.119C633.006 730.997 633.598 732.889 634.095 734.794L633.611 734.92C634.109 736.83 634.511 738.753 634.814 740.688L635.308 740.611Z" stroke="white" stroke-opacity="0.32" stroke-dasharray="6 6"/>
</g>
<defs>
<filter id="filter0_d_582_632" x="0" y="0" width="1448" height="912" filterUnits="userSpaceOnUse" color-interpolation-filters="sRGB">
<feFlood flood-opacity="0" result="BackgroundImageFix"/>
<feColorMatrix in="SourceAlpha" type="matrix" values="0 0 0 0 0 0 0 0 0 0 0 0 0 0 0 0 0 0 127 0" result="hardAlpha"/>
<feOffset dy="4"/>
<feGaussianBlur stdDeviation="2"/>
<feComposite in2="hardAlpha" operator="out"/>
<feColorMatrix type="matrix" values="0 0 0 0 0 0 0 0 0 0 0 0 0 0 0 0 0 0 0.25 0"/>
<feBlend mode="normal" in2="BackgroundImageFix" result="effect1_dropShadow_582_632"/>
<feBlend mode="normal" in="SourceGraphic" in2="effect1_dropShadow_582_632" result="shape"/>
</filter>
<filter id="filter1_f_582_632" x="69.9325" y="341.81" width="676.41" height="632.518" filterUnits="userSpaceOnUse" color-interpolation-filters="sRGB">
<feFlood flood-opacity="0" result="BackgroundImageFix"/>
<feBlend mode="normal" in="SourceGraphic" in2="BackgroundImageFix" result="shape"/>
<feGaussianBlur stdDeviation="60" result="effect1_foregroundBlur_582_632"/>
</filter>
<filter id="filter2_f_582_632" x="-114.592" y="346.318" width="754.737" height="608.044" filterUnits="userSpaceOnUse" color-interpolation-filters="sRGB">
<feFlood flood-opacity="0" result="BackgroundImageFix"/>
<feBlend mode="normal" in="SourceGraphic" in2="BackgroundImageFix" result="shape"/>
<feGaussianBlur stdDeviation="60" result="effect1_foregroundBlur_582_632"/>
</filter>
<filter id="filter3_f_582_632" x="163.616" y="524.922" width="752.787" height="620.15" filterUnits="userSpaceOnUse" color-interpolation-filters="sRGB">
<feFlood flood-opacity="0" result="BackgroundImageFix"/>
<feBlend mode="normal" in="SourceGraphic" in2="BackgroundImageFix" result="shape"/>
<feGaussianBlur stdDeviation="60" result="effect1_foregroundBlur_582_632"/>
</filter>
<filter id="filter4_f_582_632" x="-85.8715" y="-712.837" width="1567.59" height="1642.64" filterUnits="userSpaceOnUse" color-interpolation-filters="sRGB">
<feFlood flood-opacity="0" result="BackgroundImageFix"/>
<feBlend mode="normal" in="SourceGraphic" in2="BackgroundImageFix" result="shape"/>
<feGaussianBlur stdDeviation="182" result="effect1_foregroundBlur_582_632"/>
</filter>
<filter id="filter5_f_582_632" x="-16.7085" y="-839.998" width="1858.71" height="1548.14" filterUnits="userSpaceOnUse" color-interpolation-filters="sRGB">
<feFlood flood-opacity="0" result="BackgroundImageFix"/>
<feBlend mode="normal" in="SourceGraphic" in2="BackgroundImageFix" result="shape"/>
<feGaussianBlur stdDeviation="182" result="effect1_foregroundBlur_582_632"/>
</filter>
<filter id="filter6_f_582_632" x="-570.001" y="-906.498" width="1757.38" height="1508.48" filterUnits="userSpaceOnUse" color-interpolation-filters="sRGB">
<feFlood flood-opacity="0" result="BackgroundImageFix"/>
<feBlend mode="normal" in="SourceGraphic" in2="BackgroundImageFix" result="shape"/>
<feGaussianBlur stdDeviation="182" result="effect1_foregroundBlur_582_632"/>
</filter>
<linearGradient id="paint0_linear_582_632" x1="839.067" y1="188.917" x2="942.48" y2="1636.49" gradientUnits="userSpaceOnUse">
<stop stop-color="white" stop-opacity="0.6"/>
<stop offset="1" stop-color="white" stop-opacity="0"/>
</linearGradient>
<clipPath id="clip0_582_632">
<rect width="1440" height="904" fill="white" transform="translate(4)"/>
</clipPath>
</defs>
</svg>
