<svg width="334" height="596" viewBox="0 0 334 596" fill="none" xmlns="http://www.w3.org/2000/svg">
<g filter="url(#filter0_d_693_441)">
<g clip-path="url(#clip0_693_441)">
<rect x="8" y="8" width="318" height="580" rx="16" fill="white" fill-opacity="0.04" shape-rendering="crispEdges"/>
<g filter="url(#filter1_f_693_441)">
<circle cx="167" cy="716" r="251" fill="#4D00B1"/>
</g>
<g filter="url(#filter2_d_693_441)">
<circle cx="167" cy="8" r="292" fill="white" fill-opacity="0.01" shape-rendering="crispEdges"/>
</g>
<g filter="url(#filter3_d_693_441)">
<circle cx="167" cy="8.00026" r="247.077" fill="white" fill-opacity="0.01" shape-rendering="crispEdges"/>
</g>
<g filter="url(#filter4_d_693_441)">
<circle cx="167" cy="7.99998" r="198.698" fill="white" fill-opacity="0.02" shape-rendering="crispEdges"/>
</g>
<g filter="url(#filter5_d_693_441)">
<circle cx="167" cy="7.99997" r="152.047" fill="white" fill-opacity="0.03" shape-rendering="crispEdges"/>
<circle cx="167" cy="7.99997" r="151.547" stroke="white" stroke-opacity="0.04" shape-rendering="crispEdges"/>
</g>
<g filter="url(#filter6_ddi_693_441)">
<path d="M308.82 235.736L308.826 203.332L308.814 154.7L308.815 122.278C308.815 104.374 294.303 89.8623 276.89 89.8682L206.902 89.8741C205.605 92.1418 204.344 94.291 202.52 96.1145C199.38 99.2551 195.12 101.019 190.679 101.019C186.238 101.019 181.978 99.2551 178.838 96.1145C177.014 94.291 175.753 92.1417 174.948 89.8564L57.5937 89.8623C53.336 89.8622 49.1199 90.7007 45.1863 92.33C41.2526 93.9593 37.6784 96.3474 34.6678 99.3581C31.6571 102.369 29.269 105.943 27.6397 109.877C26.0104 113.81 25.1718 118.026 25.172 122.284L25.1779 154.7L25.172 203.326L25.172 235.736C25.1718 239.994 26.0104 244.21 27.6397 248.144C29.269 252.077 31.6571 255.651 34.6678 258.662C37.6785 261.673 41.2527 264.061 45.1863 265.69C49.1199 267.32 53.336 268.158 57.5937 268.158L174.948 268.164C175.753 265.806 177.083 263.662 178.838 261.894C181.978 258.753 186.238 256.989 190.679 256.989C195.12 256.989 199.38 258.753 202.52 261.894C204.344 263.717 205.611 265.873 206.41 268.152L276.399 268.146C284.996 268.146 293.24 264.732 299.32 258.654C305.4 252.577 308.818 244.333 308.82 235.736ZM178.838 143.48C177.283 141.924 176.049 140.077 175.208 138.045C174.367 136.012 173.934 133.834 173.934 131.634C173.935 129.435 174.369 127.257 175.211 125.225C176.053 123.193 177.288 121.346 178.844 119.791C180.399 118.236 182.246 117.003 184.279 116.162C186.311 115.32 188.489 114.888 190.689 114.888C192.889 114.889 195.067 115.323 197.099 116.165C199.131 117.007 200.977 118.241 202.532 119.797C205.673 122.939 207.436 127.2 207.435 131.643C207.434 136.085 205.668 140.345 202.526 143.486C199.384 146.627 195.123 148.39 190.681 148.389C186.238 148.388 181.978 146.622 178.838 143.48ZM178.838 190.846C177.283 189.29 176.049 187.443 175.208 185.41C174.367 183.378 173.934 181.2 173.934 179C173.935 176.8 174.369 174.622 175.211 172.59C176.053 170.558 177.288 168.712 178.844 167.157C180.399 165.602 182.246 164.369 184.279 163.527C186.311 162.686 188.489 162.253 190.689 162.254C192.889 162.254 195.067 162.688 197.099 163.53C199.131 164.373 200.977 165.607 202.532 167.163C205.673 170.305 207.436 174.566 207.435 179.008C207.434 183.451 205.668 187.711 202.526 190.852C199.384 193.992 195.123 195.756 190.681 195.755C186.238 195.754 181.978 193.988 178.838 190.846ZM178.838 238.211C177.283 236.655 176.049 234.808 175.208 232.776C174.367 230.744 173.934 228.565 173.934 226.366C173.935 224.166 174.369 221.988 175.211 219.956C176.053 217.924 177.288 216.077 178.843 214.522C180.399 212.967 182.246 211.734 184.279 210.893C186.311 210.051 188.489 209.619 190.689 209.619C192.889 209.62 195.067 210.054 197.099 210.896C199.131 211.738 200.977 212.973 202.532 214.528C205.673 217.67 207.436 221.931 207.435 226.374C207.434 230.816 205.668 235.076 202.526 238.217C199.384 241.358 195.123 243.121 190.681 243.12C186.238 243.119 181.978 241.353 178.838 238.211Z" fill="url(#paint0_linear_693_441)"/>
</g>
<path d="M51.799 124.727H53.1307L55.446 130.381H55.5312L57.8466 124.727H59.1783V132H58.1342V126.737H58.0668L55.9219 131.989H55.0554L52.9105 126.734H52.843V132H51.799V124.727ZM67.0911 128.364C67.0911 129.14 66.949 129.808 66.665 130.366C66.3809 130.923 65.9914 131.351 65.4966 131.652C65.0042 131.95 64.4443 132.099 63.8169 132.099C63.1872 132.099 62.6249 131.95 62.1301 131.652C61.6377 131.351 61.2495 130.922 60.9654 130.363C60.6813 129.804 60.5392 129.138 60.5392 128.364C60.5392 127.587 60.6813 126.921 60.9654 126.364C61.2495 125.806 61.6377 125.377 62.1301 125.079C62.6249 124.778 63.1872 124.628 63.8169 124.628C64.4443 124.628 65.0042 124.778 65.4966 125.079C65.9914 125.377 66.3809 125.806 66.665 126.364C66.949 126.921 67.0911 127.587 67.0911 128.364ZM66.0044 128.364C66.0044 127.772 65.9086 127.273 65.7168 126.869C65.5274 126.461 65.267 126.154 64.9355 125.945C64.6065 125.735 64.2336 125.629 63.8169 125.629C63.3979 125.629 63.0239 125.735 62.6948 125.945C62.3657 126.154 62.1053 126.461 61.9135 126.869C61.7241 127.273 61.6294 127.772 61.6294 128.364C61.6294 128.955 61.7241 129.455 61.9135 129.862C62.1053 130.267 62.3657 130.575 62.6948 130.786C63.0239 130.994 63.3979 131.098 63.8169 131.098C64.2336 131.098 64.6065 130.994 64.9355 130.786C65.267 130.575 65.5274 130.267 65.7168 129.862C65.9086 129.455 66.0044 128.955 66.0044 128.364ZM74.3292 124.727V132H73.3207L69.6239 126.666H69.5565V132H68.4592V124.727H69.4748L73.1751 130.068H73.2425V124.727H74.3292ZM78.2843 132H75.9299V124.727H78.3588C79.0714 124.727 79.6834 124.873 80.1948 125.164C80.7061 125.453 81.098 125.868 81.3702 126.411C81.6448 126.95 81.7821 127.598 81.7821 128.353C81.7821 129.111 81.6436 129.762 81.3667 130.306C81.092 130.851 80.6943 131.27 80.1735 131.563C79.6526 131.854 79.0229 132 78.2843 132ZM77.0272 131.041H78.2239C78.7779 131.041 79.2383 130.937 79.6053 130.729C79.9722 130.518 80.2469 130.214 80.4292 129.816C80.6114 129.416 80.7026 128.928 80.7026 128.353C80.7026 127.782 80.6114 127.298 80.4292 126.901C80.2492 126.503 79.9805 126.201 79.623 125.995C79.2656 125.789 78.8217 125.686 78.2914 125.686H77.0272V131.041ZM83.3997 132H82.2349L84.8521 124.727H86.1199L88.737 132H87.5723L85.5162 126.048H85.4593L83.3997 132ZM83.595 129.152H87.3734V130.075H83.595V129.152ZM88.484 124.727H89.7305L91.6303 128.033H91.7085L93.6083 124.727H94.8548L92.2163 129.145V132H91.1225V129.145L88.484 124.727Z" fill="white" fill-opacity="0.24"/>
<path d="M51.9588 140.273H53.5568L56.3352 147.057H56.4375L59.2159 140.273H60.8139V149H59.5611V142.685H59.4801L56.9062 148.987H55.8665L53.2926 142.68H53.2116V149H51.9588V140.273ZM64.5309 149.145C64.1161 149.145 63.7411 149.068 63.4059 148.915C63.0707 148.759 62.805 148.533 62.609 148.237C62.4158 147.942 62.3192 147.58 62.3192 147.151C62.3192 146.781 62.3903 146.477 62.5323 146.239C62.6744 146 62.8661 145.811 63.1076 145.672C63.3491 145.533 63.619 145.428 63.9173 145.357C64.2156 145.286 64.5195 145.232 64.8292 145.195C65.2212 145.149 65.5394 145.112 65.7837 145.084C66.0281 145.053 66.2056 145.003 66.3164 144.935C66.4272 144.866 66.4826 144.756 66.4826 144.602V144.572C66.4826 144.2 66.3775 143.912 66.1673 143.707C65.9599 143.503 65.6502 143.401 65.2383 143.401C64.8093 143.401 64.4712 143.496 64.2241 143.686C63.9798 143.874 63.8107 144.082 63.717 144.312L62.5195 144.04C62.6616 143.642 62.869 143.321 63.1417 143.077C63.4173 142.83 63.734 142.651 64.092 142.54C64.4499 142.426 64.8263 142.369 65.2212 142.369C65.4826 142.369 65.7596 142.401 66.0522 142.463C66.3477 142.523 66.6232 142.634 66.8789 142.795C67.1374 142.957 67.3491 143.189 67.5138 143.49C67.6786 143.788 67.761 144.176 67.761 144.653V149H66.5167V148.105H66.4656C66.3832 148.27 66.2596 148.432 66.0948 148.591C65.93 148.75 65.7184 148.882 65.4599 148.987C65.2013 149.092 64.8917 149.145 64.5309 149.145ZM64.8079 148.122C65.1602 148.122 65.4613 148.053 65.7113 147.913C65.9641 147.774 66.1559 147.592 66.2866 147.368C66.4201 147.141 66.4869 146.898 66.4869 146.639V145.795C66.4414 145.841 66.3533 145.884 66.2227 145.923C66.0948 145.96 65.9485 145.993 65.7837 146.021C65.619 146.047 65.4585 146.071 65.3022 146.094C65.146 146.114 65.0153 146.131 64.9102 146.145C64.663 146.176 64.4371 146.229 64.2326 146.303C64.0309 146.376 63.869 146.483 63.7468 146.622C63.6275 146.759 63.5678 146.94 63.5678 147.168C63.5678 147.483 63.6843 147.722 63.9173 147.884C64.1502 148.043 64.4471 148.122 64.8079 148.122ZM70.0291 151.455C69.8388 151.455 69.6655 151.439 69.5092 151.408C69.353 151.379 69.2365 151.348 69.1598 151.314L69.4666 150.27C69.6996 150.332 69.907 150.359 70.0888 150.351C70.2706 150.342 70.4311 150.274 70.5703 150.146C70.7124 150.018 70.8374 149.81 70.9453 149.52L71.103 149.085L68.7081 142.455H70.0717L71.7294 147.534H71.7976L73.4553 142.455H74.8232L72.1257 149.874C72.0007 150.214 71.8416 150.503 71.6484 150.739C71.4553 150.977 71.2251 151.156 70.9581 151.276C70.6911 151.395 70.3814 151.455 70.0291 151.455ZM82.2177 149.145C81.5444 149.142 80.9691 148.964 80.4918 148.612C80.0146 148.26 79.6495 147.747 79.3967 147.074C79.1438 146.401 79.0174 145.589 79.0174 144.641C79.0174 143.695 79.1438 142.886 79.3967 142.216C79.6523 141.545 80.0188 141.034 80.4961 140.682C80.9762 140.33 81.5501 140.153 82.2177 140.153C82.8853 140.153 83.4577 140.331 83.935 140.686C84.4123 141.038 84.7773 141.55 85.0302 142.22C85.2859 142.888 85.4137 143.695 85.4137 144.641C85.4137 145.592 85.2873 146.405 85.0344 147.078C84.7816 147.749 84.4165 148.261 83.9393 148.616C83.462 148.969 82.8881 149.145 82.2177 149.145ZM82.2177 148.007C82.8086 148.007 83.2702 147.719 83.6026 147.142C83.9379 146.565 84.1055 145.732 84.1055 144.641C84.1055 143.916 84.0288 143.304 83.8754 142.804C83.7248 142.301 83.5075 141.92 83.2234 141.662C82.9421 141.401 82.6069 141.27 82.2177 141.27C81.6296 141.27 81.168 141.56 80.8327 142.139C80.4975 142.719 80.3285 143.553 80.3256 144.641C80.3256 145.368 80.4009 145.983 80.5515 146.486C80.7049 146.986 80.9222 147.365 81.2035 147.624C81.4847 147.879 81.8228 148.007 82.2177 148.007ZM89.8274 140.153C90.2166 140.156 90.6001 140.227 90.978 140.366C91.3558 140.506 91.6967 140.733 92.0007 141.048C92.3075 141.364 92.5518 141.79 92.7337 142.327C92.9183 142.861 93.0121 143.526 93.0149 144.321C93.0149 145.085 92.9382 145.766 92.7848 146.362C92.6314 146.956 92.4112 147.457 92.1243 147.866C91.8402 148.276 91.495 148.587 91.0888 148.8C90.6825 149.013 90.2251 149.119 89.7166 149.119C89.1967 149.119 88.7351 149.017 88.3317 148.812C87.9283 148.608 87.6001 148.325 87.3473 147.964C87.0945 147.601 86.9368 147.183 86.8743 146.712H88.174C88.2592 147.087 88.4325 147.391 88.6939 147.624C88.9581 147.854 89.299 147.969 89.7166 147.969C90.3558 147.969 90.8544 147.69 91.2124 147.134C91.5703 146.574 91.7507 145.793 91.7536 144.79H91.6854C91.5376 145.034 91.353 145.244 91.1314 145.42C90.9126 145.597 90.6669 145.733 90.3942 145.83C90.1214 145.926 89.8303 145.974 89.5206 145.974C89.0178 145.974 88.5604 145.851 88.1484 145.604C87.7365 145.357 87.4084 145.017 87.1641 144.585C86.9197 144.153 86.7976 143.661 86.7976 143.107C86.7976 142.555 86.9226 142.055 87.1726 141.607C87.4254 141.158 87.7777 140.803 88.2294 140.541C88.6839 140.277 89.2166 140.148 89.8274 140.153ZM89.8317 141.261C89.4993 141.261 89.1996 141.344 88.9325 141.509C88.6683 141.67 88.4595 141.891 88.3061 142.169C88.1527 142.445 88.076 142.751 88.076 143.089C88.076 143.428 88.1499 143.734 88.2976 144.01C88.4482 144.283 88.6527 144.5 88.9112 144.662C89.1726 144.821 89.4709 144.901 89.8061 144.901C90.0561 144.901 90.2891 144.852 90.505 144.756C90.7209 144.659 90.9098 144.526 91.0717 144.355C91.2337 144.182 91.3601 143.986 91.451 143.767C91.5419 143.548 91.5874 143.318 91.5874 143.077C91.5874 142.756 91.5107 142.457 91.3572 142.182C91.2067 141.906 90.9993 141.685 90.7351 141.517C90.4709 141.347 90.1697 141.261 89.8317 141.261ZM95.9126 147.807L95.8487 148.271C95.8061 148.612 95.7337 148.967 95.6314 149.337C95.532 149.709 95.4283 150.054 95.3203 150.372C95.2152 150.69 95.1286 150.943 95.0604 151.131H94.157C94.1939 150.955 94.245 150.716 94.3104 150.415C94.3757 150.116 94.4396 149.783 94.5021 149.413C94.5646 149.044 94.6115 148.668 94.6428 148.284L94.6854 147.807H95.9126ZM100.73 149V148.045L103.683 144.986C103.999 144.653 104.259 144.362 104.463 144.112C104.67 143.859 104.825 143.619 104.928 143.392C105.03 143.165 105.081 142.923 105.081 142.668C105.081 142.378 105.013 142.128 104.876 141.918C104.74 141.705 104.554 141.541 104.318 141.428C104.082 141.311 103.817 141.253 103.521 141.253C103.209 141.253 102.936 141.317 102.703 141.445C102.47 141.572 102.291 141.753 102.166 141.986C102.041 142.219 101.979 142.491 101.979 142.804H100.722C100.722 142.273 100.844 141.808 101.088 141.411C101.332 141.013 101.668 140.705 102.094 140.486C102.52 140.264 103.004 140.153 103.547 140.153C104.095 140.153 104.578 140.263 104.996 140.482C105.416 140.697 105.744 140.993 105.98 141.368C106.216 141.74 106.334 142.161 106.334 142.629C106.334 142.953 106.273 143.27 106.151 143.58C106.031 143.889 105.822 144.234 105.524 144.615C105.226 144.993 104.811 145.452 104.28 145.991L102.545 147.807V147.871H106.474V149H100.73ZM111.128 149.145C110.455 149.142 109.879 148.964 109.402 148.612C108.925 148.26 108.56 147.747 108.307 147.074C108.054 146.401 107.928 145.589 107.928 144.641C107.928 143.695 108.054 142.886 108.307 142.216C108.563 141.545 108.929 141.034 109.406 140.682C109.886 140.33 110.46 140.153 111.128 140.153C111.795 140.153 112.368 140.331 112.845 140.686C113.322 141.038 113.688 141.55 113.94 142.22C114.196 142.888 114.324 143.695 114.324 144.641C114.324 145.592 114.197 146.405 113.945 147.078C113.692 147.749 113.327 148.261 112.849 148.616C112.372 148.969 111.798 149.145 111.128 149.145ZM111.128 148.007C111.719 148.007 112.18 147.719 112.513 147.142C112.848 146.565 113.016 145.732 113.016 144.641C113.016 143.916 112.939 143.304 112.786 142.804C112.635 142.301 112.418 141.92 112.134 141.662C111.852 141.401 111.517 141.27 111.128 141.27C110.54 141.27 110.078 141.56 109.743 142.139C109.408 142.719 109.239 143.553 109.236 144.641C109.236 145.368 109.311 145.983 109.462 146.486C109.615 146.986 109.832 147.365 110.114 147.624C110.395 147.879 110.733 148.007 111.128 148.007ZM115.836 149V148.045L118.789 144.986C119.104 144.653 119.364 144.362 119.569 144.112C119.776 143.859 119.931 143.619 120.033 143.392C120.135 143.165 120.186 142.923 120.186 142.668C120.186 142.378 120.118 142.128 119.982 141.918C119.846 141.705 119.659 141.541 119.424 141.428C119.188 141.311 118.922 141.253 118.627 141.253C118.314 141.253 118.042 141.317 117.809 141.445C117.576 141.572 117.397 141.753 117.272 141.986C117.147 142.219 117.084 142.491 117.084 142.804H115.827C115.827 142.273 115.949 141.808 116.194 141.411C116.438 141.013 116.773 140.705 117.199 140.486C117.625 140.264 118.11 140.153 118.652 140.153C119.201 140.153 119.684 140.263 120.101 140.482C120.522 140.697 120.85 140.993 121.086 141.368C121.321 141.74 121.439 142.161 121.439 142.629C121.439 142.953 121.378 143.27 121.256 143.58C121.137 143.889 120.928 144.234 120.63 144.615C120.331 144.993 119.917 145.452 119.385 145.991L117.651 147.807V147.871H121.58V149H115.836ZM122.824 147.295V146.23L126.596 140.273H127.435V141.841H126.902L124.205 146.111V146.179H129.374V147.295H122.824ZM126.962 149V146.972L126.971 146.486V140.273H128.219V149H126.962Z" fill="white"/>
<path d="M52.8963 166.727V174H51.799V166.727H52.8963ZM60.3643 166.727V174H59.3558L55.6591 168.666H55.5916V174H54.4943V166.727H55.5099L59.2102 172.068H59.2777V166.727H60.3643ZM68.0055 169.092H66.8975C66.8549 168.856 66.7756 168.647 66.6596 168.467C66.5436 168.287 66.4016 168.135 66.2335 168.009C66.0654 167.884 65.8772 167.789 65.6689 167.725C65.4629 167.661 65.2439 167.629 65.0119 167.629C64.5929 167.629 64.2176 167.735 63.8862 167.945C63.5571 168.156 63.2967 168.465 63.1049 168.872C62.9155 169.279 62.8208 169.777 62.8208 170.364C62.8208 170.955 62.9155 171.455 63.1049 171.862C63.2967 172.269 63.5583 172.577 63.8897 172.786C64.2212 172.994 64.594 173.098 65.0083 173.098C65.238 173.098 65.4558 173.067 65.6618 173.006C65.8701 172.942 66.0583 172.848 66.2264 172.725C66.3945 172.602 66.5365 172.452 66.6525 172.274C66.7709 172.094 66.8526 171.888 66.8975 171.656L68.0055 171.66C67.9463 172.017 67.8315 172.346 67.661 172.647C67.493 172.945 67.2763 173.203 67.0112 173.421C66.7484 173.637 66.4477 173.804 66.1092 173.922C65.7707 174.04 65.4013 174.099 65.0012 174.099C64.3715 174.099 63.8104 173.95 63.318 173.652C62.8256 173.351 62.4373 172.922 62.1532 172.363C61.8715 171.804 61.7306 171.138 61.7306 170.364C61.7306 169.587 61.8727 168.921 62.1568 168.364C62.4409 167.806 62.8291 167.377 63.3216 167.079C63.814 166.778 64.3739 166.628 65.0012 166.628C65.3871 166.628 65.747 166.683 66.0808 166.795C66.417 166.904 66.7188 167.065 66.9863 167.278C67.2538 167.488 67.4752 167.746 67.6504 168.052C67.8256 168.355 67.944 168.702 68.0055 169.092ZM69.9329 174.067C69.7388 174.067 69.5719 173.999 69.4322 173.862C69.2925 173.722 69.2227 173.554 69.2227 173.357C69.2227 173.163 69.2925 172.997 69.4322 172.86C69.5719 172.72 69.7388 172.651 69.9329 172.651C70.127 172.651 70.2939 172.72 70.4336 172.86C70.5733 172.997 70.6431 173.163 70.6431 173.357C70.6431 173.487 70.61 173.607 70.5437 173.716C70.4798 173.822 70.3945 173.908 70.288 173.972C70.1815 174.036 70.0631 174.067 69.9329 174.067ZM78.6465 168.638C78.6086 168.302 78.4524 168.041 78.1777 167.857C77.9031 167.67 77.5575 167.576 77.1408 167.576C76.8425 167.576 76.5845 167.623 76.3667 167.718C76.1489 167.81 75.9796 167.938 75.8588 168.102C75.7405 168.263 75.6813 168.446 75.6813 168.652C75.6813 168.825 75.7215 168.974 75.802 169.099C75.8849 169.225 75.9926 169.33 76.1252 169.415C76.2601 169.498 76.4045 169.568 76.5584 169.625C76.7123 169.679 76.8603 169.724 77.0023 169.76L77.7125 169.945C77.9445 170.001 78.1825 170.078 78.4263 170.175C78.6702 170.272 78.8962 170.4 79.1046 170.559C79.3129 170.718 79.481 170.914 79.6088 171.148C79.7391 171.383 79.8042 171.663 79.8042 171.99C79.8042 172.402 79.6976 172.768 79.4846 173.087C79.2739 173.407 78.9673 173.659 78.5648 173.844C78.1647 174.028 77.6806 174.121 77.1124 174.121C76.5679 174.121 76.0968 174.034 75.699 173.862C75.3013 173.689 74.99 173.444 74.7651 173.126C74.5402 172.807 74.4159 172.428 74.3922 171.99H75.4931C75.5144 172.253 75.5996 172.472 75.7488 172.647C75.9003 172.82 76.0932 172.949 76.3276 173.034C76.5643 173.117 76.8236 173.158 77.1053 173.158C77.4154 173.158 77.6912 173.11 77.9327 173.013C78.1766 172.913 78.3683 172.776 78.508 172.601C78.6477 172.423 78.7175 172.216 78.7175 171.979C78.7175 171.764 78.656 171.588 78.5328 171.45C78.4121 171.313 78.2476 171.199 78.0392 171.109C77.8333 171.019 77.6001 170.94 77.3397 170.871L76.4803 170.637C75.8979 170.478 75.4363 170.245 75.0953 169.938C74.7568 169.63 74.5875 169.223 74.5875 168.716C74.5875 168.297 74.7012 167.931 74.9284 167.619C75.1557 167.306 75.4635 167.063 75.8517 166.891C76.24 166.715 76.678 166.628 77.1657 166.628C77.6581 166.628 78.0925 166.714 78.4689 166.887C78.8477 167.06 79.146 167.298 79.3638 167.601C79.5816 167.902 79.6953 168.247 79.7047 168.638H78.6465ZM81.1154 174V166.727H85.6751V167.672H82.2127V169.888H85.4371V170.829H82.2127V173.055H85.7177V174H81.1154ZM87.1408 174V166.727H89.7331C90.2966 166.727 90.7641 166.824 91.1358 167.018C91.5099 167.213 91.7892 167.481 91.9739 167.825C92.1586 168.165 92.2509 168.56 92.2509 169.007C92.2509 169.452 92.1574 169.844 91.9703 170.183C91.7857 170.519 91.5063 170.78 91.1323 170.967C90.7606 171.154 90.293 171.248 89.7296 171.248H87.7658V170.303H89.6301C89.9853 170.303 90.2741 170.252 90.4966 170.151C90.7215 170.049 90.8861 169.901 90.9902 169.707C91.0944 169.513 91.1465 169.279 91.1465 169.007C91.1465 168.732 91.0932 168.495 90.9867 168.293C90.8825 168.092 90.718 167.938 90.4931 167.832C90.2705 167.723 89.9782 167.668 89.6159 167.668H88.2381V174H87.1408ZM90.731 170.719L92.5279 174H91.2779L89.5165 170.719H90.731ZM94.046 166.727L96.0701 172.651H96.1518L98.176 166.727H99.362L96.7449 174H95.4771L92.8599 166.727H94.046ZM101.51 166.727V174H100.412V166.727H101.51ZM109.148 169.092H108.04C107.998 168.856 107.918 168.647 107.802 168.467C107.686 168.287 107.544 168.135 107.376 168.009C107.208 167.884 107.02 167.789 106.811 167.725C106.605 167.661 106.386 167.629 106.154 167.629C105.735 167.629 105.36 167.735 105.029 167.945C104.7 168.156 104.439 168.465 104.248 168.872C104.058 169.279 103.963 169.777 103.963 170.364C103.963 170.955 104.058 171.455 104.248 171.862C104.439 172.269 104.701 172.577 105.032 172.786C105.364 172.994 105.737 173.098 106.151 173.098C106.381 173.098 106.598 173.067 106.804 173.006C107.013 172.942 107.201 172.848 107.369 172.725C107.537 172.602 107.679 172.452 107.795 172.274C107.913 172.094 107.995 171.888 108.04 171.656L109.148 171.66C109.089 172.017 108.974 172.346 108.804 172.647C108.636 172.945 108.419 173.203 108.154 173.421C107.891 173.637 107.59 173.804 107.252 173.922C106.913 174.04 106.544 174.099 106.144 174.099C105.514 174.099 104.953 173.95 104.461 173.652C103.968 173.351 103.58 172.922 103.296 172.363C103.014 171.804 102.873 171.138 102.873 170.364C102.873 169.587 103.015 168.921 103.299 168.364C103.583 167.806 103.972 167.377 104.464 167.079C104.957 166.778 105.516 166.628 106.144 166.628C106.53 166.628 106.89 166.683 107.223 166.795C107.56 166.904 107.861 167.065 108.129 167.278C108.396 167.488 108.618 167.746 108.793 168.052C108.968 168.355 109.087 168.702 109.148 169.092ZM110.461 174V166.727H115.021V167.672H111.558V169.888H114.783V170.829H111.558V173.055H115.063V174H110.461ZM125.173 169.092H124.066C124.023 168.856 123.944 168.647 123.828 168.467C123.712 168.287 123.57 168.135 123.401 168.009C123.233 167.884 123.045 167.789 122.837 167.725C122.631 167.661 122.412 167.629 122.18 167.629C121.761 167.629 121.386 167.735 121.054 167.945C120.725 168.156 120.465 168.465 120.273 168.872C120.084 169.279 119.989 169.777 119.989 170.364C119.989 170.955 120.084 171.455 120.273 171.862C120.465 172.269 120.726 172.577 121.058 172.786C121.389 172.994 121.762 173.098 122.176 173.098C122.406 173.098 122.624 173.067 122.83 173.006C123.038 172.942 123.226 172.848 123.394 172.725C123.562 172.602 123.704 172.452 123.82 172.274C123.939 172.094 124.021 171.888 124.066 171.656L125.173 171.66C125.114 172.017 124.999 172.346 124.829 172.647C124.661 172.945 124.444 173.203 124.179 173.421C123.916 173.637 123.616 173.804 123.277 173.922C122.939 174.04 122.569 174.099 122.169 174.099C121.539 174.099 120.978 173.95 120.486 173.652C119.994 173.351 119.605 172.922 119.321 172.363C119.039 171.804 118.899 171.138 118.899 170.364C118.899 169.587 119.041 168.921 119.325 168.364C119.609 167.806 119.997 167.377 120.49 167.079C120.982 166.778 121.542 166.628 122.169 166.628C122.555 166.628 122.915 166.683 123.249 166.795C123.585 166.904 123.887 167.065 124.154 167.278C124.422 167.488 124.643 167.746 124.818 168.052C124.994 168.355 125.112 168.702 125.173 169.092ZM132.804 170.364C132.804 171.14 132.662 171.808 132.378 172.366C132.094 172.923 131.704 173.351 131.21 173.652C130.717 173.95 130.157 174.099 129.53 174.099C128.9 174.099 128.338 173.95 127.843 173.652C127.351 173.351 126.962 172.922 126.678 172.363C126.394 171.804 126.252 171.138 126.252 170.364C126.252 169.587 126.394 168.921 126.678 168.364C126.962 167.806 127.351 167.377 127.843 167.079C128.338 166.778 128.9 166.628 129.53 166.628C130.157 166.628 130.717 166.778 131.21 167.079C131.704 167.377 132.094 167.806 132.378 168.364C132.662 168.921 132.804 169.587 132.804 170.364ZM131.717 170.364C131.717 169.772 131.621 169.273 131.43 168.869C131.24 168.461 130.98 168.154 130.648 167.945C130.319 167.735 129.946 167.629 129.53 167.629C129.111 167.629 128.737 167.735 128.408 167.945C128.079 168.154 127.818 168.461 127.626 168.869C127.437 169.273 127.342 169.772 127.342 170.364C127.342 170.955 127.437 171.455 127.626 171.862C127.818 172.267 128.079 172.575 128.408 172.786C128.737 172.994 129.111 173.098 129.53 173.098C129.946 173.098 130.319 172.994 130.648 172.786C130.98 172.575 131.24 172.267 131.43 171.862C131.621 171.455 131.717 170.955 131.717 170.364ZM138.139 168.638C138.101 168.302 137.945 168.041 137.67 167.857C137.395 167.67 137.05 167.576 136.633 167.576C136.335 167.576 136.077 167.623 135.859 167.718C135.641 167.81 135.472 167.938 135.351 168.102C135.233 168.263 135.173 168.446 135.173 168.652C135.173 168.825 135.214 168.974 135.294 169.099C135.377 169.225 135.485 169.33 135.617 169.415C135.752 169.498 135.897 169.568 136.051 169.625C136.204 169.679 136.352 169.724 136.494 169.76L137.205 169.945C137.437 170.001 137.675 170.078 137.919 170.175C138.162 170.272 138.388 170.4 138.597 170.559C138.805 170.718 138.973 170.914 139.101 171.148C139.231 171.383 139.296 171.663 139.296 171.99C139.296 172.402 139.19 172.768 138.977 173.087C138.766 173.407 138.459 173.659 138.057 173.844C137.657 174.028 137.173 174.121 136.605 174.121C136.06 174.121 135.589 174.034 135.191 173.862C134.794 173.689 134.482 173.444 134.257 173.126C134.032 172.807 133.908 172.428 133.884 171.99H134.985C135.007 172.253 135.092 172.472 135.241 172.647C135.392 172.82 135.585 172.949 135.82 173.034C136.057 173.117 136.316 173.158 136.597 173.158C136.908 173.158 137.183 173.11 137.425 173.013C137.669 172.913 137.86 172.776 138 172.601C138.14 172.423 138.21 172.216 138.21 171.979C138.21 171.764 138.148 171.588 138.025 171.45C137.904 171.313 137.74 171.199 137.531 171.109C137.325 171.019 137.092 170.94 136.832 170.871L135.972 170.637C135.39 170.478 134.928 170.245 134.588 169.938C134.249 169.63 134.08 169.223 134.08 168.716C134.08 168.297 134.193 167.931 134.421 167.619C134.648 167.306 134.956 167.063 135.344 166.891C135.732 166.715 136.17 166.628 136.658 166.628C137.15 166.628 137.585 166.714 137.961 166.887C138.34 167.06 138.638 167.298 138.856 167.601C139.074 167.902 139.187 168.247 139.197 168.638H138.139ZM140.249 167.672V166.727H145.877V167.672H143.608V174H142.515V167.672H140.249Z" fill="white" fill-opacity="0.24"/>
<path d="M54.5327 192.091V181.182H55.2315V192.091H54.5327ZM56.7188 184.565C56.6733 184.162 56.4858 183.849 56.1562 183.628C55.8267 183.403 55.4119 183.291 54.9119 183.291C54.554 183.291 54.2443 183.348 53.983 183.462C53.7216 183.572 53.5185 183.726 53.3736 183.922C53.2315 184.115 53.1605 184.335 53.1605 184.582C53.1605 184.79 53.2088 184.969 53.3054 185.119C53.4048 185.27 53.5341 185.396 53.6932 185.499C53.8551 185.598 54.0284 185.682 54.2131 185.75C54.3977 185.815 54.5753 185.869 54.7457 185.912L55.598 186.134C55.8764 186.202 56.1619 186.294 56.4545 186.411C56.7472 186.527 57.0185 186.68 57.2685 186.871C57.5185 187.061 57.7202 187.297 57.8736 187.578C58.0298 187.859 58.108 188.196 58.108 188.588C58.108 189.082 57.9801 189.521 57.7244 189.905C57.4716 190.288 57.1037 190.591 56.6207 190.812C56.1406 191.034 55.5597 191.145 54.8778 191.145C54.2244 191.145 53.6591 191.041 53.1818 190.834C52.7045 190.626 52.331 190.332 52.0611 189.952C51.7912 189.568 51.642 189.114 51.6136 188.588H52.9347C52.9602 188.903 53.0625 189.166 53.2415 189.376C53.4233 189.584 53.6548 189.739 53.9361 189.841C54.2202 189.94 54.5312 189.99 54.8693 189.99C55.2415 189.99 55.5724 189.932 55.8622 189.815C56.1548 189.696 56.3849 189.531 56.5526 189.321C56.7202 189.108 56.804 188.859 56.804 188.575C56.804 188.317 56.7301 188.105 56.5824 187.94C56.4375 187.776 56.2401 187.639 55.9901 187.531C55.7429 187.423 55.4631 187.328 55.1506 187.246L54.1193 186.964C53.4205 186.774 52.8665 186.494 52.4574 186.125C52.0511 185.756 51.848 185.267 51.848 184.659C51.848 184.156 51.9844 183.717 52.2571 183.342C52.5298 182.967 52.8991 182.676 53.3651 182.469C53.831 182.259 54.3565 182.153 54.9418 182.153C55.5327 182.153 56.054 182.257 56.5057 182.464C56.9602 182.672 57.3182 182.957 57.5795 183.321C57.8409 183.682 57.9773 184.097 57.9886 184.565H56.7188ZM62.609 191.119C62.2198 191.114 61.8363 191.043 61.4585 190.906C61.0835 190.77 60.7425 190.543 60.4357 190.224C60.1289 189.906 59.8832 189.479 59.6985 188.942C59.5167 188.405 59.4258 187.734 59.4258 186.93C59.4258 186.169 59.5011 185.493 59.6516 184.902C59.805 184.311 60.0252 183.812 60.3121 183.406C60.5991 182.997 60.9457 182.686 61.3519 182.473C61.7582 182.26 62.2141 182.153 62.7198 182.153C63.2397 182.153 63.7013 182.256 64.1048 182.46C64.5082 182.665 64.8349 182.947 65.0849 183.308C65.3377 183.669 65.4982 184.08 65.5664 184.54H64.2667C64.1786 184.176 64.0039 183.879 63.7425 183.649C63.4812 183.419 63.1403 183.304 62.7198 183.304C62.0806 183.304 61.582 183.582 61.2241 184.139C60.869 184.696 60.69 185.47 60.6871 186.462H60.7511C60.9016 186.214 61.0863 186.004 61.305 185.831C61.5266 185.655 61.7738 185.52 62.0465 185.426C62.3221 185.33 62.6119 185.281 62.9158 185.281C63.4215 185.281 63.8789 185.405 64.288 185.652C64.6999 185.896 65.0281 186.234 65.2724 186.666C65.5167 187.098 65.6388 187.592 65.6388 188.149C65.6388 188.706 65.5124 189.21 65.2596 189.662C65.0096 190.114 64.6573 190.472 64.2028 190.736C63.7482 190.997 63.217 191.125 62.609 191.119ZM62.6048 190.011C62.94 190.011 63.2397 189.929 63.5039 189.764C63.7681 189.599 63.9769 189.378 64.1303 189.099C64.2837 188.821 64.3604 188.51 64.3604 188.166C64.3604 187.831 64.2852 187.526 64.1346 187.25C63.9869 186.974 63.7823 186.756 63.521 186.594C63.2624 186.432 62.967 186.351 62.6346 186.351C62.3817 186.351 62.1474 186.399 61.9315 186.496C61.7184 186.592 61.5309 186.726 61.369 186.896C61.207 187.067 61.0792 187.263 60.9854 187.484C60.8945 187.703 60.8491 187.935 60.8491 188.179C60.8491 188.506 60.9244 188.808 61.0749 189.087C61.2283 189.365 61.4371 189.589 61.7013 189.76C61.9684 189.928 62.2695 190.011 62.6048 190.011ZM70.093 182.153C70.4822 182.156 70.8658 182.227 71.2436 182.366C71.6214 182.506 71.9624 182.733 72.2663 183.048C72.5732 183.364 72.8175 183.79 72.9993 184.327C73.1839 184.861 73.2777 185.526 73.2805 186.321C73.2805 187.085 73.2038 187.766 73.0504 188.362C72.897 188.956 72.6768 189.457 72.3899 189.866C72.1058 190.276 71.7607 190.587 71.3544 190.8C70.9482 191.013 70.4908 191.119 69.9822 191.119C69.4624 191.119 69.0007 191.017 68.5973 190.812C68.1939 190.608 67.8658 190.325 67.6129 189.964C67.3601 189.601 67.2024 189.183 67.1399 188.712H68.4396C68.5249 189.087 68.6982 189.391 68.9595 189.624C69.2237 189.854 69.5646 189.969 69.9822 189.969C70.6214 189.969 71.12 189.69 71.478 189.134C71.8359 188.574 72.0163 187.793 72.0192 186.79H71.951C71.8033 187.034 71.6186 187.244 71.397 187.42C71.1783 187.597 70.9325 187.733 70.6598 187.83C70.3871 187.926 70.0959 187.974 69.7862 187.974C69.2834 187.974 68.826 187.851 68.4141 187.604C68.0021 187.357 67.674 187.017 67.4297 186.585C67.1854 186.153 67.0632 185.661 67.0632 185.107C67.0632 184.555 67.1882 184.055 67.4382 183.607C67.6911 183.158 68.0433 182.803 68.495 182.541C68.9496 182.277 69.4822 182.148 70.093 182.153ZM70.0973 183.261C69.7649 183.261 69.4652 183.344 69.1982 183.509C68.9339 183.67 68.7251 183.891 68.5717 184.169C68.4183 184.445 68.3416 184.751 68.3416 185.089C68.3416 185.428 68.4155 185.734 68.5632 186.01C68.7138 186.283 68.9183 186.5 69.1768 186.662C69.4382 186.821 69.7365 186.901 70.0717 186.901C70.3217 186.901 70.5547 186.852 70.7706 186.756C70.9865 186.659 71.1754 186.526 71.3374 186.355C71.4993 186.182 71.6257 185.986 71.7166 185.767C71.8075 185.548 71.853 185.318 71.853 185.077C71.853 184.756 71.7763 184.457 71.6229 184.182C71.4723 183.906 71.2649 183.685 71.0007 183.517C70.7365 183.347 70.4354 183.261 70.0973 183.261ZM76.1783 189.807L76.1143 190.271C76.0717 190.612 75.9993 190.967 75.897 191.337C75.7976 191.709 75.6939 192.054 75.5859 192.372C75.4808 192.69 75.3942 192.943 75.326 193.131H74.4226C74.4595 192.955 74.5107 192.716 74.576 192.415C74.6413 192.116 74.7053 191.783 74.7678 191.413C74.8303 191.044 74.8771 190.668 74.9084 190.284L74.951 189.807H76.1783ZM80.7571 182.153C81.1463 182.156 81.5298 182.227 81.9077 182.366C82.2855 182.506 82.6264 182.733 82.9304 183.048C83.2372 183.364 83.4815 183.79 83.6634 184.327C83.848 184.861 83.9418 185.526 83.9446 186.321C83.9446 187.085 83.8679 187.766 83.7145 188.362C83.5611 188.956 83.3409 189.457 83.054 189.866C82.7699 190.276 82.4247 190.587 82.0185 190.8C81.6122 191.013 81.1548 191.119 80.6463 191.119C80.1264 191.119 79.6648 191.017 79.2614 190.812C78.858 190.608 78.5298 190.325 78.277 189.964C78.0241 189.601 77.8665 189.183 77.804 188.712H79.1037C79.1889 189.087 79.3622 189.391 79.6236 189.624C79.8878 189.854 80.2287 189.969 80.6463 189.969C81.2855 189.969 81.7841 189.69 82.142 189.134C82.5 188.574 82.6804 187.793 82.6832 186.79H82.6151C82.4673 187.034 82.2827 187.244 82.0611 187.42C81.8423 187.597 81.5966 187.733 81.3239 187.83C81.0511 187.926 80.7599 187.974 80.4503 187.974C79.9474 187.974 79.4901 187.851 79.0781 187.604C78.6662 187.357 78.3381 187.017 78.0938 186.585C77.8494 186.153 77.7273 185.661 77.7273 185.107C77.7273 184.555 77.8523 184.055 78.1023 183.607C78.3551 183.158 78.7074 182.803 79.1591 182.541C79.6136 182.277 80.1463 182.148 80.7571 182.153ZM80.7614 183.261C80.429 183.261 80.1293 183.344 79.8622 183.509C79.598 183.67 79.3892 183.891 79.2358 184.169C79.0824 184.445 79.0057 184.751 79.0057 185.089C79.0057 185.428 79.0795 185.734 79.2273 186.01C79.3778 186.283 79.5824 186.5 79.8409 186.662C80.1023 186.821 80.4006 186.901 80.7358 186.901C80.9858 186.901 81.2188 186.852 81.4347 186.756C81.6506 186.659 81.8395 186.526 82.0014 186.355C82.1634 186.182 82.2898 185.986 82.3807 185.767C82.4716 185.548 82.517 185.318 82.517 185.077C82.517 184.756 82.4403 184.457 82.2869 184.182C82.1364 183.906 81.929 183.685 81.6648 183.517C81.4006 183.347 81.0994 183.261 80.7614 183.261ZM88.386 182.153C88.7752 182.156 89.1587 182.227 89.5366 182.366C89.9144 182.506 90.2553 182.733 90.5593 183.048C90.8661 183.364 91.1104 183.79 91.2923 184.327C91.4769 184.861 91.5707 185.526 91.5735 186.321C91.5735 187.085 91.4968 187.766 91.3434 188.362C91.19 188.956 90.9698 189.457 90.6829 189.866C90.3988 190.276 90.0536 190.587 89.6474 190.8C89.2411 191.013 88.7837 191.119 88.2752 191.119C87.7553 191.119 87.2937 191.017 86.8903 190.812C86.4869 190.608 86.1587 190.325 85.9059 189.964C85.6531 189.601 85.4954 189.183 85.4329 188.712H86.7326C86.8178 189.087 86.9911 189.391 87.2525 189.624C87.5167 189.854 87.8576 189.969 88.2752 189.969C88.9144 189.969 89.413 189.69 89.771 189.134C90.1289 188.574 90.3093 187.793 90.3121 186.79H90.244C90.0962 187.034 89.9116 187.244 89.69 187.42C89.4712 187.597 89.2255 187.733 88.9528 187.83C88.68 187.926 88.3888 187.974 88.0792 187.974C87.5763 187.974 87.119 187.851 86.707 187.604C86.2951 187.357 85.967 187.017 85.7227 186.585C85.4783 186.153 85.3562 185.661 85.3562 185.107C85.3562 184.555 85.4812 184.055 85.7312 183.607C85.984 183.158 86.3363 182.803 86.788 182.541C87.2425 182.277 87.7752 182.148 88.386 182.153ZM88.3903 183.261C88.0579 183.261 87.7582 183.344 87.4911 183.509C87.2269 183.67 87.0181 183.891 86.8647 184.169C86.7113 184.445 86.6346 184.751 86.6346 185.089C86.6346 185.428 86.7085 185.734 86.8562 186.01C87.0067 186.283 87.2113 186.5 87.4698 186.662C87.7312 186.821 88.0295 186.901 88.3647 186.901C88.6147 186.901 88.8477 186.852 89.0636 186.756C89.2795 186.659 89.4684 186.526 89.6303 186.355C89.7923 186.182 89.9187 185.986 90.0096 185.767C90.1005 185.548 90.146 185.318 90.146 185.077C90.146 184.756 90.0692 184.457 89.9158 184.182C89.7653 183.906 89.5579 183.685 89.2937 183.517C89.0295 183.347 88.7283 183.261 88.3903 183.261Z" fill="white"/>
<path d="M52.4347 208.727L54.4588 214.651H54.5405L56.5646 208.727H57.7507L55.1335 216H53.8658L51.2486 208.727H52.4347ZM58.6731 216H57.5083L60.1255 208.727H61.3933L64.0105 216H62.8457L60.7896 210.048H60.7328L58.6731 216ZM58.8684 213.152H62.6468V214.075H58.8684V213.152ZM65.0607 216V208.727H66.158V215.055H69.4535V216H65.0607ZM71.8026 208.727V216H70.7053V208.727H71.8026ZM75.755 216H73.4006V208.727H75.8295C76.5421 208.727 77.1541 208.873 77.6655 209.164C78.1768 209.453 78.5687 209.868 78.8409 210.411C79.1155 210.95 79.2528 211.598 79.2528 212.353C79.2528 213.111 79.1143 213.762 78.8374 214.306C78.5627 214.851 78.165 215.27 77.6442 215.563C77.1233 215.854 76.4936 216 75.755 216ZM74.4979 215.041H75.6946C76.2486 215.041 76.709 214.937 77.076 214.729C77.4429 214.518 77.7176 214.214 77.8999 213.816C78.0821 213.416 78.1733 212.928 78.1733 212.353C78.1733 211.782 78.0821 211.298 77.8999 210.901C77.7199 210.503 77.4512 210.201 77.0938 209.995C76.7363 209.789 76.2924 209.686 75.7621 209.686H74.4979V215.041ZM83.2638 216V208.727H87.7738V209.672H84.3612V211.888H87.4506V212.829H84.3612V216H83.2638ZM95.4407 212.364C95.4407 213.14 95.2987 213.808 95.0146 214.366C94.7305 214.923 94.341 215.351 93.8462 215.652C93.3538 215.95 92.7939 216.099 92.1665 216.099C91.5368 216.099 90.9746 215.95 90.4798 215.652C89.9873 215.351 89.5991 214.922 89.315 214.363C89.0309 213.804 88.8888 213.138 88.8888 212.364C88.8888 211.587 89.0309 210.921 89.315 210.364C89.5991 209.806 89.9873 209.377 90.4798 209.079C90.9746 208.778 91.5368 208.628 92.1665 208.628C92.7939 208.628 93.3538 208.778 93.8462 209.079C94.341 209.377 94.7305 209.806 95.0146 210.364C95.2987 210.921 95.4407 211.587 95.4407 212.364ZM94.354 212.364C94.354 211.772 94.2582 211.273 94.0664 210.869C93.877 210.461 93.6166 210.154 93.2852 209.945C92.9561 209.735 92.5832 209.629 92.1665 209.629C91.7475 209.629 91.3735 209.735 91.0444 209.945C90.7153 210.154 90.4549 210.461 90.2631 210.869C90.0737 211.273 89.979 211.772 89.979 212.364C89.979 212.955 90.0737 213.455 90.2631 213.862C90.4549 214.267 90.7153 214.575 91.0444 214.786C91.3735 214.994 91.7475 215.098 92.1665 215.098C92.5832 215.098 92.9561 214.994 93.2852 214.786C93.6166 214.575 93.877 214.267 94.0664 213.862C94.2582 213.455 94.354 212.955 94.354 212.364ZM96.8088 216V208.727H99.4011C99.9645 208.727 100.432 208.824 100.804 209.018C101.178 209.213 101.457 209.481 101.642 209.825C101.827 210.165 101.919 210.56 101.919 211.007C101.919 211.452 101.825 211.844 101.638 212.183C101.454 212.519 101.174 212.78 100.8 212.967C100.429 213.154 99.961 213.248 99.3975 213.248H97.4338V212.303H99.2981C99.6532 212.303 99.9421 212.252 100.165 212.151C100.39 212.049 100.554 211.901 100.658 211.707C100.762 211.513 100.814 211.279 100.814 211.007C100.814 210.732 100.761 210.495 100.655 210.293C100.55 210.092 100.386 209.938 100.161 209.832C99.9385 209.723 99.6461 209.668 99.2839 209.668H97.9061V216H96.8088ZM100.399 212.719L102.196 216H100.946L99.1845 212.719H100.399Z" fill="white" fill-opacity="0.24"/>
<path d="M55.1506 224.273V233H53.8295V225.594H53.7784L51.6903 226.957V225.696L53.8679 224.273H55.1506ZM60.7042 235.455V226.455H61.9485V227.516H62.055C62.1289 227.379 62.2354 227.222 62.3746 227.043C62.5138 226.864 62.707 226.707 62.9542 226.574C63.2013 226.438 63.5281 226.369 63.9343 226.369C64.4627 226.369 64.9343 226.503 65.3491 226.77C65.7638 227.037 66.0891 227.422 66.3249 227.925C66.5636 228.428 66.6829 229.033 66.6829 229.74C66.6829 230.447 66.565 231.054 66.3292 231.56C66.0934 232.062 65.7695 232.45 65.3576 232.723C64.9457 232.993 64.4755 233.128 63.9471 233.128C63.5494 233.128 63.2241 233.061 62.9712 232.928C62.7212 232.794 62.5252 232.638 62.3832 232.459C62.2411 232.28 62.1317 232.121 62.055 231.982H61.9783V235.455H60.7042ZM61.9528 229.727C61.9528 230.187 62.0195 230.591 62.1531 230.938C62.2866 231.284 62.4798 231.555 62.7326 231.751C62.9854 231.945 63.2951 232.041 63.6616 232.041C64.0423 232.041 64.3604 231.94 64.6161 231.739C64.8718 231.534 65.065 231.257 65.1957 230.908C65.3292 230.558 65.396 230.165 65.396 229.727C65.396 229.295 65.3306 228.908 65.1999 228.564C65.0721 228.22 64.8789 227.949 64.6204 227.75C64.3647 227.551 64.0451 227.452 63.6616 227.452C63.2923 227.452 62.9798 227.547 62.7241 227.737C62.4712 227.928 62.2795 228.193 62.1488 228.534C62.0181 228.875 61.9528 229.273 61.9528 229.727ZM70.9315 233.132C70.2866 233.132 69.7312 232.994 69.2653 232.719C68.8022 232.44 68.4442 232.05 68.1914 231.547C67.9414 231.041 67.8164 230.449 67.8164 229.77C67.8164 229.099 67.9414 228.509 68.1914 227.997C68.4442 227.486 68.7965 227.087 69.2482 226.8C69.7028 226.513 70.234 226.369 70.842 226.369C71.2113 226.369 71.5692 226.43 71.9158 226.553C72.2624 226.675 72.5735 226.866 72.8491 227.128C73.1246 227.389 73.342 227.729 73.5011 228.146C73.6602 228.561 73.7397 229.065 73.7397 229.659V230.111H68.5366V229.156H72.4911C72.4911 228.821 72.4229 228.524 72.2866 228.266C72.1502 228.004 71.9585 227.798 71.7113 227.648C71.467 227.497 71.18 227.422 70.8505 227.422C70.4925 227.422 70.18 227.51 69.913 227.686C69.6488 227.859 69.4442 228.087 69.2994 228.368C69.1573 228.646 69.0863 228.949 69.0863 229.276V230.021C69.0863 230.459 69.163 230.831 69.3164 231.138C69.4727 231.445 69.69 231.679 69.9684 231.841C70.2468 232 70.5721 232.08 70.9442 232.08C71.1857 232.08 71.4059 232.045 71.6048 231.977C71.8036 231.906 71.9755 231.801 72.1204 231.662C72.2653 231.523 72.3761 231.351 72.4528 231.146L73.6587 231.364C73.5621 231.719 73.3888 232.03 73.1388 232.297C72.8917 232.561 72.5806 232.767 72.2056 232.915C71.8335 233.06 71.4087 233.132 70.9315 233.132ZM75.1534 233V226.455H76.3849V227.494H76.4531C76.5724 227.142 76.7827 226.865 77.0838 226.663C77.3878 226.459 77.7315 226.357 78.1151 226.357C78.1946 226.357 78.2884 226.359 78.3963 226.365C78.5071 226.371 78.5938 226.378 78.6562 226.386V227.605C78.6051 227.591 78.5142 227.575 78.3835 227.558C78.2528 227.538 78.1222 227.528 77.9915 227.528C77.6903 227.528 77.4219 227.592 77.1861 227.72C76.9531 227.845 76.7685 228.02 76.6321 228.244C76.4957 228.466 76.4276 228.719 76.4276 229.003V233H75.1534ZM84.6637 228.053L83.5089 228.257C83.4606 228.109 83.3839 227.969 83.2788 227.835C83.1765 227.702 83.0373 227.592 82.8612 227.507C82.685 227.422 82.4648 227.379 82.2006 227.379C81.8398 227.379 81.5387 227.46 81.2972 227.622C81.0558 227.781 80.935 227.987 80.935 228.24C80.935 228.459 81.016 228.635 81.1779 228.768C81.3398 228.902 81.6012 229.011 81.962 229.097L83.0018 229.335C83.604 229.474 84.0529 229.689 84.3484 229.979C84.6438 230.268 84.7915 230.645 84.7915 231.108C84.7915 231.5 84.6779 231.849 84.4506 232.156C84.2262 232.46 83.9123 232.699 83.5089 232.872C83.1083 233.045 82.6438 233.132 82.1154 233.132C81.3825 233.132 80.7844 232.976 80.3214 232.663C79.8583 232.348 79.5742 231.901 79.4691 231.321L80.7006 231.134C80.7773 231.455 80.935 231.697 81.1737 231.862C81.4123 232.024 81.7234 232.105 82.1069 232.105C82.5245 232.105 82.8583 232.018 83.1083 231.845C83.3583 231.669 83.4833 231.455 83.4833 231.202C83.4833 230.997 83.4066 230.825 83.2532 230.686C83.1026 230.547 82.8711 230.442 82.5586 230.371L81.4506 230.128C80.8398 229.989 80.3881 229.767 80.0955 229.463C79.8058 229.159 79.6609 228.774 79.6609 228.308C79.6609 227.922 79.7688 227.584 79.9847 227.294C80.2006 227.004 80.4989 226.778 80.8796 226.616C81.2603 226.452 81.6964 226.369 82.1879 226.369C82.8952 226.369 83.4521 226.523 83.8583 226.83C84.2646 227.134 84.533 227.541 84.6637 228.053ZM88.9496 233.132C88.3359 233.132 87.8004 232.991 87.343 232.71C86.8857 232.429 86.5305 232.036 86.2777 231.53C86.0249 231.024 85.8984 230.433 85.8984 229.757C85.8984 229.078 86.0249 228.484 86.2777 227.976C86.5305 227.467 86.8857 227.072 87.343 226.791C87.8004 226.51 88.3359 226.369 88.9496 226.369C89.5632 226.369 90.0987 226.51 90.5561 226.791C91.0135 227.072 91.3686 227.467 91.6214 227.976C91.8743 228.484 92.0007 229.078 92.0007 229.757C92.0007 230.433 91.8743 231.024 91.6214 231.53C91.3686 232.036 91.0135 232.429 90.5561 232.71C90.0987 232.991 89.5632 233.132 88.9496 233.132ZM88.9538 232.062C89.3516 232.062 89.6811 231.957 89.9425 231.747C90.2038 231.537 90.397 231.257 90.522 230.908C90.6499 230.558 90.7138 230.173 90.7138 229.753C90.7138 229.335 90.6499 228.952 90.522 228.602C90.397 228.25 90.2038 227.967 89.9425 227.754C89.6811 227.541 89.3516 227.435 88.9538 227.435C88.5533 227.435 88.2209 227.541 87.9567 227.754C87.6953 227.967 87.5007 228.25 87.3729 228.602C87.2479 228.952 87.1854 229.335 87.1854 229.753C87.1854 230.173 87.2479 230.558 87.3729 230.908C87.5007 231.257 87.6953 231.537 87.9567 231.747C88.2209 231.957 88.5533 232.062 88.9538 232.062ZM94.6971 229.114V233H93.4229V226.455H94.646V227.52H94.7269C94.8775 227.173 95.1133 226.895 95.4343 226.685C95.7582 226.474 96.1658 226.369 96.6573 226.369C97.1033 226.369 97.494 226.463 97.8292 226.651C98.1644 226.835 98.4244 227.111 98.609 227.477C98.7937 227.844 98.886 228.297 98.886 228.837V233H97.6119V228.99C97.6119 228.516 97.4883 228.145 97.2411 227.878C96.994 227.608 96.6545 227.473 96.2227 227.473C95.9272 227.473 95.6644 227.537 95.4343 227.665C95.207 227.793 95.0266 227.98 94.8931 228.227C94.7624 228.472 94.6971 228.767 94.6971 229.114Z" fill="white"/>
<path d="M263 120C259.211 120 255.578 121.528 252.898 124.247C250.219 126.966 248.714 130.654 248.714 134.5C248.714 138.346 250.219 142.034 252.898 144.753C255.578 147.472 259.211 149 263 149C266.789 149 270.422 147.472 273.102 144.753C275.781 142.034 277.286 138.346 277.286 134.5C277.286 130.654 275.781 126.966 273.102 124.247C270.422 121.528 266.789 120 263 120ZM245.175 152.625C244.234 152.621 243.302 152.805 242.432 153.167C241.561 153.53 240.77 154.063 240.103 154.737C239.437 155.411 238.908 156.211 238.547 157.093C238.186 157.975 238 158.92 238 159.875C238 166.005 240.975 170.627 245.625 173.639C250.204 176.601 256.375 178 263 178C269.625 178 275.796 176.601 280.375 173.639C285.025 170.63 288 166.001 288 159.875C288 157.952 287.247 156.108 285.908 154.748C284.568 153.389 282.752 152.625 280.857 152.625H245.175Z" fill="white" fill-opacity="0.1"/>
<g filter="url(#filter7_diii_693_441)">
<circle cx="252.604" cy="299.604" r="55.7394" transform="rotate(-12.6646 252.604 299.604)" fill="white" fill-opacity="0.04" shape-rendering="crispEdges"/>
<circle cx="252.604" cy="299.604" r="55.2394" transform="rotate(-12.6646 252.604 299.604)" stroke="white" stroke-opacity="0.04" shape-rendering="crispEdges"/>
</g>
<g filter="url(#filter8_di_693_441)">
<path fill-rule="evenodd" clip-rule="evenodd" d="M249.456 267.515C249.227 266.5 248.601 265.618 247.715 265.064C246.828 264.509 245.754 264.327 244.728 264.557C243.703 264.788 242.81 265.412 242.246 266.293C241.682 267.173 241.493 268.238 241.721 269.253L242.581 273.08C238.478 274.002 234.906 276.499 232.65 280.022C230.394 283.544 229.64 287.804 230.552 291.864C231.464 295.924 233.969 299.451 237.515 301.67C241.061 303.889 245.358 304.618 249.461 303.696L252.901 319.004C251.301 319.364 249.63 319.224 248.118 318.604C246.607 317.984 245.328 316.914 244.459 315.542C243.893 314.682 243.008 314.079 241.994 313.861C240.98 313.643 239.919 313.828 239.039 314.377C238.158 314.926 237.529 315.794 237.286 316.795C237.043 317.796 237.206 318.85 237.74 319.729C239.477 322.474 242.034 324.614 245.057 325.855C248.08 327.096 251.421 327.376 254.621 326.658L255.48 330.485C255.709 331.5 256.335 332.382 257.221 332.936C258.108 333.491 259.182 333.673 260.208 333.443C261.233 333.212 262.126 332.588 262.69 331.707C263.254 330.827 263.443 329.762 263.215 328.747L262.355 324.92C266.458 323.998 270.03 321.501 272.286 317.978C274.542 314.456 275.296 310.196 274.384 306.136C273.472 302.076 270.967 298.549 267.421 296.33C263.875 294.111 259.578 293.382 255.475 294.304L252.035 278.996C253.635 278.636 255.306 278.776 256.818 279.396C258.329 280.016 259.608 281.086 260.477 282.458C261.043 283.318 261.928 283.921 262.942 284.139C263.956 284.357 265.017 284.172 265.897 283.623C266.778 283.074 267.407 282.206 267.65 281.205C267.893 280.204 267.73 279.15 267.196 278.271C265.459 275.526 262.902 273.386 259.879 272.145C256.856 270.904 253.515 270.624 250.316 271.342L249.456 267.515ZM244.301 280.734C242.25 281.195 240.464 282.444 239.336 284.205C238.208 285.966 237.83 288.096 238.286 290.126C238.743 292.156 239.995 293.92 241.768 295.029C243.541 296.139 245.689 296.503 247.741 296.042L244.301 280.734ZM257.195 301.958L260.635 317.266C262.686 316.805 264.472 315.556 265.6 313.795C266.728 312.034 267.106 309.904 266.65 307.874C266.194 305.844 264.941 304.08 263.168 302.971C261.395 301.861 259.247 301.497 257.195 301.958Z" fill="#FCC42B"/>
</g>
<g filter="url(#filter9_diii_693_441)">
<circle cx="51" cy="74" r="36" fill="white" fill-opacity="0.04" shape-rendering="crispEdges"/>
<circle cx="51" cy="74" r="35.5" stroke="white" stroke-opacity="0.04" shape-rendering="crispEdges"/>
</g>
<g filter="url(#filter10_di_693_441)">
<path d="M56.9114 50.7859L36.4546 70.6151L48.3239 82.835L64.7129 78.1869L56.9114 50.7859ZM35.7013 73.4264L44.5574 96.8916L63.9596 80.9982L47.5706 85.6463L35.7013 73.4264Z" fill="#CC3DFF"/>
</g>
</g>
<rect x="8.5" y="8.5" width="317" height="579" rx="15.5" stroke="white" stroke-opacity="0.24" shape-rendering="crispEdges"/>
</g>
<defs>
<filter id="filter0_d_693_441" x="0" y="0" width="334" height="596" filterUnits="userSpaceOnUse" color-interpolation-filters="sRGB">
<feFlood flood-opacity="0" result="BackgroundImageFix"/>
<feColorMatrix in="SourceAlpha" type="matrix" values="0 0 0 0 0 0 0 0 0 0 0 0 0 0 0 0 0 0 127 0" result="hardAlpha"/>
<feOffset/>
<feGaussianBlur stdDeviation="4"/>
<feComposite in2="hardAlpha" operator="out"/>
<feColorMatrix type="matrix" values="0 0 0 0 1 0 0 0 0 1 0 0 0 0 1 0 0 0 0.12 0"/>
<feBlend mode="normal" in2="BackgroundImageFix" result="effect1_dropShadow_693_441"/>
<feBlend mode="normal" in="SourceGraphic" in2="effect1_dropShadow_693_441" result="shape"/>
</filter>
<filter id="filter1_f_693_441" x="-678.7" y="-129.7" width="1691.4" height="1691.4" filterUnits="userSpaceOnUse" color-interpolation-filters="sRGB">
<feFlood flood-opacity="0" result="BackgroundImageFix"/>
<feBlend mode="normal" in="SourceGraphic" in2="BackgroundImageFix" result="shape"/>
<feGaussianBlur stdDeviation="297.35" result="effect1_foregroundBlur_693_441"/>
</filter>
<filter id="filter2_d_693_441" x="-153" y="-312" width="640" height="640" filterUnits="userSpaceOnUse" color-interpolation-filters="sRGB">
<feFlood flood-opacity="0" result="BackgroundImageFix"/>
<feColorMatrix in="SourceAlpha" type="matrix" values="0 0 0 0 0 0 0 0 0 0 0 0 0 0 0 0 0 0 127 0" result="hardAlpha"/>
<feOffset/>
<feGaussianBlur stdDeviation="14"/>
<feComposite in2="hardAlpha" operator="out"/>
<feColorMatrix type="matrix" values="0 0 0 0 1 0 0 0 0 1 0 0 0 0 1 0 0 0 0.01 0"/>
<feBlend mode="normal" in2="BackgroundImageFix" result="effect1_dropShadow_693_441"/>
<feBlend mode="normal" in="SourceGraphic" in2="effect1_dropShadow_693_441" result="shape"/>
</filter>
<filter id="filter3_d_693_441" x="-108.077" y="-267.077" width="550.154" height="550.154" filterUnits="userSpaceOnUse" color-interpolation-filters="sRGB">
<feFlood flood-opacity="0" result="BackgroundImageFix"/>
<feColorMatrix in="SourceAlpha" type="matrix" values="0 0 0 0 0 0 0 0 0 0 0 0 0 0 0 0 0 0 127 0" result="hardAlpha"/>
<feOffset/>
<feGaussianBlur stdDeviation="14"/>
<feComposite in2="hardAlpha" operator="out"/>
<feColorMatrix type="matrix" values="0 0 0 0 1 0 0 0 0 1 0 0 0 0 1 0 0 0 0.01 0"/>
<feBlend mode="normal" in2="BackgroundImageFix" result="effect1_dropShadow_693_441"/>
<feBlend mode="normal" in="SourceGraphic" in2="effect1_dropShadow_693_441" result="shape"/>
</filter>
<filter id="filter4_d_693_441" x="-59.6982" y="-218.698" width="453.396" height="453.396" filterUnits="userSpaceOnUse" color-interpolation-filters="sRGB">
<feFlood flood-opacity="0" result="BackgroundImageFix"/>
<feColorMatrix in="SourceAlpha" type="matrix" values="0 0 0 0 0 0 0 0 0 0 0 0 0 0 0 0 0 0 127 0" result="hardAlpha"/>
<feOffset/>
<feGaussianBlur stdDeviation="14"/>
<feComposite in2="hardAlpha" operator="out"/>
<feColorMatrix type="matrix" values="0 0 0 0 1 0 0 0 0 1 0 0 0 0 1 0 0 0 0.01 0"/>
<feBlend mode="normal" in2="BackgroundImageFix" result="effect1_dropShadow_693_441"/>
<feBlend mode="normal" in="SourceGraphic" in2="effect1_dropShadow_693_441" result="shape"/>
</filter>
<filter id="filter5_d_693_441" x="-13.0474" y="-172.047" width="360.095" height="360.095" filterUnits="userSpaceOnUse" color-interpolation-filters="sRGB">
<feFlood flood-opacity="0" result="BackgroundImageFix"/>
<feColorMatrix in="SourceAlpha" type="matrix" values="0 0 0 0 0 0 0 0 0 0 0 0 0 0 0 0 0 0 127 0" result="hardAlpha"/>
<feOffset/>
<feGaussianBlur stdDeviation="14"/>
<feComposite in2="hardAlpha" operator="out"/>
<feColorMatrix type="matrix" values="0 0 0 0 1 0 0 0 0 1 0 0 0 0 1 0 0 0 0.02 0"/>
<feBlend mode="normal" in2="BackgroundImageFix" result="effect1_dropShadow_693_441"/>
<feBlend mode="normal" in="SourceGraphic" in2="effect1_dropShadow_693_441" result="shape"/>
</filter>
<filter id="filter6_ddi_693_441" x="-46.2281" y="18.4564" width="426.455" height="321.107" filterUnits="userSpaceOnUse" color-interpolation-filters="sRGB">
<feFlood flood-opacity="0" result="BackgroundImageFix"/>
<feColorMatrix in="SourceAlpha" type="matrix" values="0 0 0 0 0 0 0 0 0 0 0 0 0 0 0 0 0 0 127 0" result="hardAlpha"/>
<feOffset/>
<feGaussianBlur stdDeviation="2.5"/>
<feComposite in2="hardAlpha" operator="out"/>
<feColorMatrix type="matrix" values="0 0 0 0 0 0 0 0 0 0 0 0 0 0 0 0 0 0 0.08 0"/>
<feBlend mode="normal" in2="BackgroundImageFix" result="effect1_dropShadow_693_441"/>
<feColorMatrix in="SourceAlpha" type="matrix" values="0 0 0 0 0 0 0 0 0 0 0 0 0 0 0 0 0 0 127 0" result="hardAlpha"/>
<feMorphology radius="12" operator="dilate" in="SourceAlpha" result="effect2_dropShadow_693_441"/>
<feOffset/>
<feGaussianBlur stdDeviation="29.7"/>
<feComposite in2="hardAlpha" operator="out"/>
<feColorMatrix type="matrix" values="0 0 0 0 0.698039 0 0 0 0 0.494118 0 0 0 0 0.956863 0 0 0 0.2 0"/>
<feBlend mode="normal" in2="effect1_dropShadow_693_441" result="effect2_dropShadow_693_441"/>
<feBlend mode="normal" in="SourceGraphic" in2="effect2_dropShadow_693_441" result="shape"/>
<feColorMatrix in="SourceAlpha" type="matrix" values="0 0 0 0 0 0 0 0 0 0 0 0 0 0 0 0 0 0 127 0" result="hardAlpha"/>
<feOffset/>
<feGaussianBlur stdDeviation="12"/>
<feComposite in2="hardAlpha" operator="arithmetic" k2="-1" k3="1"/>
<feColorMatrix type="matrix" values="0 0 0 0 1 0 0 0 0 1 0 0 0 0 1 0 0 0 0.16 0"/>
<feBlend mode="normal" in2="shape" result="effect3_innerShadow_693_441"/>
</filter>
<filter id="filter7_diii_693_441" x="168.852" y="215.853" width="167.503" height="167.503" filterUnits="userSpaceOnUse" color-interpolation-filters="sRGB">
<feFlood flood-opacity="0" result="BackgroundImageFix"/>
<feColorMatrix in="SourceAlpha" type="matrix" values="0 0 0 0 0 0 0 0 0 0 0 0 0 0 0 0 0 0 127 0" result="hardAlpha"/>
<feOffset/>
<feGaussianBlur stdDeviation="14"/>
<feComposite in2="hardAlpha" operator="out"/>
<feColorMatrix type="matrix" values="0 0 0 0 1 0 0 0 0 1 0 0 0 0 1 0 0 0 0.02 0"/>
<feBlend mode="normal" in2="BackgroundImageFix" result="effect1_dropShadow_693_441"/>
<feBlend mode="normal" in="SourceGraphic" in2="effect1_dropShadow_693_441" result="shape"/>
<feColorMatrix in="SourceAlpha" type="matrix" values="0 0 0 0 0 0 0 0 0 0 0 0 0 0 0 0 0 0 127 0" result="hardAlpha"/>
<feOffset dy="2"/>
<feGaussianBlur stdDeviation="3.5"/>
<feComposite in2="hardAlpha" operator="arithmetic" k2="-1" k3="1"/>
<feColorMatrix type="matrix" values="0 0 0 0 0 0 0 0 0 0 0 0 0 0 0 0 0 0 0.12 0"/>
<feBlend mode="normal" in2="shape" result="effect2_innerShadow_693_441"/>
<feColorMatrix in="SourceAlpha" type="matrix" values="0 0 0 0 0 0 0 0 0 0 0 0 0 0 0 0 0 0 127 0" result="hardAlpha"/>
<feOffset dy="-1"/>
<feGaussianBlur stdDeviation="1.15"/>
<feComposite in2="hardAlpha" operator="arithmetic" k2="-1" k3="1"/>
<feColorMatrix type="matrix" values="0 0 0 0 1 0 0 0 0 1 0 0 0 0 1 0 0 0 0.06 0"/>
<feBlend mode="normal" in2="effect2_innerShadow_693_441" result="effect3_innerShadow_693_441"/>
<feColorMatrix in="SourceAlpha" type="matrix" values="0 0 0 0 0 0 0 0 0 0 0 0 0 0 0 0 0 0 127 0" result="hardAlpha"/>
<feOffset/>
<feGaussianBlur stdDeviation="0.5"/>
<feComposite in2="hardAlpha" operator="arithmetic" k2="-1" k3="1"/>
<feColorMatrix type="matrix" values="0 0 0 0 1 0 0 0 0 1 0 0 0 0 1 0 0 0 0.16 0"/>
<feBlend mode="normal" in2="effect3_innerShadow_693_441" result="effect4_innerShadow_693_441"/>
</filter>
<filter id="filter8_di_693_441" x="219.674" y="253.96" width="65.5879" height="90.0803" filterUnits="userSpaceOnUse" color-interpolation-filters="sRGB">
<feFlood flood-opacity="0" result="BackgroundImageFix"/>
<feColorMatrix in="SourceAlpha" type="matrix" values="0 0 0 0 0 0 0 0 0 0 0 0 0 0 0 0 0 0 127 0" result="hardAlpha"/>
<feOffset/>
<feGaussianBlur stdDeviation="5.25"/>
<feComposite in2="hardAlpha" operator="out"/>
<feColorMatrix type="matrix" values="0 0 0 0 0.988235 0 0 0 0 0.768627 0 0 0 0 0.168627 0 0 0 0.5 0"/>
<feBlend mode="normal" in2="BackgroundImageFix" result="effect1_dropShadow_693_441"/>
<feBlend mode="normal" in="SourceGraphic" in2="effect1_dropShadow_693_441" result="shape"/>
<feColorMatrix in="SourceAlpha" type="matrix" values="0 0 0 0 0 0 0 0 0 0 0 0 0 0 0 0 0 0 127 0" result="hardAlpha"/>
<feOffset/>
<feGaussianBlur stdDeviation="1"/>
<feComposite in2="hardAlpha" operator="arithmetic" k2="-1" k3="1"/>
<feColorMatrix type="matrix" values="0 0 0 0 1 0 0 0 0 1 0 0 0 0 1 0 0 0 0.4 0"/>
<feBlend mode="normal" in2="shape" result="effect2_innerShadow_693_441"/>
</filter>
<filter id="filter9_diii_693_441" x="-13" y="10" width="128" height="128" filterUnits="userSpaceOnUse" color-interpolation-filters="sRGB">
<feFlood flood-opacity="0" result="BackgroundImageFix"/>
<feColorMatrix in="SourceAlpha" type="matrix" values="0 0 0 0 0 0 0 0 0 0 0 0 0 0 0 0 0 0 127 0" result="hardAlpha"/>
<feOffset/>
<feGaussianBlur stdDeviation="14"/>
<feComposite in2="hardAlpha" operator="out"/>
<feColorMatrix type="matrix" values="0 0 0 0 1 0 0 0 0 1 0 0 0 0 1 0 0 0 0.02 0"/>
<feBlend mode="normal" in2="BackgroundImageFix" result="effect1_dropShadow_693_441"/>
<feBlend mode="normal" in="SourceGraphic" in2="effect1_dropShadow_693_441" result="shape"/>
<feColorMatrix in="SourceAlpha" type="matrix" values="0 0 0 0 0 0 0 0 0 0 0 0 0 0 0 0 0 0 127 0" result="hardAlpha"/>
<feOffset dy="2"/>
<feGaussianBlur stdDeviation="3.5"/>
<feComposite in2="hardAlpha" operator="arithmetic" k2="-1" k3="1"/>
<feColorMatrix type="matrix" values="0 0 0 0 0 0 0 0 0 0 0 0 0 0 0 0 0 0 0.12 0"/>
<feBlend mode="normal" in2="shape" result="effect2_innerShadow_693_441"/>
<feColorMatrix in="SourceAlpha" type="matrix" values="0 0 0 0 0 0 0 0 0 0 0 0 0 0 0 0 0 0 127 0" result="hardAlpha"/>
<feOffset dy="-1"/>
<feGaussianBlur stdDeviation="1.15"/>
<feComposite in2="hardAlpha" operator="arithmetic" k2="-1" k3="1"/>
<feColorMatrix type="matrix" values="0 0 0 0 1 0 0 0 0 1 0 0 0 0 1 0 0 0 0.06 0"/>
<feBlend mode="normal" in2="effect2_innerShadow_693_441" result="effect3_innerShadow_693_441"/>
<feColorMatrix in="SourceAlpha" type="matrix" values="0 0 0 0 0 0 0 0 0 0 0 0 0 0 0 0 0 0 127 0" result="hardAlpha"/>
<feOffset/>
<feGaussianBlur stdDeviation="0.5"/>
<feComposite in2="hardAlpha" operator="arithmetic" k2="-1" k3="1"/>
<feColorMatrix type="matrix" values="0 0 0 0 1 0 0 0 0 1 0 0 0 0 1 0 0 0 0.16 0"/>
<feBlend mode="normal" in2="effect3_innerShadow_693_441" result="effect4_innerShadow_693_441"/>
</filter>
<filter id="filter10_di_693_441" x="25.2012" y="40.2859" width="50.0117" height="67.1057" filterUnits="userSpaceOnUse" color-interpolation-filters="sRGB">
<feFlood flood-opacity="0" result="BackgroundImageFix"/>
<feColorMatrix in="SourceAlpha" type="matrix" values="0 0 0 0 0 0 0 0 0 0 0 0 0 0 0 0 0 0 127 0" result="hardAlpha"/>
<feOffset/>
<feGaussianBlur stdDeviation="5.25"/>
<feComposite in2="hardAlpha" operator="out"/>
<feColorMatrix type="matrix" values="0 0 0 0 0.8 0 0 0 0 0.239216 0 0 0 0 1 0 0 0 0.5 0"/>
<feBlend mode="normal" in2="BackgroundImageFix" result="effect1_dropShadow_693_441"/>
<feBlend mode="normal" in="SourceGraphic" in2="effect1_dropShadow_693_441" result="shape"/>
<feColorMatrix in="SourceAlpha" type="matrix" values="0 0 0 0 0 0 0 0 0 0 0 0 0 0 0 0 0 0 127 0" result="hardAlpha"/>
<feOffset/>
<feGaussianBlur stdDeviation="1"/>
<feComposite in2="hardAlpha" operator="arithmetic" k2="-1" k3="1"/>
<feColorMatrix type="matrix" values="0 0 0 0 1 0 0 0 0 1 0 0 0 0 1 0 0 0 0.4 0"/>
<feBlend mode="normal" in2="shape" result="effect2_innerShadow_693_441"/>
</filter>
<linearGradient id="paint0_linear_693_441" x1="134.465" y1="-213.808" x2="206.83" y2="353.885" gradientUnits="userSpaceOnUse">
<stop stop-color="#B27EF4"/>
<stop offset="1" stop-color="#461683"/>
</linearGradient>
<clipPath id="clip0_693_441">
<rect x="8" y="8" width="318" height="580" rx="16" fill="white"/>
</clipPath>
</defs>
</svg>
