<svg width="676" height="294" viewBox="0 0 676 294" fill="none" xmlns="http://www.w3.org/2000/svg">
<g filter="url(#filter0_d_498_31)">
<g clip-path="url(#clip0_498_31)">
<rect x="8" y="8" width="660" height="278" rx="16" fill="white" fill-opacity="0.04" shape-rendering="crispEdges"/>
<g filter="url(#filter1_f_498_31)">
<circle cx="8" cy="8" r="217" fill="#6100DE"/>
</g>
<g filter="url(#filter2_ddi_498_31)">
<path d="M743.179 236.896L743.185 203.267L743.173 152.797L743.173 119.15C743.173 100.569 728.113 85.5095 710.042 85.5156L637.409 85.5217C636.063 87.8751 634.755 90.1055 632.862 91.998C629.603 95.2572 625.182 97.0882 620.573 97.0882C615.964 97.0882 611.544 95.2572 608.284 91.998C606.392 90.1055 605.083 87.8751 604.248 85.5033L482.459 85.5095C478.04 85.5093 473.665 86.3795 469.583 88.0704C465.5 89.7613 461.791 92.2397 458.667 95.3641C455.542 98.4885 453.064 102.198 451.373 106.28C449.682 110.362 448.812 114.738 448.812 119.156L448.818 152.797L448.812 203.261L448.812 236.896C448.812 241.314 449.682 245.69 451.373 249.772C453.064 253.854 455.542 257.564 458.667 260.688C461.791 263.812 465.5 266.291 469.583 267.982C473.665 269.673 478.04 270.543 482.459 270.543L604.248 270.549C605.083 268.102 606.463 265.877 608.284 264.042C611.544 260.783 615.964 258.952 620.573 258.952C625.182 258.952 629.603 260.783 632.862 264.042C634.755 265.934 636.069 268.171 636.899 270.537L709.532 270.53C718.454 270.531 727.01 266.987 733.32 260.68C739.63 254.373 743.176 245.817 743.179 236.896ZM608.284 141.153C606.671 139.539 605.391 137.622 604.518 135.513C603.645 133.404 603.195 131.143 603.196 128.86C603.197 126.577 603.647 124.317 604.521 122.208C605.395 120.099 606.676 118.183 608.291 116.57C609.905 114.956 611.822 113.676 613.931 112.803C616.04 111.93 618.301 111.481 620.584 111.481C622.867 111.482 625.127 111.932 627.236 112.806C629.345 113.68 631.261 114.961 632.874 116.576C636.134 119.836 637.964 124.258 637.963 128.869C637.962 133.479 636.129 137.9 632.868 141.159C629.607 144.419 625.185 146.249 620.575 146.248C615.965 146.247 611.544 144.414 608.284 141.153ZM608.284 190.309C606.671 188.694 605.391 186.778 604.518 184.668C603.644 182.559 603.195 180.298 603.196 178.016C603.197 175.733 603.647 173.472 604.521 171.364C605.395 169.255 606.676 167.339 608.291 165.725C609.905 164.111 611.822 162.831 613.931 161.958C616.04 161.085 618.301 160.636 620.584 160.637C622.867 160.637 625.127 161.087 627.236 161.961C629.345 162.836 631.261 164.116 632.874 165.731C636.134 168.992 637.964 173.414 637.963 178.024C637.962 182.635 636.129 187.056 632.868 190.315C629.607 193.574 625.185 195.404 620.575 195.403C615.965 195.402 611.544 193.57 608.284 190.309ZM608.284 239.464C606.671 237.85 605.391 235.933 604.518 233.824C603.644 231.714 603.195 229.454 603.196 227.171C603.197 224.888 603.647 222.628 604.521 220.519C605.395 218.41 606.676 216.494 608.291 214.88C609.905 213.267 611.822 211.987 613.931 211.113C616.04 210.24 618.301 209.791 620.584 209.792C622.867 209.792 625.127 210.243 627.236 211.117C629.345 211.991 631.261 213.272 632.874 214.886C636.134 218.147 637.964 222.569 637.963 227.18C637.962 231.79 636.129 236.211 632.868 239.47C629.607 242.729 625.185 244.56 620.575 244.559C615.965 244.558 611.544 242.725 608.284 239.464Z" fill="#9542FF" fill-opacity="0.48"/>
</g>
<path d="M470.799 114.727H472.131L474.446 120.381H474.531L476.847 114.727H478.178V122H477.134V116.737H477.067L474.922 121.989H474.055L471.911 116.734H471.843V122H470.799V114.727ZM486.091 118.364C486.091 119.14 485.949 119.808 485.665 120.366C485.381 120.923 484.991 121.351 484.497 121.652C484.004 121.95 483.444 122.099 482.817 122.099C482.187 122.099 481.625 121.95 481.13 121.652C480.638 121.351 480.249 120.922 479.965 120.363C479.681 119.804 479.539 119.138 479.539 118.364C479.539 117.587 479.681 116.921 479.965 116.364C480.249 115.806 480.638 115.377 481.13 115.079C481.625 114.778 482.187 114.628 482.817 114.628C483.444 114.628 484.004 114.778 484.497 115.079C484.991 115.377 485.381 115.806 485.665 116.364C485.949 116.921 486.091 117.587 486.091 118.364ZM485.004 118.364C485.004 117.772 484.909 117.273 484.717 116.869C484.527 116.461 484.267 116.154 483.936 115.945C483.606 115.735 483.234 115.629 482.817 115.629C482.398 115.629 482.024 115.735 481.695 115.945C481.366 116.154 481.105 116.461 480.914 116.869C480.724 117.273 480.629 117.772 480.629 118.364C480.629 118.955 480.724 119.455 480.914 119.862C481.105 120.267 481.366 120.575 481.695 120.786C482.024 120.994 482.398 121.098 482.817 121.098C483.234 121.098 483.606 120.994 483.936 120.786C484.267 120.575 484.527 120.267 484.717 119.862C484.909 119.455 485.004 118.955 485.004 118.364ZM493.329 114.727V122H492.321L488.624 116.666H488.556V122H487.459V114.727H488.475L492.175 120.068H492.243V114.727H493.329ZM497.284 122H494.93V114.727H497.359C498.071 114.727 498.683 114.873 499.195 115.164C499.706 115.453 500.098 115.868 500.37 116.411C500.645 116.95 500.782 117.598 500.782 118.353C500.782 119.111 500.644 119.762 500.367 120.306C500.092 120.851 499.694 121.27 499.173 121.563C498.653 121.854 498.023 122 497.284 122ZM496.027 121.041H497.224C497.778 121.041 498.238 120.937 498.605 120.729C498.972 120.518 499.247 120.214 499.429 119.816C499.611 119.416 499.703 118.928 499.703 118.353C499.703 117.782 499.611 117.298 499.429 116.901C499.249 116.503 498.981 116.201 498.623 115.995C498.266 115.789 497.822 115.686 497.291 115.686H496.027V121.041ZM502.4 122H501.235L503.852 114.727H505.12L507.737 122H506.572L504.516 116.048H504.459L502.4 122ZM502.595 119.152H506.373V120.075H502.595V119.152ZM507.484 114.727H508.73L510.63 118.033H510.708L512.608 114.727H513.855L511.216 119.145V122H510.123V119.145L507.484 114.727Z" fill="white" fill-opacity="0.24"/>
<path d="M471.119 131.818H472.983L476.224 139.733H476.344L479.585 131.818H481.45V142H479.988V134.632H479.893L476.891 141.985H475.678L472.675 134.627H472.58V142H471.119V131.818ZM485.786 142.169C485.302 142.169 484.865 142.08 484.474 141.901C484.082 141.718 483.773 141.455 483.544 141.11C483.318 140.765 483.206 140.343 483.206 139.842C483.206 139.411 483.289 139.057 483.454 138.778C483.62 138.5 483.844 138.28 484.126 138.117C484.407 137.955 484.722 137.832 485.07 137.749C485.418 137.666 485.773 137.603 486.134 137.56C486.591 137.507 486.963 137.464 487.248 137.431C487.533 137.395 487.74 137.337 487.869 137.257C487.998 137.178 488.063 137.048 488.063 136.869V136.835C488.063 136.4 487.94 136.064 487.695 135.825C487.453 135.587 487.092 135.467 486.611 135.467C486.111 135.467 485.716 135.578 485.428 135.8C485.143 136.019 484.946 136.263 484.836 136.531L483.439 136.213C483.605 135.749 483.847 135.375 484.165 135.089C484.487 134.801 484.856 134.592 485.274 134.463C485.692 134.33 486.131 134.264 486.591 134.264C486.896 134.264 487.22 134.301 487.561 134.374C487.906 134.443 488.227 134.572 488.525 134.761C488.827 134.95 489.074 135.22 489.266 135.572C489.458 135.92 489.555 136.372 489.555 136.929V142H488.103V140.956H488.043C487.947 141.148 487.803 141.337 487.611 141.523C487.418 141.708 487.171 141.862 486.87 141.985C486.568 142.108 486.207 142.169 485.786 142.169ZM486.109 140.976C486.52 140.976 486.872 140.895 487.163 140.732C487.458 140.57 487.682 140.358 487.834 140.096C487.99 139.831 488.068 139.547 488.068 139.246V138.261C488.015 138.314 487.912 138.364 487.76 138.411C487.611 138.454 487.44 138.492 487.248 138.525C487.055 138.555 486.868 138.583 486.686 138.609C486.504 138.633 486.351 138.652 486.229 138.669C485.94 138.705 485.677 138.767 485.438 138.853C485.203 138.939 485.014 139.063 484.871 139.226C484.732 139.385 484.662 139.597 484.662 139.862C484.662 140.23 484.798 140.509 485.07 140.697C485.342 140.883 485.688 140.976 486.109 140.976ZM492.201 144.864C491.979 144.864 491.776 144.845 491.594 144.809C491.412 144.776 491.276 144.739 491.186 144.7L491.544 143.482C491.816 143.554 492.058 143.586 492.27 143.576C492.482 143.566 492.67 143.487 492.832 143.337C492.998 143.188 493.144 142.945 493.27 142.607L493.453 142.099L490.659 134.364H492.25L494.184 140.29H494.264L496.198 134.364H497.794L494.647 143.019C494.501 143.417 494.315 143.753 494.09 144.028C493.864 144.307 493.596 144.516 493.284 144.655C492.973 144.794 492.612 144.864 492.201 144.864ZM506.421 142.169C505.635 142.166 504.964 141.959 504.407 141.548C503.85 141.137 503.424 140.538 503.129 139.753C502.834 138.967 502.687 138.021 502.687 136.914C502.687 135.81 502.834 134.867 503.129 134.085C503.428 133.303 503.855 132.706 504.412 132.295C504.972 131.884 505.642 131.679 506.421 131.679C507.2 131.679 507.867 131.886 508.424 132.3C508.981 132.711 509.407 133.308 509.702 134.09C510 134.869 510.149 135.81 510.149 136.914C510.149 138.024 510.002 138.972 509.707 139.758C509.412 140.54 508.986 141.138 508.429 141.553C507.872 141.964 507.203 142.169 506.421 142.169ZM506.421 140.842C507.11 140.842 507.649 140.505 508.036 139.832C508.427 139.16 508.623 138.187 508.623 136.914C508.623 136.069 508.534 135.355 508.355 134.771C508.179 134.185 507.925 133.741 507.594 133.439C507.266 133.134 506.875 132.982 506.421 132.982C505.735 132.982 505.196 133.32 504.805 133.996C504.414 134.672 504.217 135.645 504.213 136.914C504.213 137.763 504.301 138.48 504.477 139.067C504.656 139.65 504.909 140.093 505.237 140.394C505.566 140.692 505.96 140.842 506.421 140.842ZM515.299 131.679C515.753 131.682 516.2 131.765 516.641 131.928C517.082 132.09 517.48 132.355 517.834 132.723C518.192 133.091 518.477 133.588 518.689 134.214C518.905 134.838 519.014 135.613 519.017 136.541C519.017 137.433 518.928 138.227 518.749 138.923C518.57 139.615 518.313 140.2 517.978 140.678C517.647 141.155 517.244 141.518 516.77 141.766C516.296 142.015 515.763 142.139 515.169 142.139C514.563 142.139 514.024 142.02 513.554 141.781C513.083 141.543 512.7 141.213 512.405 140.792C512.11 140.368 511.926 139.88 511.853 139.33H513.37C513.469 139.768 513.671 140.122 513.976 140.394C514.284 140.663 514.682 140.797 515.169 140.797C515.915 140.797 516.497 140.472 516.914 139.822C517.332 139.17 517.542 138.258 517.546 137.088H517.466C517.294 137.373 517.078 137.618 516.82 137.824C516.565 138.029 516.278 138.188 515.96 138.301C515.642 138.414 515.302 138.47 514.941 138.47C514.354 138.47 513.82 138.326 513.34 138.038C512.859 137.749 512.476 137.353 512.191 136.849C511.906 136.346 511.764 135.771 511.764 135.124C511.764 134.481 511.91 133.898 512.201 133.374C512.496 132.851 512.907 132.436 513.434 132.131C513.965 131.823 514.586 131.672 515.299 131.679ZM515.304 132.972C514.916 132.972 514.566 133.068 514.255 133.26C513.946 133.449 513.703 133.706 513.524 134.031C513.345 134.352 513.255 134.71 513.255 135.104C513.255 135.499 513.342 135.857 513.514 136.178C513.69 136.496 513.928 136.75 514.23 136.939C514.535 137.125 514.883 137.217 515.274 137.217C515.565 137.217 515.837 137.161 516.089 137.048C516.341 136.936 516.561 136.78 516.75 136.581C516.939 136.379 517.087 136.15 517.193 135.895C517.299 135.64 517.352 135.371 517.352 135.089C517.352 134.715 517.262 134.367 517.083 134.045C516.908 133.724 516.666 133.465 516.358 133.27C516.049 133.071 515.698 132.972 515.304 132.972ZM522.398 140.608L522.324 141.15C522.274 141.548 522.189 141.962 522.07 142.393C521.954 142.827 521.833 143.23 521.707 143.601C521.584 143.972 521.483 144.267 521.404 144.486H520.35C520.393 144.28 520.453 144.002 520.529 143.651C520.605 143.303 520.68 142.913 520.752 142.482C520.825 142.051 520.88 141.612 520.917 141.165L520.966 140.608H522.398ZM528.018 142V140.886L531.464 137.317C531.832 136.929 532.135 136.589 532.374 136.298C532.616 136.003 532.796 135.723 532.915 135.457C533.035 135.192 533.094 134.911 533.094 134.612C533.094 134.274 533.015 133.982 532.856 133.737C532.697 133.489 532.48 133.298 532.205 133.165C531.929 133.03 531.62 132.962 531.275 132.962C530.91 132.962 530.592 133.036 530.32 133.185C530.049 133.335 529.84 133.545 529.694 133.817C529.548 134.089 529.475 134.407 529.475 134.771H528.009C528.009 134.152 528.151 133.61 528.436 133.146C528.721 132.682 529.112 132.322 529.609 132.067C530.107 131.808 530.672 131.679 531.305 131.679C531.944 131.679 532.508 131.807 532.995 132.062C533.486 132.314 533.868 132.658 534.143 133.096C534.419 133.53 534.556 134.021 534.556 134.567C534.556 134.945 534.485 135.315 534.342 135.676C534.203 136.037 533.96 136.44 533.612 136.884C533.263 137.325 532.78 137.86 532.16 138.49L530.136 140.608V140.683H534.72V142H528.018ZM540.149 142.169C539.364 142.166 538.692 141.959 538.136 141.548C537.579 141.137 537.153 140.538 536.858 139.753C536.563 138.967 536.415 138.021 536.415 136.914C536.415 135.81 536.563 134.867 536.858 134.085C537.156 133.303 537.584 132.706 538.141 132.295C538.701 131.884 539.37 131.679 540.149 131.679C540.928 131.679 541.596 131.886 542.153 132.3C542.71 132.711 543.135 133.308 543.43 134.09C543.729 134.869 543.878 135.81 543.878 136.914C543.878 138.024 543.73 138.972 543.435 139.758C543.14 140.54 542.714 141.138 542.158 141.553C541.601 141.964 540.931 142.169 540.149 142.169ZM540.149 140.842C540.839 140.842 541.377 140.505 541.765 139.832C542.156 139.16 542.352 138.187 542.352 136.914C542.352 136.069 542.262 135.355 542.083 134.771C541.907 134.185 541.654 133.741 541.322 133.439C540.994 133.134 540.603 132.982 540.149 132.982C539.463 132.982 538.924 133.32 538.533 133.996C538.142 134.672 537.945 135.645 537.942 136.914C537.942 137.763 538.03 138.48 538.205 139.067C538.384 139.65 538.638 140.093 538.966 140.394C539.294 140.692 539.688 140.842 540.149 140.842ZM545.642 142V140.886L549.087 137.317C549.455 136.929 549.758 136.589 549.997 136.298C550.239 136.003 550.419 135.723 550.539 135.457C550.658 135.192 550.718 134.911 550.718 134.612C550.718 134.274 550.638 133.982 550.479 133.737C550.32 133.489 550.103 133.298 549.828 133.165C549.552 133.03 549.243 132.962 548.898 132.962C548.533 132.962 548.215 133.036 547.943 133.185C547.672 133.335 547.463 133.545 547.317 133.817C547.171 134.089 547.098 134.407 547.098 134.771H545.632C545.632 134.152 545.774 133.61 546.059 133.146C546.344 132.682 546.735 132.322 547.232 132.067C547.73 131.808 548.295 131.679 548.928 131.679C549.567 131.679 550.131 131.807 550.618 132.062C551.109 132.314 551.491 132.658 551.767 133.096C552.042 133.53 552.179 134.021 552.179 134.567C552.179 134.945 552.108 135.315 551.965 135.676C551.826 136.037 551.583 136.44 551.235 136.884C550.887 137.325 550.403 137.86 549.783 138.49L547.759 140.608V140.683H552.343V142H545.642ZM553.795 140.011V138.768L558.195 131.818H559.174V133.648H558.553L555.406 138.629V138.709H561.436V140.011H553.795ZM558.622 142V139.634L558.632 139.067V131.818H560.089V142H558.622Z" fill="white"/>
<path d="M471.896 164.727V172H470.799V164.727H471.896ZM479.364 164.727V172H478.356L474.659 166.666H474.592V172H473.494V164.727H474.51L478.21 170.068H478.278V164.727H479.364ZM487.006 167.092H485.898C485.855 166.856 485.776 166.647 485.66 166.467C485.544 166.287 485.402 166.135 485.233 166.009C485.065 165.884 484.877 165.789 484.669 165.725C484.463 165.661 484.244 165.629 484.012 165.629C483.593 165.629 483.218 165.735 482.886 165.945C482.557 166.156 482.297 166.465 482.105 166.872C481.916 167.279 481.821 167.777 481.821 168.364C481.821 168.955 481.916 169.455 482.105 169.862C482.297 170.269 482.558 170.577 482.89 170.786C483.221 170.994 483.594 171.098 484.008 171.098C484.238 171.098 484.456 171.067 484.662 171.006C484.87 170.942 485.058 170.848 485.226 170.725C485.394 170.602 485.537 170.452 485.653 170.274C485.771 170.094 485.853 169.888 485.898 169.656L487.006 169.66C486.946 170.017 486.831 170.346 486.661 170.647C486.493 170.945 486.276 171.203 486.011 171.421C485.748 171.637 485.448 171.804 485.109 171.922C484.771 172.04 484.401 172.099 484.001 172.099C483.372 172.099 482.81 171.95 482.318 171.652C481.826 171.351 481.437 170.922 481.153 170.363C480.872 169.804 480.731 169.138 480.731 168.364C480.731 167.587 480.873 166.921 481.157 166.364C481.441 165.806 481.829 165.377 482.322 165.079C482.814 164.778 483.374 164.628 484.001 164.628C484.387 164.628 484.747 164.683 485.081 164.795C485.417 164.904 485.719 165.065 485.986 165.278C486.254 165.488 486.475 165.746 486.65 166.052C486.826 166.355 486.944 166.702 487.006 167.092ZM488.933 172.067C488.739 172.067 488.572 171.999 488.432 171.862C488.292 171.722 488.223 171.554 488.223 171.357C488.223 171.163 488.292 170.997 488.432 170.86C488.572 170.72 488.739 170.651 488.933 170.651C489.127 170.651 489.294 170.72 489.434 170.86C489.573 170.997 489.643 171.163 489.643 171.357C489.643 171.487 489.61 171.607 489.544 171.716C489.48 171.822 489.395 171.908 489.288 171.972C489.181 172.036 489.063 172.067 488.933 172.067ZM497.646 166.638C497.609 166.302 497.452 166.041 497.178 165.857C496.903 165.67 496.557 165.576 496.141 165.576C495.843 165.576 495.584 165.623 495.367 165.718C495.149 165.81 494.98 165.938 494.859 166.102C494.74 166.263 494.681 166.446 494.681 166.652C494.681 166.825 494.722 166.974 494.802 167.099C494.885 167.225 494.993 167.33 495.125 167.415C495.26 167.498 495.405 167.568 495.558 167.625C495.712 167.679 495.86 167.724 496.002 167.76L496.713 167.945C496.945 168.001 497.182 168.078 497.426 168.175C497.67 168.272 497.896 168.4 498.105 168.559C498.313 168.718 498.481 168.914 498.609 169.148C498.739 169.383 498.804 169.663 498.804 169.99C498.804 170.402 498.698 170.768 498.485 171.087C498.274 171.407 497.967 171.659 497.565 171.844C497.165 172.028 496.681 172.121 496.112 172.121C495.568 172.121 495.097 172.034 494.699 171.862C494.301 171.689 493.99 171.444 493.765 171.126C493.54 170.807 493.416 170.428 493.392 169.99H494.493C494.514 170.253 494.6 170.472 494.749 170.647C494.9 170.82 495.093 170.949 495.328 171.034C495.564 171.117 495.824 171.158 496.105 171.158C496.415 171.158 496.691 171.11 496.933 171.013C497.177 170.913 497.368 170.776 497.508 170.601C497.648 170.423 497.718 170.216 497.718 169.979C497.718 169.764 497.656 169.588 497.533 169.45C497.412 169.313 497.248 169.199 497.039 169.109C496.833 169.019 496.6 168.94 496.34 168.871L495.48 168.637C494.898 168.478 494.436 168.245 494.095 167.938C493.757 167.63 493.588 167.223 493.588 166.716C493.588 166.297 493.701 165.931 493.928 165.619C494.156 165.306 494.463 165.063 494.852 164.891C495.24 164.715 495.678 164.628 496.166 164.628C496.658 164.628 497.093 164.714 497.469 164.887C497.848 165.06 498.146 165.298 498.364 165.601C498.582 165.902 498.695 166.247 498.705 166.638H497.646ZM500.115 172V164.727H504.675V165.672H501.213V167.888H504.437V168.829H501.213V171.055H504.718V172H500.115ZM506.141 172V164.727H508.733C509.297 164.727 509.764 164.824 510.136 165.018C510.51 165.213 510.789 165.481 510.974 165.825C511.159 166.165 511.251 166.56 511.251 167.007C511.251 167.452 511.157 167.844 510.97 168.183C510.786 168.519 510.506 168.78 510.132 168.967C509.761 169.154 509.293 169.248 508.73 169.248H506.766V168.303H508.63C508.985 168.303 509.274 168.252 509.497 168.151C509.722 168.049 509.886 167.901 509.99 167.707C510.094 167.513 510.146 167.279 510.146 167.007C510.146 166.732 510.093 166.495 509.987 166.293C509.883 166.092 509.718 165.938 509.493 165.832C509.271 165.723 508.978 165.668 508.616 165.668H507.238V172H506.141ZM509.731 168.719L511.528 172H510.278L508.517 168.719H509.731ZM513.046 164.727L515.07 170.651H515.152L517.176 164.727H518.362L515.745 172H514.477L511.86 164.727H513.046ZM520.51 164.727V172H519.412V164.727H520.51ZM528.148 167.092H527.04C526.998 166.856 526.918 166.647 526.802 166.467C526.686 166.287 526.544 166.135 526.376 166.009C526.208 165.884 526.02 165.789 525.811 165.725C525.605 165.661 525.386 165.629 525.154 165.629C524.735 165.629 524.36 165.735 524.029 165.945C523.7 166.156 523.439 166.465 523.248 166.872C523.058 167.279 522.963 167.777 522.963 168.364C522.963 168.955 523.058 169.455 523.248 169.862C523.439 170.269 523.701 170.577 524.032 170.786C524.364 170.994 524.737 171.098 525.151 171.098C525.381 171.098 525.598 171.067 525.804 171.006C526.013 170.942 526.201 170.848 526.369 170.725C526.537 170.602 526.679 170.452 526.795 170.274C526.913 170.094 526.995 169.888 527.04 169.656L528.148 169.66C528.089 170.017 527.974 170.346 527.804 170.647C527.636 170.945 527.419 171.203 527.154 171.421C526.891 171.637 526.59 171.804 526.252 171.922C525.913 172.04 525.544 172.099 525.144 172.099C524.514 172.099 523.953 171.95 523.461 171.652C522.968 171.351 522.58 170.922 522.296 170.363C522.014 169.804 521.873 169.138 521.873 168.364C521.873 167.587 522.015 166.921 522.299 166.364C522.583 165.806 522.972 165.377 523.464 165.079C523.957 164.778 524.516 164.628 525.144 164.628C525.53 164.628 525.89 164.683 526.223 164.795C526.56 164.904 526.861 165.065 527.129 165.278C527.396 165.488 527.618 165.746 527.793 166.052C527.968 166.355 528.087 166.702 528.148 167.092ZM529.461 172V164.727H534.021V165.672H530.558V167.888H533.783V168.829H530.558V171.055H534.063V172H529.461ZM544.173 167.092H543.066C543.023 166.856 542.944 166.647 542.828 166.467C542.712 166.287 542.57 166.135 542.401 166.009C542.233 165.884 542.045 165.789 541.837 165.725C541.631 165.661 541.412 165.629 541.18 165.629C540.761 165.629 540.386 165.735 540.054 165.945C539.725 166.156 539.465 166.465 539.273 166.872C539.084 167.279 538.989 167.777 538.989 168.364C538.989 168.955 539.084 169.455 539.273 169.862C539.465 170.269 539.726 170.577 540.058 170.786C540.389 170.994 540.762 171.098 541.176 171.098C541.406 171.098 541.624 171.067 541.83 171.006C542.038 170.942 542.226 170.848 542.394 170.725C542.562 170.602 542.704 170.452 542.82 170.274C542.939 170.094 543.021 169.888 543.066 169.656L544.173 169.66C544.114 170.017 543.999 170.346 543.829 170.647C543.661 170.945 543.444 171.203 543.179 171.421C542.916 171.637 542.616 171.804 542.277 171.922C541.939 172.04 541.569 172.099 541.169 172.099C540.539 172.099 539.978 171.95 539.486 171.652C538.994 171.351 538.605 170.922 538.321 170.363C538.039 169.804 537.899 169.138 537.899 168.364C537.899 167.587 538.041 166.921 538.325 166.364C538.609 165.806 538.997 165.377 539.49 165.079C539.982 164.778 540.542 164.628 541.169 164.628C541.555 164.628 541.915 164.683 542.249 164.795C542.585 164.904 542.887 165.065 543.154 165.278C543.422 165.488 543.643 165.746 543.818 166.052C543.994 166.355 544.112 166.702 544.173 167.092ZM551.804 168.364C551.804 169.14 551.662 169.808 551.378 170.366C551.094 170.923 550.704 171.351 550.21 171.652C549.717 171.95 549.157 172.099 548.53 172.099C547.9 172.099 547.338 171.95 546.843 171.652C546.351 171.351 545.962 170.922 545.678 170.363C545.394 169.804 545.252 169.138 545.252 168.364C545.252 167.587 545.394 166.921 545.678 166.364C545.962 165.806 546.351 165.377 546.843 165.079C547.338 164.778 547.9 164.628 548.53 164.628C549.157 164.628 549.717 164.778 550.21 165.079C550.704 165.377 551.094 165.806 551.378 166.364C551.662 166.921 551.804 167.587 551.804 168.364ZM550.717 168.364C550.717 167.772 550.621 167.273 550.43 166.869C550.24 166.461 549.98 166.154 549.648 165.945C549.319 165.735 548.946 165.629 548.53 165.629C548.111 165.629 547.737 165.735 547.408 165.945C547.079 166.154 546.818 166.461 546.626 166.869C546.437 167.273 546.342 167.772 546.342 168.364C546.342 168.955 546.437 169.455 546.626 169.862C546.818 170.267 547.079 170.575 547.408 170.786C547.737 170.994 548.111 171.098 548.53 171.098C548.946 171.098 549.319 170.994 549.648 170.786C549.98 170.575 550.24 170.267 550.43 169.862C550.621 169.455 550.717 168.955 550.717 168.364ZM557.139 166.638C557.101 166.302 556.945 166.041 556.67 165.857C556.395 165.67 556.05 165.576 555.633 165.576C555.335 165.576 555.077 165.623 554.859 165.718C554.641 165.81 554.472 165.938 554.351 166.102C554.233 166.263 554.173 166.446 554.173 166.652C554.173 166.825 554.214 166.974 554.294 167.099C554.377 167.225 554.485 167.33 554.617 167.415C554.752 167.498 554.897 167.568 555.051 167.625C555.204 167.679 555.352 167.724 555.494 167.76L556.205 167.945C556.437 168.001 556.675 168.078 556.919 168.175C557.162 168.272 557.388 168.4 557.597 168.559C557.805 168.718 557.973 168.914 558.101 169.148C558.231 169.383 558.296 169.663 558.296 169.99C558.296 170.402 558.19 170.768 557.977 171.087C557.766 171.407 557.459 171.659 557.057 171.844C556.657 172.028 556.173 172.121 555.605 172.121C555.06 172.121 554.589 172.034 554.191 171.862C553.794 171.689 553.482 171.444 553.257 171.126C553.032 170.807 552.908 170.428 552.884 169.99H553.985C554.007 170.253 554.092 170.472 554.241 170.647C554.392 170.82 554.585 170.949 554.82 171.034C555.057 171.117 555.316 171.158 555.597 171.158C555.908 171.158 556.183 171.11 556.425 171.013C556.669 170.913 556.86 170.776 557 170.601C557.14 170.423 557.21 170.216 557.21 169.979C557.21 169.764 557.148 169.588 557.025 169.45C556.904 169.313 556.74 169.199 556.531 169.109C556.325 169.019 556.092 168.94 555.832 168.871L554.972 168.637C554.39 168.478 553.928 168.245 553.588 167.938C553.249 167.63 553.08 167.223 553.08 166.716C553.08 166.297 553.193 165.931 553.421 165.619C553.648 165.306 553.956 165.063 554.344 164.891C554.732 164.715 555.17 164.628 555.658 164.628C556.15 164.628 556.585 164.714 556.961 164.887C557.34 165.06 557.638 165.298 557.856 165.601C558.074 165.902 558.187 166.247 558.197 166.638H557.139ZM559.249 165.672V164.727H564.877V165.672H562.608V172H561.515V165.672H559.249Z" fill="white" fill-opacity="0.24"/>
<path d="M474.121 193.273V180.545H474.937V193.273H474.121ZM476.672 184.493C476.619 184.022 476.4 183.658 476.016 183.399C475.631 183.137 475.147 183.006 474.564 183.006C474.146 183.006 473.785 183.073 473.48 183.205C473.175 183.335 472.938 183.513 472.769 183.742C472.603 183.968 472.521 184.224 472.521 184.513C472.521 184.755 472.577 184.964 472.69 185.139C472.806 185.315 472.956 185.462 473.142 185.582C473.331 185.698 473.533 185.795 473.749 185.875C473.964 185.951 474.171 186.014 474.37 186.064L475.364 186.322C475.689 186.402 476.022 186.51 476.364 186.646C476.705 186.781 477.022 186.96 477.313 187.183C477.605 187.405 477.84 187.68 478.019 188.008C478.201 188.336 478.293 188.729 478.293 189.186C478.293 189.763 478.143 190.275 477.845 190.722C477.55 191.17 477.121 191.523 476.558 191.781C475.997 192.04 475.32 192.169 474.524 192.169C473.762 192.169 473.102 192.048 472.545 191.806C471.989 191.564 471.553 191.221 471.238 190.777C470.923 190.33 470.749 189.799 470.716 189.186H472.257C472.287 189.554 472.406 189.861 472.615 190.106C472.827 190.348 473.097 190.528 473.425 190.648C473.757 190.764 474.12 190.822 474.514 190.822C474.948 190.822 475.335 190.754 475.673 190.618C476.014 190.479 476.282 190.286 476.478 190.041C476.674 189.793 476.771 189.503 476.771 189.171C476.771 188.87 476.685 188.623 476.513 188.43C476.344 188.238 476.113 188.079 475.822 187.953C475.533 187.827 475.207 187.716 474.842 187.62L473.639 187.292C472.824 187.07 472.178 186.743 471.7 186.312C471.226 185.882 470.989 185.312 470.989 184.602C470.989 184.016 471.148 183.504 471.467 183.066C471.785 182.629 472.216 182.289 472.759 182.047C473.303 181.802 473.916 181.679 474.599 181.679C475.288 181.679 475.896 181.8 476.423 182.042C476.954 182.284 477.371 182.617 477.676 183.041C477.981 183.462 478.14 183.946 478.153 184.493H476.672ZM483.544 192.139C483.09 192.133 482.642 192.05 482.202 191.891C481.764 191.732 481.366 191.466 481.008 191.095C480.65 190.724 480.364 190.225 480.148 189.599C479.936 188.972 479.83 188.19 479.83 187.252C479.83 186.364 479.918 185.575 480.094 184.886C480.273 184.196 480.529 183.615 480.864 183.141C481.199 182.663 481.603 182.3 482.077 182.052C482.551 181.803 483.083 181.679 483.673 181.679C484.28 181.679 484.818 181.798 485.289 182.037C485.76 182.276 486.141 182.605 486.432 183.026C486.727 183.447 486.915 183.926 486.994 184.463H485.478C485.375 184.039 485.171 183.692 484.866 183.424C484.561 183.156 484.164 183.021 483.673 183.021C482.927 183.021 482.346 183.346 481.928 183.996C481.514 184.645 481.305 185.549 481.302 186.705H481.376C481.552 186.417 481.767 186.172 482.023 185.969C482.281 185.764 482.569 185.607 482.888 185.497C483.209 185.384 483.547 185.328 483.902 185.328C484.492 185.328 485.025 185.472 485.503 185.761C485.983 186.046 486.366 186.44 486.651 186.944C486.936 187.448 487.079 188.024 487.079 188.674C487.079 189.324 486.931 189.912 486.636 190.439C486.345 190.966 485.934 191.384 485.403 191.692C484.873 191.997 484.253 192.146 483.544 192.139ZM483.539 190.847C483.93 190.847 484.28 190.75 484.588 190.558C484.896 190.366 485.14 190.107 485.319 189.783C485.498 189.458 485.587 189.095 485.587 188.694C485.587 188.303 485.499 187.946 485.324 187.625C485.151 187.304 484.913 187.048 484.608 186.859C484.306 186.67 483.961 186.576 483.574 186.576C483.279 186.576 483.005 186.632 482.753 186.745C482.505 186.858 482.286 187.013 482.097 187.212C481.908 187.411 481.759 187.64 481.65 187.898C481.544 188.154 481.491 188.424 481.491 188.709C481.491 189.09 481.578 189.443 481.754 189.768C481.933 190.093 482.177 190.354 482.485 190.553C482.796 190.749 483.148 190.847 483.539 190.847ZM492.275 181.679C492.729 181.682 493.177 181.765 493.618 181.928C494.058 182.09 494.456 182.355 494.811 182.723C495.169 183.091 495.454 183.588 495.666 184.214C495.881 184.838 495.991 185.613 495.994 186.541C495.994 187.433 495.904 188.227 495.725 188.923C495.547 189.615 495.29 190.2 494.955 190.678C494.623 191.155 494.221 191.518 493.747 191.766C493.273 192.015 492.739 192.139 492.146 192.139C491.539 192.139 491.001 192.02 490.53 191.781C490.06 191.543 489.677 191.213 489.382 190.792C489.087 190.368 488.903 189.88 488.83 189.33H490.346C490.446 189.768 490.648 190.122 490.953 190.394C491.261 190.663 491.659 190.797 492.146 190.797C492.892 190.797 493.473 190.472 493.891 189.822C494.309 189.17 494.519 188.258 494.522 187.088H494.443C494.27 187.373 494.055 187.618 493.797 187.824C493.541 188.029 493.255 188.188 492.936 188.301C492.618 188.414 492.279 188.47 491.917 188.47C491.331 188.47 490.797 188.326 490.316 188.038C489.836 187.749 489.453 187.353 489.168 186.849C488.883 186.346 488.74 185.771 488.74 185.124C488.74 184.481 488.886 183.898 489.178 183.374C489.473 182.851 489.884 182.436 490.411 182.131C490.941 181.823 491.563 181.672 492.275 181.679ZM492.28 182.972C491.892 182.972 491.543 183.068 491.231 183.26C490.923 183.449 490.679 183.706 490.5 184.031C490.321 184.352 490.232 184.71 490.232 185.104C490.232 185.499 490.318 185.857 490.49 186.178C490.666 186.496 490.905 186.75 491.206 186.939C491.511 187.125 491.859 187.217 492.25 187.217C492.542 187.217 492.814 187.161 493.066 187.048C493.318 186.936 493.538 186.78 493.727 186.581C493.916 186.379 494.063 186.15 494.169 185.895C494.275 185.64 494.328 185.371 494.328 185.089C494.328 184.715 494.239 184.367 494.06 184.045C493.884 183.724 493.642 183.465 493.334 183.27C493.026 183.071 492.675 182.972 492.28 182.972ZM499.375 190.608L499.3 191.15C499.25 191.548 499.166 191.962 499.047 192.393C498.931 192.827 498.81 193.23 498.684 193.601C498.561 193.972 498.46 194.267 498.38 194.486H497.326C497.369 194.28 497.429 194.002 497.505 193.651C497.582 193.303 497.656 192.913 497.729 192.482C497.802 192.051 497.857 191.612 497.893 191.165L497.943 190.608H499.375ZM504.717 181.679C505.171 181.682 505.618 181.765 506.059 181.928C506.5 182.09 506.897 182.355 507.252 182.723C507.61 183.091 507.895 183.588 508.107 184.214C508.323 184.838 508.432 185.613 508.435 186.541C508.435 187.433 508.346 188.227 508.167 188.923C507.988 189.615 507.731 190.2 507.396 190.678C507.065 191.155 506.662 191.518 506.188 191.766C505.714 192.015 505.181 192.139 504.587 192.139C503.981 192.139 503.442 192.02 502.972 191.781C502.501 191.543 502.118 191.213 501.823 190.792C501.528 190.368 501.344 189.88 501.271 189.33H502.788C502.887 189.768 503.089 190.122 503.394 190.394C503.702 190.663 504.1 190.797 504.587 190.797C505.333 190.797 505.915 190.472 506.332 189.822C506.75 189.17 506.96 188.258 506.964 187.088H506.884C506.712 187.373 506.496 187.618 506.238 187.824C505.983 188.029 505.696 188.188 505.378 188.301C505.06 188.414 504.72 188.47 504.359 188.47C503.772 188.47 503.238 188.326 502.758 188.038C502.277 187.749 501.894 187.353 501.609 186.849C501.324 186.346 501.182 185.771 501.182 185.124C501.182 184.481 501.328 183.898 501.619 183.374C501.914 182.851 502.325 182.436 502.852 182.131C503.383 181.823 504.004 181.672 504.717 181.679ZM504.722 182.972C504.334 182.972 503.984 183.068 503.673 183.26C503.364 183.449 503.121 183.706 502.942 184.031C502.763 184.352 502.673 184.71 502.673 185.104C502.673 185.499 502.759 185.857 502.932 186.178C503.107 186.496 503.346 186.75 503.648 186.939C503.953 187.125 504.301 187.217 504.692 187.217C504.983 187.217 505.255 187.161 505.507 187.048C505.759 186.936 505.979 186.78 506.168 186.581C506.357 186.379 506.505 186.15 506.611 185.895C506.717 185.64 506.77 185.371 506.77 185.089C506.77 184.715 506.68 184.367 506.501 184.045C506.326 183.724 506.084 183.465 505.776 183.27C505.467 183.071 505.116 182.972 504.722 182.972ZM513.617 181.679C514.071 181.682 514.519 181.765 514.959 181.928C515.4 182.09 515.798 182.355 516.153 182.723C516.51 183.091 516.796 183.588 517.008 184.214C517.223 184.838 517.332 185.613 517.336 186.541C517.336 187.433 517.246 188.227 517.067 188.923C516.888 189.615 516.631 190.2 516.297 190.678C515.965 191.155 515.563 191.518 515.089 191.766C514.615 192.015 514.081 192.139 513.488 192.139C512.881 192.139 512.343 192.02 511.872 191.781C511.401 191.543 511.019 191.213 510.724 190.792C510.429 190.368 510.245 189.88 510.172 189.33H511.688C511.787 189.768 511.99 190.122 512.295 190.394C512.603 190.663 513.001 190.797 513.488 190.797C514.233 190.797 514.815 190.472 515.233 189.822C515.65 189.17 515.861 188.258 515.864 187.088H515.785C515.612 187.373 515.397 187.618 515.138 187.824C514.883 188.029 514.596 188.188 514.278 188.301C513.96 188.414 513.62 188.47 513.259 188.47C512.672 188.47 512.139 188.326 511.658 188.038C511.178 187.749 510.795 187.353 510.51 186.849C510.225 186.346 510.082 185.771 510.082 185.124C510.082 184.481 510.228 183.898 510.52 183.374C510.815 182.851 511.226 182.436 511.753 182.131C512.283 181.823 512.904 181.672 513.617 181.679ZM513.622 182.972C513.234 182.972 512.885 183.068 512.573 183.26C512.265 183.449 512.021 183.706 511.842 184.031C511.663 184.352 511.574 184.71 511.574 185.104C511.574 185.499 511.66 185.857 511.832 186.178C512.008 186.496 512.247 186.75 512.548 186.939C512.853 187.125 513.201 187.217 513.592 187.217C513.884 187.217 514.156 187.161 514.407 187.048C514.659 186.936 514.88 186.78 515.069 186.581C515.258 186.379 515.405 186.15 515.511 185.895C515.617 185.64 515.67 185.371 515.67 185.089C515.67 184.715 515.581 184.367 515.402 184.045C515.226 183.724 514.984 183.465 514.676 183.27C514.368 183.071 514.016 182.972 513.622 182.972Z" fill="white"/>
<path d="M471.435 214.727L473.459 220.651H473.54L475.565 214.727H476.751L474.134 222H472.866L470.249 214.727H471.435ZM477.673 222H476.508L479.126 214.727H480.393L483.01 222H481.846L479.79 216.048H479.733L477.673 222ZM477.868 219.152H481.647V220.075H477.868V219.152ZM484.061 222V214.727H485.158V221.055H488.453V222H484.061ZM490.803 214.727V222H489.705V214.727H490.803ZM494.755 222H492.401V214.727H494.83C495.542 214.727 496.154 214.873 496.665 215.164C497.177 215.453 497.569 215.868 497.841 216.411C498.116 216.95 498.253 217.598 498.253 218.353C498.253 219.111 498.114 219.762 497.837 220.306C497.563 220.851 497.165 221.27 496.644 221.563C496.123 221.854 495.494 222 494.755 222ZM493.498 221.041H494.695C495.249 221.041 495.709 220.937 496.076 220.729C496.443 220.518 496.718 220.214 496.9 219.816C497.082 219.416 497.173 218.928 497.173 218.353C497.173 217.782 497.082 217.298 496.9 216.901C496.72 216.503 496.451 216.201 496.094 215.995C495.736 215.789 495.292 215.686 494.762 215.686H493.498V221.041ZM502.264 222V214.727H506.774V215.672H503.361V217.888H506.451V218.829H503.361V222H502.264ZM514.441 218.364C514.441 219.14 514.299 219.808 514.015 220.366C513.73 220.923 513.341 221.351 512.846 221.652C512.354 221.95 511.794 222.099 511.167 222.099C510.537 222.099 509.975 221.95 509.48 221.652C508.987 221.351 508.599 220.922 508.315 220.363C508.031 219.804 507.889 219.138 507.889 218.364C507.889 217.587 508.031 216.921 508.315 216.364C508.599 215.806 508.987 215.377 509.48 215.079C509.975 214.778 510.537 214.628 511.167 214.628C511.794 214.628 512.354 214.778 512.846 215.079C513.341 215.377 513.73 215.806 514.015 216.364C514.299 216.921 514.441 217.587 514.441 218.364ZM513.354 218.364C513.354 217.772 513.258 217.273 513.066 216.869C512.877 216.461 512.617 216.154 512.285 215.945C511.956 215.735 511.583 215.629 511.167 215.629C510.748 215.629 510.373 215.735 510.044 215.945C509.715 216.154 509.455 216.461 509.263 216.869C509.074 217.273 508.979 217.772 508.979 218.364C508.979 218.955 509.074 219.455 509.263 219.862C509.455 220.267 509.715 220.575 510.044 220.786C510.373 220.994 510.748 221.098 511.167 221.098C511.583 221.098 511.956 220.994 512.285 220.786C512.617 220.575 512.877 220.267 513.066 219.862C513.258 219.455 513.354 218.955 513.354 218.364ZM515.809 222V214.727H518.401C518.965 214.727 519.432 214.824 519.804 215.018C520.178 215.213 520.457 215.481 520.642 215.825C520.827 216.165 520.919 216.56 520.919 217.007C520.919 217.452 520.825 217.844 520.638 218.183C520.454 218.519 520.174 218.78 519.8 218.967C519.429 219.154 518.961 219.248 518.398 219.248H516.434V218.303H518.298C518.653 218.303 518.942 218.252 519.165 218.151C519.39 218.049 519.554 217.901 519.658 217.707C519.762 217.513 519.814 217.279 519.814 217.007C519.814 216.732 519.761 216.495 519.655 216.293C519.55 216.092 519.386 215.938 519.161 215.832C518.939 215.723 518.646 215.668 518.284 215.668H516.906V222H515.809ZM519.399 218.719L521.196 222H519.946L518.184 218.719H519.399Z" fill="white" fill-opacity="0.24"/>
<path d="M474.842 231.818V242H473.301V233.359H473.241L470.805 234.95V233.479L473.346 231.818H474.842ZM481.322 244.864V234.364H482.773V235.602H482.898C482.984 235.442 483.108 235.259 483.27 235.05C483.433 234.841 483.658 234.659 483.947 234.503C484.235 234.344 484.616 234.264 485.09 234.264C485.706 234.264 486.257 234.42 486.741 234.732C487.224 235.043 487.604 235.492 487.879 236.079C488.157 236.665 488.297 237.371 488.297 238.197C488.297 239.022 488.159 239.73 487.884 240.32C487.609 240.906 487.231 241.359 486.751 241.677C486.27 241.992 485.721 242.149 485.105 242.149C484.641 242.149 484.261 242.071 483.966 241.915C483.675 241.76 483.446 241.577 483.28 241.369C483.115 241.16 482.987 240.974 482.898 240.812H482.808V244.864H481.322ZM482.778 238.182C482.778 238.719 482.856 239.189 483.012 239.594C483.168 239.998 483.393 240.315 483.688 240.543C483.983 240.769 484.344 240.881 484.772 240.881C485.216 240.881 485.587 240.764 485.885 240.528C486.184 240.29 486.409 239.967 486.562 239.559C486.717 239.151 486.795 238.692 486.795 238.182C486.795 237.678 486.719 237.226 486.567 236.825C486.417 236.424 486.192 236.107 485.89 235.875C485.592 235.643 485.219 235.527 484.772 235.527C484.341 235.527 483.976 235.638 483.678 235.86C483.383 236.082 483.159 236.392 483.007 236.79C482.854 237.187 482.778 237.652 482.778 238.182ZM493.253 242.154C492.501 242.154 491.853 241.993 491.309 241.672C490.769 241.347 490.352 240.891 490.057 240.305C489.765 239.715 489.619 239.024 489.619 238.232C489.619 237.449 489.765 236.76 490.057 236.163C490.352 235.567 490.763 235.101 491.29 234.766C491.82 234.432 492.44 234.264 493.149 234.264C493.58 234.264 493.997 234.335 494.402 234.478C494.806 234.621 495.169 234.844 495.491 235.149C495.812 235.454 496.066 235.85 496.251 236.337C496.437 236.821 496.53 237.41 496.53 238.102V238.629H490.459V237.516H495.073C495.073 237.125 494.993 236.778 494.834 236.477C494.675 236.172 494.452 235.931 494.163 235.756C493.878 235.58 493.543 235.492 493.159 235.492C492.741 235.492 492.377 235.595 492.065 235.8C491.757 236.003 491.518 236.268 491.349 236.596C491.184 236.921 491.101 237.274 491.101 237.655V238.525C491.101 239.035 491.19 239.469 491.369 239.827C491.551 240.185 491.805 240.459 492.13 240.648C492.455 240.833 492.834 240.926 493.268 240.926C493.55 240.926 493.807 240.886 494.039 240.807C494.271 240.724 494.471 240.601 494.64 240.439C494.809 240.277 494.939 240.076 495.028 239.837L496.435 240.091C496.323 240.505 496.12 240.868 495.829 241.18C495.54 241.488 495.177 241.728 494.74 241.901C494.306 242.07 493.81 242.154 493.253 242.154ZM498.179 242V234.364H499.616V235.577H499.695C499.835 235.166 500.08 234.843 500.431 234.607C500.786 234.369 501.187 234.249 501.634 234.249C501.727 234.249 501.836 234.253 501.962 234.259C502.092 234.266 502.193 234.274 502.266 234.284V235.706C502.206 235.689 502.1 235.671 501.947 235.651C501.795 235.628 501.643 235.616 501.49 235.616C501.139 235.616 500.826 235.691 500.55 235.84C500.279 235.986 500.063 236.19 499.904 236.452C499.745 236.71 499.665 237.005 499.665 237.337V242H498.179ZM509.274 236.228L507.927 236.467C507.871 236.294 507.781 236.13 507.659 235.974C507.539 235.819 507.377 235.691 507.171 235.592C506.966 235.492 506.709 235.442 506.401 235.442C505.98 235.442 505.628 235.537 505.347 235.726C505.065 235.911 504.924 236.152 504.924 236.447C504.924 236.702 505.019 236.907 505.208 237.063C505.396 237.219 505.701 237.347 506.122 237.446L507.335 237.724C508.038 237.887 508.562 238.137 508.906 238.475C509.251 238.813 509.423 239.252 509.423 239.793C509.423 240.25 509.291 240.658 509.026 241.016C508.764 241.37 508.398 241.649 507.927 241.851C507.46 242.053 506.918 242.154 506.301 242.154C505.446 242.154 504.749 241.972 504.208 241.607C503.668 241.239 503.337 240.717 503.214 240.041L504.651 239.822C504.74 240.197 504.924 240.48 505.203 240.673C505.481 240.862 505.844 240.956 506.291 240.956C506.779 240.956 507.168 240.855 507.46 240.653C507.751 240.447 507.897 240.197 507.897 239.902C507.897 239.663 507.808 239.463 507.629 239.3C507.453 239.138 507.183 239.015 506.818 238.933L505.526 238.649C504.813 238.487 504.286 238.228 503.945 237.874C503.607 237.519 503.438 237.07 503.438 236.526C503.438 236.076 503.564 235.681 503.816 235.343C504.067 235.005 504.415 234.741 504.86 234.553C505.304 234.36 505.812 234.264 506.386 234.264C507.211 234.264 507.861 234.443 508.335 234.801C508.809 235.156 509.122 235.631 509.274 236.228ZM514.275 242.154C513.559 242.154 512.934 241.99 512.4 241.662C511.867 241.334 511.452 240.875 511.157 240.285C510.862 239.695 510.715 239.005 510.715 238.217C510.715 237.424 510.862 236.732 511.157 236.138C511.452 235.545 511.867 235.085 512.4 234.756C512.934 234.428 513.559 234.264 514.275 234.264C514.99 234.264 515.615 234.428 516.149 234.756C516.682 235.085 517.097 235.545 517.392 236.138C517.687 236.732 517.834 237.424 517.834 238.217C517.834 239.005 517.687 239.695 517.392 240.285C517.097 240.875 516.682 241.334 516.149 241.662C515.615 241.99 514.99 242.154 514.275 242.154ZM514.279 240.906C514.743 240.906 515.128 240.784 515.433 240.538C515.738 240.293 515.963 239.967 516.109 239.559C516.258 239.151 516.333 238.702 516.333 238.212C516.333 237.724 516.258 237.277 516.109 236.869C515.963 236.458 515.738 236.129 515.433 235.88C515.128 235.631 514.743 235.507 514.279 235.507C513.812 235.507 513.424 235.631 513.116 235.88C512.811 236.129 512.584 236.458 512.435 236.869C512.289 237.277 512.216 237.724 512.216 238.212C512.216 238.702 512.289 239.151 512.435 239.559C512.584 239.967 512.811 240.293 513.116 240.538C513.424 240.784 513.812 240.906 514.279 240.906ZM520.98 237.466V242H519.493V234.364H520.92V235.607H521.015C521.19 235.202 521.465 234.877 521.84 234.632C522.218 234.387 522.693 234.264 523.267 234.264C523.787 234.264 524.243 234.374 524.634 234.592C525.025 234.808 525.328 235.129 525.544 235.557C525.759 235.984 525.867 236.513 525.867 237.143V242H524.381V237.322C524.381 236.768 524.236 236.336 523.948 236.024C523.66 235.709 523.264 235.552 522.76 235.552C522.415 235.552 522.108 235.626 521.84 235.776C521.575 235.925 521.364 236.143 521.209 236.432C521.056 236.717 520.98 237.062 520.98 237.466Z" fill="white"/>
</g>
<rect x="8.5" y="8.5" width="659" height="277" rx="15.5" stroke="white" stroke-opacity="0.24" shape-rendering="crispEdges"/>
</g>
<defs>
<filter id="filter0_d_498_31" x="0" y="0" width="676" height="294" filterUnits="userSpaceOnUse" color-interpolation-filters="sRGB">
<feFlood flood-opacity="0" result="BackgroundImageFix"/>
<feColorMatrix in="SourceAlpha" type="matrix" values="0 0 0 0 0 0 0 0 0 0 0 0 0 0 0 0 0 0 127 0" result="hardAlpha"/>
<feOffset/>
<feGaussianBlur stdDeviation="4"/>
<feComposite in2="hardAlpha" operator="out"/>
<feColorMatrix type="matrix" values="0 0 0 0 1 0 0 0 0 1 0 0 0 0 1 0 0 0 0.12 0"/>
<feBlend mode="normal" in2="BackgroundImageFix" result="effect1_dropShadow_498_31"/>
<feBlend mode="normal" in="SourceGraphic" in2="effect1_dropShadow_498_31" result="shape"/>
</filter>
<filter id="filter1_f_498_31" x="-779.7" y="-779.7" width="1575.4" height="1575.4" filterUnits="userSpaceOnUse" color-interpolation-filters="sRGB">
<feFlood flood-opacity="0" result="BackgroundImageFix"/>
<feBlend mode="normal" in="SourceGraphic" in2="BackgroundImageFix" result="shape"/>
<feGaussianBlur stdDeviation="285.35" result="effect1_foregroundBlur_498_31"/>
</filter>
<filter id="filter2_ddi_498_31" x="186.812" y="-176.497" width="818.374" height="709.045" filterUnits="userSpaceOnUse" color-interpolation-filters="sRGB">
<feFlood flood-opacity="0" result="BackgroundImageFix"/>
<feColorMatrix in="SourceAlpha" type="matrix" values="0 0 0 0 0 0 0 0 0 0 0 0 0 0 0 0 0 0 127 0" result="hardAlpha"/>
<feOffset/>
<feGaussianBlur stdDeviation="2.5"/>
<feComposite in2="hardAlpha" operator="out"/>
<feColorMatrix type="matrix" values="0 0 0 0 0 0 0 0 0 0 0 0 0 0 0 0 0 0 0.08 0"/>
<feBlend mode="normal" in2="BackgroundImageFix" result="effect1_dropShadow_498_31"/>
<feColorMatrix in="SourceAlpha" type="matrix" values="0 0 0 0 0 0 0 0 0 0 0 0 0 0 0 0 0 0 127 0" result="hardAlpha"/>
<feMorphology radius="12" operator="dilate" in="SourceAlpha" result="effect2_dropShadow_498_31"/>
<feOffset/>
<feGaussianBlur stdDeviation="125"/>
<feComposite in2="hardAlpha" operator="out"/>
<feColorMatrix type="matrix" values="0 0 0 0 1 0 0 0 0 1 0 0 0 0 1 0 0 0 0.15 0"/>
<feBlend mode="normal" in2="effect1_dropShadow_498_31" result="effect2_dropShadow_498_31"/>
<feBlend mode="normal" in="SourceGraphic" in2="effect2_dropShadow_498_31" result="shape"/>
<feColorMatrix in="SourceAlpha" type="matrix" values="0 0 0 0 0 0 0 0 0 0 0 0 0 0 0 0 0 0 127 0" result="hardAlpha"/>
<feOffset/>
<feGaussianBlur stdDeviation="7.65"/>
<feComposite in2="hardAlpha" operator="arithmetic" k2="-1" k3="1"/>
<feColorMatrix type="matrix" values="0 0 0 0 1 0 0 0 0 1 0 0 0 0 1 0 0 0 0.08 0"/>
<feBlend mode="normal" in2="shape" result="effect3_innerShadow_498_31"/>
</filter>
<clipPath id="clip0_498_31">
<rect x="8" y="8" width="660" height="278" rx="16" fill="white"/>
</clipPath>
</defs>
</svg>
