<svg width="334" height="596" viewBox="0 0 334 596" fill="none" xmlns="http://www.w3.org/2000/svg">
<g filter="url(#filter0_d_498_587)">
<g clip-path="url(#clip0_498_587)">
<rect x="8" y="8" width="318" height="580" rx="16" fill="white" fill-opacity="0.04" shape-rendering="crispEdges"/>
<g filter="url(#filter1_f_498_587)">
<circle cx="167" cy="716" r="251" fill="#4D00B1"/>
</g>
<path d="M207.44 196.203C198.535 192.687 194.98 183.022 194.98 183.022C194.98 183.022 190.968 185.211 190.968 179.063C190.968 172.915 194.98 183.022 198.992 159.284C198.992 159.284 210.106 156.202 207.88 130.717H205.206C205.206 130.717 211.892 103.47 205.206 94.232C198.52 85.0098 195.861 78.8617 181.159 74.4603C166.457 70.0588 171.814 70.936 161.124 71.3862C150.426 71.8364 141.522 77.5421 141.522 80.6239C141.522 80.6239 134.835 81.0586 132.177 83.6979C129.502 86.3373 125.05 98.6334 125.05 101.707C125.05 104.782 127.276 125.461 129.502 129.847L126.851 130.732C124.617 156.217 135.74 159.299 135.74 159.299C139.752 183.038 143.763 172.931 143.763 179.079C143.763 185.227 139.752 183.038 139.752 183.038C139.752 183.038 136.196 192.702 127.292 196.219C118.387 199.728 68.9564 218.622 64.9368 222.581C60.9093 226.54 61.3656 245 61.3656 245H273.335C273.335 245 273.806 226.548 269.779 222.581C265.767 218.622 216.329 199.728 207.424 196.219L207.44 196.203ZM109.349 194.868C108.562 193.471 108.185 192.462 108.185 192.462C108.185 192.462 104.787 194.325 104.787 189.108C104.787 183.892 108.185 192.462 111.583 172.341C111.583 172.341 121.022 169.74 119.135 148.136H116.853C116.853 148.136 117.986 143.556 118.725 137.781C118.692 135.201 118.789 132.62 119.017 130.049L119.315 126.742C119.158 122.923 118.474 119.445 116.861 117.225C111.198 109.408 108.932 104.184 96.4879 100.458C84.0279 96.7316 88.5431 97.4768 79.497 97.8572C70.4352 98.2453 62.8837 103.074 62.8837 105.698C62.8837 105.698 57.2201 106.062 54.9547 108.298C52.8308 110.394 49.409 119.647 49 122.931V125.104C49.3776 130.181 51.0452 144.123 52.6971 147.407L50.4474 148.152C48.5595 169.748 57.9989 172.356 57.9989 172.356C61.3813 192.462 64.7873 183.907 64.7873 189.124C64.7873 194.34 61.3892 192.462 61.3892 192.462C61.3892 192.462 58.3764 200.675 50.8249 203.64L49 204.354V244.984H53.523C53.287 235.064 54.1287 222.263 59.3912 217.085C62.1994 214.329 71.3792 209.788 109.365 194.868H109.349ZM285 124.569C284.685 121.634 284.001 119.018 282.703 117.225C277.055 109.4 274.782 104.184 262.33 100.458C249.878 96.7316 254.409 97.4768 245.339 97.8572C236.293 98.2453 228.741 103.074 228.741 105.698C228.741 105.698 223.078 106.062 220.812 108.298C218.688 110.41 215.227 119.725 214.85 122.97H215.109L215.739 130.065C215.896 131.85 215.912 133.442 215.951 135.064C216.659 140.234 217.603 145.544 218.547 147.407L216.297 148.144C214.409 169.74 223.849 172.348 223.849 172.348C227.247 192.454 230.637 183.899 230.637 189.116C230.637 194.333 227.255 192.454 227.255 192.454C227.255 192.454 226.83 193.564 225.965 195.093C263.486 209.843 272.587 214.345 275.364 217.085C280.634 222.271 281.452 235.064 281.224 244.992H285V203.811L284.607 203.64C277.055 200.667 274.035 192.462 274.035 192.462C274.035 192.462 270.629 194.325 270.629 189.124C270.629 183.923 274.035 192.462 277.425 172.356C277.425 172.356 283.749 170.571 285 158.073V148.54C285 148.4 285 148.284 284.976 148.152H282.695C282.695 148.152 284.394 141.243 285 133.698V124.569Z" fill="url(#paint0_linear_498_587)" fill-opacity="0.48"/>
</g>
<rect x="8.5" y="8.5" width="317" height="579" rx="15.5" stroke="white" stroke-opacity="0.24" shape-rendering="crispEdges"/>
</g>
<defs>
<filter id="filter0_d_498_587" x="0" y="0" width="334" height="596" filterUnits="userSpaceOnUse" color-interpolation-filters="sRGB">
<feFlood flood-opacity="0" result="BackgroundImageFix"/>
<feColorMatrix in="SourceAlpha" type="matrix" values="0 0 0 0 0 0 0 0 0 0 0 0 0 0 0 0 0 0 127 0" result="hardAlpha"/>
<feOffset/>
<feGaussianBlur stdDeviation="4"/>
<feComposite in2="hardAlpha" operator="out"/>
<feColorMatrix type="matrix" values="0 0 0 0 1 0 0 0 0 1 0 0 0 0 1 0 0 0 0.12 0"/>
<feBlend mode="normal" in2="BackgroundImageFix" result="effect1_dropShadow_498_587"/>
<feBlend mode="normal" in="SourceGraphic" in2="effect1_dropShadow_498_587" result="shape"/>
</filter>
<filter id="filter1_f_498_587" x="-678.7" y="-129.7" width="1691.4" height="1691.4" filterUnits="userSpaceOnUse" color-interpolation-filters="sRGB">
<feFlood flood-opacity="0" result="BackgroundImageFix"/>
<feBlend mode="normal" in="SourceGraphic" in2="BackgroundImageFix" result="shape"/>
<feGaussianBlur stdDeviation="297.35" result="effect1_foregroundBlur_498_587"/>
</filter>
<linearGradient id="paint0_linear_498_587" x1="167" y1="76.7773" x2="167" y2="245" gradientUnits="userSpaceOnUse">
<stop stop-color="#B377FF"/>
<stop offset="0.52" stop-color="#B377FF" stop-opacity="0.4"/>
<stop offset="0.720357" stop-color="#C191FF" stop-opacity="0.2"/>
<stop offset="0.93423" stop-color="#BF8CFF" stop-opacity="0"/>
</linearGradient>
<clipPath id="clip0_498_587">
<rect x="8" y="8" width="318" height="580" rx="16" fill="white"/>
</clipPath>
</defs>
</svg>
