<svg width="334" height="596" viewBox="0 0 334 596" fill="none" xmlns="http://www.w3.org/2000/svg">
<g filter="url(#filter0_d_693_405)">
<g clip-path="url(#clip0_693_405)">
<rect x="8" y="8" width="318" height="580" rx="16" fill="white" fill-opacity="0.04" shape-rendering="crispEdges"/>
<g filter="url(#filter1_f_693_405)">
<circle cx="167" cy="716" r="251" fill="#4D00B1"/>
</g>
<g filter="url(#filter2_d_693_405)">
<circle cx="167" cy="177" r="169" fill="white" fill-opacity="0.01" shape-rendering="crispEdges"/>
</g>
<g filter="url(#filter3_d_693_405)">
<circle cx="167" cy="177" r="143" fill="white" fill-opacity="0.01" shape-rendering="crispEdges"/>
</g>
<g filter="url(#filter4_d_693_405)">
<circle cx="167" cy="177" r="115" fill="white" fill-opacity="0.02" shape-rendering="crispEdges"/>
</g>
<g filter="url(#filter5_d_693_405)">
<circle cx="167" cy="177" r="88" fill="white" fill-opacity="0.03" shape-rendering="crispEdges"/>
<circle cx="167" cy="177" r="87.5" stroke="white" stroke-opacity="0.04" shape-rendering="crispEdges"/>
</g>
<g filter="url(#filter6_i_693_405)">
<circle cx="167" cy="177" r="59" fill="black" fill-opacity="0.08"/>
</g>
<circle cx="167" cy="177" r="58.5" stroke="white" stroke-opacity="0.04"/>
<g opacity="0.7" filter="url(#filter7_f_693_405)">
<path fill-rule="evenodd" clip-rule="evenodd" d="M179.444 151.996V148.88C179.444 147.167 180.844 145.764 182.556 145.764C184.267 145.764 185.667 147.167 185.667 148.88V151.996H188.778C192.2 151.996 195 154.801 195 158.228V201.852C195 205.279 192.2 208.084 188.778 208.084H145.222C143.572 208.084 141.989 207.427 140.822 206.258C139.656 205.09 139 203.504 139 201.852L139.031 158.228C139.031 154.801 141.769 151.996 145.222 151.996H148.333V148.88C148.333 147.167 149.733 145.764 151.444 145.764C153.156 145.764 154.556 147.167 154.556 148.88V151.996H179.444ZM148.333 201.852H185.667C187.378 201.852 188.778 200.449 188.778 198.736V167.576H145.222V198.736C145.222 200.449 146.622 201.852 148.333 201.852ZM178.361 184.668C178.361 190.935 173.288 196.015 167.031 196.015C160.774 196.015 155.702 190.935 155.702 184.668C155.702 178.401 160.774 173.321 167.031 173.321C173.288 173.321 178.361 178.401 178.361 184.668ZM173.747 180.075C174.33 180.663 174.326 181.613 173.738 182.196L166.113 189.761C165.528 190.341 164.585 190.341 164 189.761L160.188 185.979C159.6 185.395 159.596 184.445 160.18 183.857C160.763 183.269 161.713 183.265 162.301 183.849L165.057 186.583L171.625 180.067C172.213 179.483 173.163 179.487 173.747 180.075Z" fill="url(#paint0_linear_693_405)"/>
</g>
<g filter="url(#filter8_di_693_405)">
<path fill-rule="evenodd" clip-rule="evenodd" d="M179.444 151.996V148.88C179.444 147.167 180.844 145.764 182.556 145.764C184.267 145.764 185.667 147.167 185.667 148.88V151.996H188.778C192.2 151.996 195 154.801 195 158.228V201.852C195 205.279 192.2 208.084 188.778 208.084H145.222C143.572 208.084 141.989 207.427 140.822 206.258C139.656 205.09 139 203.504 139 201.852L139.031 158.228C139.031 154.801 141.769 151.996 145.222 151.996H148.333V148.88C148.333 147.167 149.733 145.764 151.444 145.764C153.156 145.764 154.556 147.167 154.556 148.88V151.996H179.444ZM148.333 201.852H185.667C187.378 201.852 188.778 200.449 188.778 198.736V167.576H145.222V198.736C145.222 200.449 146.622 201.852 148.333 201.852ZM178.361 184.668C178.361 190.935 173.288 196.015 167.031 196.015C160.774 196.015 155.702 190.935 155.702 184.668C155.702 178.401 160.774 173.321 167.031 173.321C173.288 173.321 178.361 178.401 178.361 184.668ZM173.747 180.075C174.33 180.663 174.326 181.613 173.738 182.196L166.113 189.761C165.528 190.341 164.585 190.341 164 189.761L160.188 185.979C159.6 185.395 159.596 184.445 160.18 183.857C160.763 183.269 161.713 183.265 162.301 183.849L165.057 186.583L171.625 180.067C172.213 179.483 173.163 179.487 173.747 180.075Z" fill="url(#paint1_linear_693_405)"/>
</g>
<g filter="url(#filter9_iii_693_405)">
<circle cx="101" cy="71" r="28" fill="white" fill-opacity="0.04"/>
</g>
<circle cx="101" cy="71" r="27.5" stroke="white" stroke-opacity="0.04"/>
<g filter="url(#filter10_f_693_405)">
<circle cx="101" cy="71" r="5" fill="#F54040"/>
</g>
<g filter="url(#filter11_di_693_405)">
<path d="M112.032 59.9395H89.0175C87.4352 59.9395 86.1458 61.1836 86.152 62.7041L86.2206 79.2922C86.2269 80.8128 87.5266 82.0569 89.1088 82.0569H112.124C113.706 82.0569 114.995 80.8128 114.989 79.2922L114.92 62.7041C114.914 61.1836 113.614 59.9395 112.032 59.9395ZM111.481 65.8144L102.097 71.4682C101.165 72.035 99.985 72.035 99.0477 71.4682L89.6171 65.8144C89.4725 65.7366 89.3458 65.6315 89.2446 65.5054C89.1433 65.3793 89.0696 65.2349 89.028 65.0809C88.9864 64.9269 88.9777 64.7665 89.0025 64.6094C89.0272 64.4524 89.0849 64.3019 89.172 64.1671C89.2591 64.0323 89.3738 63.916 89.5092 63.8252C89.6447 63.7344 89.7979 63.6711 89.9598 63.639C90.1217 63.6069 90.2888 63.6068 90.451 63.6385C90.6132 63.6703 90.7671 63.7333 90.9035 63.8238L100.565 69.6158L110.178 63.8238C110.314 63.7333 110.467 63.6703 110.629 63.6385C110.791 63.6068 110.958 63.6069 111.12 63.639C111.283 63.6711 111.436 63.7344 111.573 63.8252C111.709 63.916 111.824 64.0323 111.913 64.1671C112.001 64.3019 112.06 64.4524 112.086 64.6094C112.112 64.7665 112.104 64.9269 112.064 65.0809C112.024 65.2349 111.951 65.3793 111.851 65.5054C111.751 65.6315 111.625 65.7366 111.481 65.8144Z" fill="#F54040"/>
</g>
<g filter="url(#filter12_iii_693_405)">
<circle cx="274" cy="174" r="28" fill="white" fill-opacity="0.04"/>
</g>
<circle cx="274" cy="174" r="27.5" stroke="white" stroke-opacity="0.04"/>
<g filter="url(#filter13_f_693_405)">
<circle cx="274" cy="174" r="5" fill="#FCC42B"/>
</g>
<g filter="url(#filter14_di_693_405)">
<path d="M268.689 172.356C270.471 170.589 273.558 170.61 275.315 172.403L276.412 173.521L278.636 171.315L277.54 170.197C276.077 168.704 274.121 167.872 272.034 167.857C269.947 167.842 267.979 168.647 266.495 170.119L263.157 173.427C261.685 174.892 260.851 176.883 260.836 178.965C260.822 181.047 261.628 183.05 263.08 184.535C263.799 185.27 264.656 185.854 265.601 186.255C266.546 186.656 267.56 186.865 268.586 186.87C269.612 186.88 270.629 186.685 271.58 186.298C272.53 185.91 273.396 185.338 274.125 184.613L275.238 183.51L273.044 181.273L271.932 182.376C271.046 183.251 269.851 183.737 268.609 183.729C267.366 183.72 266.178 183.217 265.304 182.329C264.433 181.438 263.949 180.236 263.958 178.987C263.967 177.738 264.467 176.543 265.351 175.664L268.689 172.356Z" fill="#FCC42B"/>
<path d="M274.281 162.398L273.169 163.501L275.362 165.738L276.474 164.635C277.36 163.76 278.556 163.274 279.798 163.282C281.04 163.291 282.228 163.794 283.102 164.682C283.973 165.573 284.457 166.775 284.448 168.024C284.44 169.273 283.939 170.468 283.056 171.347L279.717 174.655C277.935 176.422 274.848 176.401 273.091 174.608L271.994 173.49L269.77 175.695L270.867 176.814C272.329 178.307 274.286 179.139 276.373 179.154C278.46 179.169 280.427 178.364 281.911 176.892L285.249 173.583C286.721 172.119 287.555 170.128 287.57 168.046C287.585 165.964 286.778 163.961 285.326 162.476C283.871 160.995 281.89 160.155 279.82 160.141C277.749 160.126 275.757 160.938 274.281 162.398Z" fill="#FCC42B"/>
</g>
<g filter="url(#filter15_iii_693_405)">
<circle cx="101" cy="283" r="28" fill="white" fill-opacity="0.04"/>
</g>
<circle cx="101" cy="283" r="27.5" stroke="white" stroke-opacity="0.04"/>
<g filter="url(#filter16_f_693_405)">
<circle cx="101" cy="283" r="5" fill="#00FF75"/>
</g>
<g filter="url(#filter17_di_693_405)">
<path fill-rule="evenodd" clip-rule="evenodd" d="M92.2069 269.364C97.7261 268.879 103.276 268.879 108.796 269.364L111.442 269.597C112.673 269.706 113.831 270.229 114.731 271.084C115.631 271.938 116.22 273.074 116.404 274.308C117.199 279.65 117.199 285.082 116.404 290.424C116.334 290.892 116.208 291.34 116.032 291.76C115.917 292.038 115.559 292.08 115.356 291.857L107.607 283.243C107.436 283.053 107.214 282.916 106.967 282.851C106.721 282.786 106.461 282.795 106.219 282.876L101.783 284.371L95.3494 277.057C95.2304 276.922 95.0852 276.812 94.9229 276.736C94.7606 276.659 94.5845 276.617 94.4054 276.612C94.2263 276.606 94.0481 276.638 93.8816 276.705C93.7151 276.772 93.5639 276.872 93.4372 277L84.8247 285.703C84.7662 285.764 84.6914 285.806 84.6095 285.824C84.5276 285.843 84.4422 285.837 84.3637 285.807C84.2852 285.777 84.217 285.724 84.1675 285.656C84.118 285.588 84.0894 285.506 84.0851 285.421C83.8779 281.708 84.0494 277.984 84.5969 274.306C84.7804 273.072 85.3696 271.937 86.2696 271.082C87.1697 270.227 88.3282 269.704 89.5586 269.596L92.2069 269.364ZM104.006 277.053C104.006 276.349 104.283 275.673 104.776 275.175C105.269 274.677 105.937 274.397 106.635 274.397C107.332 274.397 108.001 274.677 108.494 275.175C108.987 275.673 109.264 276.349 109.264 277.053C109.264 277.758 108.987 278.434 108.494 278.932C108.001 279.43 107.332 279.71 106.635 279.71C105.937 279.71 105.269 279.43 104.776 278.932C104.283 278.434 104.006 277.758 104.006 277.053Z" fill="#00FF75"/>
<path d="M84.1304 289.761C84.0816 289.811 84.0449 289.871 84.023 289.937C84.0011 290.003 83.9947 290.073 84.0043 290.142L84.0673 290.576C84.2558 291.837 84.8612 292.998 85.786 293.872C86.7107 294.745 87.901 295.28 89.1651 295.391L91.8842 295.628C97.5564 296.124 103.257 296.124 108.93 295.628L111.649 295.391C112.394 295.326 113.12 295.113 113.782 294.763C114.029 294.634 114.071 294.307 113.883 294.1L106.5 285.937C106.442 285.871 106.365 285.824 106.281 285.802C106.196 285.779 106.106 285.782 106.023 285.81L101.734 287.247C101.483 287.331 101.213 287.34 100.958 287.271C100.703 287.203 100.473 287.06 100.297 286.862L94.3637 280.152C94.3229 280.105 94.2731 280.068 94.2174 280.042C94.1617 280.016 94.1013 280.002 94.0399 280C93.9785 279.998 93.9174 280.009 93.8604 280.032C93.8033 280.055 93.7516 280.09 93.7083 280.133L84.1304 289.761Z" fill="#00FF75"/>
</g>
</g>
<rect x="8.5" y="8.5" width="317" height="579" rx="15.5" stroke="white" stroke-opacity="0.24" shape-rendering="crispEdges"/>
</g>
<defs>
<filter id="filter0_d_693_405" x="0" y="0" width="334" height="596" filterUnits="userSpaceOnUse" color-interpolation-filters="sRGB">
<feFlood flood-opacity="0" result="BackgroundImageFix"/>
<feColorMatrix in="SourceAlpha" type="matrix" values="0 0 0 0 0 0 0 0 0 0 0 0 0 0 0 0 0 0 127 0" result="hardAlpha"/>
<feOffset/>
<feGaussianBlur stdDeviation="4"/>
<feComposite in2="hardAlpha" operator="out"/>
<feColorMatrix type="matrix" values="0 0 0 0 1 0 0 0 0 1 0 0 0 0 1 0 0 0 0.12 0"/>
<feBlend mode="normal" in2="BackgroundImageFix" result="effect1_dropShadow_693_405"/>
<feBlend mode="normal" in="SourceGraphic" in2="effect1_dropShadow_693_405" result="shape"/>
</filter>
<filter id="filter1_f_693_405" x="-678.7" y="-129.7" width="1691.4" height="1691.4" filterUnits="userSpaceOnUse" color-interpolation-filters="sRGB">
<feFlood flood-opacity="0" result="BackgroundImageFix"/>
<feBlend mode="normal" in="SourceGraphic" in2="BackgroundImageFix" result="shape"/>
<feGaussianBlur stdDeviation="297.35" result="effect1_foregroundBlur_693_405"/>
</filter>
<filter id="filter2_d_693_405" x="-30" y="-20" width="394" height="394" filterUnits="userSpaceOnUse" color-interpolation-filters="sRGB">
<feFlood flood-opacity="0" result="BackgroundImageFix"/>
<feColorMatrix in="SourceAlpha" type="matrix" values="0 0 0 0 0 0 0 0 0 0 0 0 0 0 0 0 0 0 127 0" result="hardAlpha"/>
<feOffset/>
<feGaussianBlur stdDeviation="14"/>
<feComposite in2="hardAlpha" operator="out"/>
<feColorMatrix type="matrix" values="0 0 0 0 1 0 0 0 0 1 0 0 0 0 1 0 0 0 0.01 0"/>
<feBlend mode="normal" in2="BackgroundImageFix" result="effect1_dropShadow_693_405"/>
<feBlend mode="normal" in="SourceGraphic" in2="effect1_dropShadow_693_405" result="shape"/>
</filter>
<filter id="filter3_d_693_405" x="-4" y="6" width="342" height="342" filterUnits="userSpaceOnUse" color-interpolation-filters="sRGB">
<feFlood flood-opacity="0" result="BackgroundImageFix"/>
<feColorMatrix in="SourceAlpha" type="matrix" values="0 0 0 0 0 0 0 0 0 0 0 0 0 0 0 0 0 0 127 0" result="hardAlpha"/>
<feOffset/>
<feGaussianBlur stdDeviation="14"/>
<feComposite in2="hardAlpha" operator="out"/>
<feColorMatrix type="matrix" values="0 0 0 0 1 0 0 0 0 1 0 0 0 0 1 0 0 0 0.01 0"/>
<feBlend mode="normal" in2="BackgroundImageFix" result="effect1_dropShadow_693_405"/>
<feBlend mode="normal" in="SourceGraphic" in2="effect1_dropShadow_693_405" result="shape"/>
</filter>
<filter id="filter4_d_693_405" x="24" y="34" width="286" height="286" filterUnits="userSpaceOnUse" color-interpolation-filters="sRGB">
<feFlood flood-opacity="0" result="BackgroundImageFix"/>
<feColorMatrix in="SourceAlpha" type="matrix" values="0 0 0 0 0 0 0 0 0 0 0 0 0 0 0 0 0 0 127 0" result="hardAlpha"/>
<feOffset/>
<feGaussianBlur stdDeviation="14"/>
<feComposite in2="hardAlpha" operator="out"/>
<feColorMatrix type="matrix" values="0 0 0 0 1 0 0 0 0 1 0 0 0 0 1 0 0 0 0.01 0"/>
<feBlend mode="normal" in2="BackgroundImageFix" result="effect1_dropShadow_693_405"/>
<feBlend mode="normal" in="SourceGraphic" in2="effect1_dropShadow_693_405" result="shape"/>
</filter>
<filter id="filter5_d_693_405" x="51" y="61" width="232" height="232" filterUnits="userSpaceOnUse" color-interpolation-filters="sRGB">
<feFlood flood-opacity="0" result="BackgroundImageFix"/>
<feColorMatrix in="SourceAlpha" type="matrix" values="0 0 0 0 0 0 0 0 0 0 0 0 0 0 0 0 0 0 127 0" result="hardAlpha"/>
<feOffset/>
<feGaussianBlur stdDeviation="14"/>
<feComposite in2="hardAlpha" operator="out"/>
<feColorMatrix type="matrix" values="0 0 0 0 1 0 0 0 0 1 0 0 0 0 1 0 0 0 0.02 0"/>
<feBlend mode="normal" in2="BackgroundImageFix" result="effect1_dropShadow_693_405"/>
<feBlend mode="normal" in="SourceGraphic" in2="effect1_dropShadow_693_405" result="shape"/>
</filter>
<filter id="filter6_i_693_405" x="108" y="118" width="118" height="118" filterUnits="userSpaceOnUse" color-interpolation-filters="sRGB">
<feFlood flood-opacity="0" result="BackgroundImageFix"/>
<feBlend mode="normal" in="SourceGraphic" in2="BackgroundImageFix" result="shape"/>
<feColorMatrix in="SourceAlpha" type="matrix" values="0 0 0 0 0 0 0 0 0 0 0 0 0 0 0 0 0 0 127 0" result="hardAlpha"/>
<feOffset/>
<feGaussianBlur stdDeviation="1.5"/>
<feComposite in2="hardAlpha" operator="arithmetic" k2="-1" k3="1"/>
<feColorMatrix type="matrix" values="0 0 0 0 1 0 0 0 0 1 0 0 0 0 1 0 0 0 0.16 0"/>
<feBlend mode="normal" in2="shape" result="effect1_innerShadow_693_405"/>
</filter>
<filter id="filter7_f_693_405" x="111" y="117.764" width="112" height="118.319" filterUnits="userSpaceOnUse" color-interpolation-filters="sRGB">
<feFlood flood-opacity="0" result="BackgroundImageFix"/>
<feBlend mode="normal" in="SourceGraphic" in2="BackgroundImageFix" result="shape"/>
<feGaussianBlur stdDeviation="14" result="effect1_foregroundBlur_693_405"/>
</filter>
<filter id="filter8_di_693_405" x="134" y="140.764" width="66" height="72.3191" filterUnits="userSpaceOnUse" color-interpolation-filters="sRGB">
<feFlood flood-opacity="0" result="BackgroundImageFix"/>
<feColorMatrix in="SourceAlpha" type="matrix" values="0 0 0 0 0 0 0 0 0 0 0 0 0 0 0 0 0 0 127 0" result="hardAlpha"/>
<feOffset/>
<feGaussianBlur stdDeviation="2.5"/>
<feComposite in2="hardAlpha" operator="out"/>
<feColorMatrix type="matrix" values="0 0 0 0 0 0 0 0 0 0 0 0 0 0 0 0 0 0 0.08 0"/>
<feBlend mode="normal" in2="BackgroundImageFix" result="effect1_dropShadow_693_405"/>
<feBlend mode="normal" in="SourceGraphic" in2="effect1_dropShadow_693_405" result="shape"/>
<feColorMatrix in="SourceAlpha" type="matrix" values="0 0 0 0 0 0 0 0 0 0 0 0 0 0 0 0 0 0 127 0" result="hardAlpha"/>
<feOffset/>
<feGaussianBlur stdDeviation="1"/>
<feComposite in2="hardAlpha" operator="arithmetic" k2="-1" k3="1"/>
<feColorMatrix type="matrix" values="0 0 0 0 1 0 0 0 0 1 0 0 0 0 1 0 0 0 0.39 0"/>
<feBlend mode="normal" in2="shape" result="effect2_innerShadow_693_405"/>
</filter>
<filter id="filter9_iii_693_405" x="73" y="42" width="56" height="59" filterUnits="userSpaceOnUse" color-interpolation-filters="sRGB">
<feFlood flood-opacity="0" result="BackgroundImageFix"/>
<feBlend mode="normal" in="SourceGraphic" in2="BackgroundImageFix" result="shape"/>
<feColorMatrix in="SourceAlpha" type="matrix" values="0 0 0 0 0 0 0 0 0 0 0 0 0 0 0 0 0 0 127 0" result="hardAlpha"/>
<feOffset dy="2"/>
<feGaussianBlur stdDeviation="3.5"/>
<feComposite in2="hardAlpha" operator="arithmetic" k2="-1" k3="1"/>
<feColorMatrix type="matrix" values="0 0 0 0 0 0 0 0 0 0 0 0 0 0 0 0 0 0 0.12 0"/>
<feBlend mode="normal" in2="shape" result="effect1_innerShadow_693_405"/>
<feColorMatrix in="SourceAlpha" type="matrix" values="0 0 0 0 0 0 0 0 0 0 0 0 0 0 0 0 0 0 127 0" result="hardAlpha"/>
<feOffset dy="-1"/>
<feGaussianBlur stdDeviation="1.15"/>
<feComposite in2="hardAlpha" operator="arithmetic" k2="-1" k3="1"/>
<feColorMatrix type="matrix" values="0 0 0 0 1 0 0 0 0 1 0 0 0 0 1 0 0 0 0.06 0"/>
<feBlend mode="normal" in2="effect1_innerShadow_693_405" result="effect2_innerShadow_693_405"/>
<feColorMatrix in="SourceAlpha" type="matrix" values="0 0 0 0 0 0 0 0 0 0 0 0 0 0 0 0 0 0 127 0" result="hardAlpha"/>
<feOffset/>
<feGaussianBlur stdDeviation="0.5"/>
<feComposite in2="hardAlpha" operator="arithmetic" k2="-1" k3="1"/>
<feColorMatrix type="matrix" values="0 0 0 0 1 0 0 0 0 1 0 0 0 0 1 0 0 0 0.16 0"/>
<feBlend mode="normal" in2="effect2_innerShadow_693_405" result="effect3_innerShadow_693_405"/>
</filter>
<filter id="filter10_f_693_405" x="80" y="50" width="42" height="42" filterUnits="userSpaceOnUse" color-interpolation-filters="sRGB">
<feFlood flood-opacity="0" result="BackgroundImageFix"/>
<feBlend mode="normal" in="SourceGraphic" in2="BackgroundImageFix" result="shape"/>
<feGaussianBlur stdDeviation="8" result="effect1_foregroundBlur_693_405"/>
</filter>
<filter id="filter11_di_693_405" x="70.652" y="44.4395" width="59.837" height="53.1174" filterUnits="userSpaceOnUse" color-interpolation-filters="sRGB">
<feFlood flood-opacity="0" result="BackgroundImageFix"/>
<feColorMatrix in="SourceAlpha" type="matrix" values="0 0 0 0 0 0 0 0 0 0 0 0 0 0 0 0 0 0 127 0" result="hardAlpha"/>
<feOffset/>
<feGaussianBlur stdDeviation="7.75"/>
<feComposite in2="hardAlpha" operator="out"/>
<feColorMatrix type="matrix" values="0 0 0 0 0.960784 0 0 0 0 0.25098 0 0 0 0 0.25098 0 0 0 0.5 0"/>
<feBlend mode="normal" in2="BackgroundImageFix" result="effect1_dropShadow_693_405"/>
<feBlend mode="normal" in="SourceGraphic" in2="effect1_dropShadow_693_405" result="shape"/>
<feColorMatrix in="SourceAlpha" type="matrix" values="0 0 0 0 0 0 0 0 0 0 0 0 0 0 0 0 0 0 127 0" result="hardAlpha"/>
<feOffset/>
<feGaussianBlur stdDeviation="1"/>
<feComposite in2="hardAlpha" operator="arithmetic" k2="-1" k3="1"/>
<feColorMatrix type="matrix" values="0 0 0 0 1 0 0 0 0 1 0 0 0 0 1 0 0 0 0.4 0"/>
<feBlend mode="normal" in2="shape" result="effect2_innerShadow_693_405"/>
</filter>
<filter id="filter12_iii_693_405" x="246" y="145" width="56" height="59" filterUnits="userSpaceOnUse" color-interpolation-filters="sRGB">
<feFlood flood-opacity="0" result="BackgroundImageFix"/>
<feBlend mode="normal" in="SourceGraphic" in2="BackgroundImageFix" result="shape"/>
<feColorMatrix in="SourceAlpha" type="matrix" values="0 0 0 0 0 0 0 0 0 0 0 0 0 0 0 0 0 0 127 0" result="hardAlpha"/>
<feOffset dy="2"/>
<feGaussianBlur stdDeviation="3.5"/>
<feComposite in2="hardAlpha" operator="arithmetic" k2="-1" k3="1"/>
<feColorMatrix type="matrix" values="0 0 0 0 0 0 0 0 0 0 0 0 0 0 0 0 0 0 0.12 0"/>
<feBlend mode="normal" in2="shape" result="effect1_innerShadow_693_405"/>
<feColorMatrix in="SourceAlpha" type="matrix" values="0 0 0 0 0 0 0 0 0 0 0 0 0 0 0 0 0 0 127 0" result="hardAlpha"/>
<feOffset dy="-1"/>
<feGaussianBlur stdDeviation="1.15"/>
<feComposite in2="hardAlpha" operator="arithmetic" k2="-1" k3="1"/>
<feColorMatrix type="matrix" values="0 0 0 0 1 0 0 0 0 1 0 0 0 0 1 0 0 0 0.06 0"/>
<feBlend mode="normal" in2="effect1_innerShadow_693_405" result="effect2_innerShadow_693_405"/>
<feColorMatrix in="SourceAlpha" type="matrix" values="0 0 0 0 0 0 0 0 0 0 0 0 0 0 0 0 0 0 127 0" result="hardAlpha"/>
<feOffset/>
<feGaussianBlur stdDeviation="0.5"/>
<feComposite in2="hardAlpha" operator="arithmetic" k2="-1" k3="1"/>
<feColorMatrix type="matrix" values="0 0 0 0 1 0 0 0 0 1 0 0 0 0 1 0 0 0 0.16 0"/>
<feBlend mode="normal" in2="effect2_innerShadow_693_405" result="effect3_innerShadow_693_405"/>
</filter>
<filter id="filter13_f_693_405" x="253" y="153" width="42" height="42" filterUnits="userSpaceOnUse" color-interpolation-filters="sRGB">
<feFlood flood-opacity="0" result="BackgroundImageFix"/>
<feBlend mode="normal" in="SourceGraphic" in2="BackgroundImageFix" result="shape"/>
<feGaussianBlur stdDeviation="8" result="effect1_foregroundBlur_693_405"/>
</filter>
<filter id="filter14_di_693_405" x="250.336" y="149.641" width="47.7344" height="47.73" filterUnits="userSpaceOnUse" color-interpolation-filters="sRGB">
<feFlood flood-opacity="0" result="BackgroundImageFix"/>
<feColorMatrix in="SourceAlpha" type="matrix" values="0 0 0 0 0 0 0 0 0 0 0 0 0 0 0 0 0 0 127 0" result="hardAlpha"/>
<feOffset/>
<feGaussianBlur stdDeviation="5.25"/>
<feComposite in2="hardAlpha" operator="out"/>
<feColorMatrix type="matrix" values="0 0 0 0 0.988235 0 0 0 0 0.768627 0 0 0 0 0.168627 0 0 0 0.5 0"/>
<feBlend mode="normal" in2="BackgroundImageFix" result="effect1_dropShadow_693_405"/>
<feBlend mode="normal" in="SourceGraphic" in2="effect1_dropShadow_693_405" result="shape"/>
<feColorMatrix in="SourceAlpha" type="matrix" values="0 0 0 0 0 0 0 0 0 0 0 0 0 0 0 0 0 0 127 0" result="hardAlpha"/>
<feOffset/>
<feGaussianBlur stdDeviation="1"/>
<feComposite in2="hardAlpha" operator="arithmetic" k2="-1" k3="1"/>
<feColorMatrix type="matrix" values="0 0 0 0 1 0 0 0 0 1 0 0 0 0 1 0 0 0 0.4 0"/>
<feBlend mode="normal" in2="shape" result="effect2_innerShadow_693_405"/>
</filter>
<filter id="filter15_iii_693_405" x="73" y="254" width="56" height="59" filterUnits="userSpaceOnUse" color-interpolation-filters="sRGB">
<feFlood flood-opacity="0" result="BackgroundImageFix"/>
<feBlend mode="normal" in="SourceGraphic" in2="BackgroundImageFix" result="shape"/>
<feColorMatrix in="SourceAlpha" type="matrix" values="0 0 0 0 0 0 0 0 0 0 0 0 0 0 0 0 0 0 127 0" result="hardAlpha"/>
<feOffset dy="2"/>
<feGaussianBlur stdDeviation="3.5"/>
<feComposite in2="hardAlpha" operator="arithmetic" k2="-1" k3="1"/>
<feColorMatrix type="matrix" values="0 0 0 0 0 0 0 0 0 0 0 0 0 0 0 0 0 0 0.12 0"/>
<feBlend mode="normal" in2="shape" result="effect1_innerShadow_693_405"/>
<feColorMatrix in="SourceAlpha" type="matrix" values="0 0 0 0 0 0 0 0 0 0 0 0 0 0 0 0 0 0 127 0" result="hardAlpha"/>
<feOffset dy="-1"/>
<feGaussianBlur stdDeviation="1.15"/>
<feComposite in2="hardAlpha" operator="arithmetic" k2="-1" k3="1"/>
<feColorMatrix type="matrix" values="0 0 0 0 1 0 0 0 0 1 0 0 0 0 1 0 0 0 0.06 0"/>
<feBlend mode="normal" in2="effect1_innerShadow_693_405" result="effect2_innerShadow_693_405"/>
<feColorMatrix in="SourceAlpha" type="matrix" values="0 0 0 0 0 0 0 0 0 0 0 0 0 0 0 0 0 0 127 0" result="hardAlpha"/>
<feOffset/>
<feGaussianBlur stdDeviation="0.5"/>
<feComposite in2="hardAlpha" operator="arithmetic" k2="-1" k3="1"/>
<feColorMatrix type="matrix" values="0 0 0 0 1 0 0 0 0 1 0 0 0 0 1 0 0 0 0.16 0"/>
<feBlend mode="normal" in2="effect2_innerShadow_693_405" result="effect3_innerShadow_693_405"/>
</filter>
<filter id="filter16_f_693_405" x="80" y="262" width="42" height="42" filterUnits="userSpaceOnUse" color-interpolation-filters="sRGB">
<feFlood flood-opacity="0" result="BackgroundImageFix"/>
<feBlend mode="normal" in="SourceGraphic" in2="BackgroundImageFix" result="shape"/>
<feGaussianBlur stdDeviation="8" result="effect1_foregroundBlur_693_405"/>
</filter>
<filter id="filter17_di_693_405" x="61.5" y="246.5" width="78" height="72" filterUnits="userSpaceOnUse" color-interpolation-filters="sRGB">
<feFlood flood-opacity="0" result="BackgroundImageFix"/>
<feColorMatrix in="SourceAlpha" type="matrix" values="0 0 0 0 0 0 0 0 0 0 0 0 0 0 0 0 0 0 127 0" result="hardAlpha"/>
<feOffset/>
<feGaussianBlur stdDeviation="11.25"/>
<feComposite in2="hardAlpha" operator="out"/>
<feColorMatrix type="matrix" values="0 0 0 0 0 0 0 0 0 1 0 0 0 0 0.458824 0 0 0 0.5 0"/>
<feBlend mode="normal" in2="BackgroundImageFix" result="effect1_dropShadow_693_405"/>
<feBlend mode="normal" in="SourceGraphic" in2="effect1_dropShadow_693_405" result="shape"/>
<feColorMatrix in="SourceAlpha" type="matrix" values="0 0 0 0 0 0 0 0 0 0 0 0 0 0 0 0 0 0 127 0" result="hardAlpha"/>
<feOffset/>
<feGaussianBlur stdDeviation="1"/>
<feComposite in2="hardAlpha" operator="arithmetic" k2="-1" k3="1"/>
<feColorMatrix type="matrix" values="0 0 0 0 1 0 0 0 0 1 0 0 0 0 1 0 0 0 0.4 0"/>
<feBlend mode="normal" in2="shape" result="effect2_innerShadow_693_405"/>
</filter>
<linearGradient id="paint0_linear_693_405" x1="162.701" y1="154.968" x2="162.155" y2="245.833" gradientUnits="userSpaceOnUse">
<stop stop-color="#BA85FF"/>
<stop offset="0.864" stop-color="#210841"/>
</linearGradient>
<linearGradient id="paint1_linear_693_405" x1="162.701" y1="154.968" x2="162.155" y2="245.833" gradientUnits="userSpaceOnUse">
<stop stop-color="#BA85FF"/>
<stop offset="0.864" stop-color="#210841"/>
</linearGradient>
<clipPath id="clip0_693_405">
<rect x="8" y="8" width="318" height="580" rx="16" fill="white"/>
</clipPath>
</defs>
</svg>
