<svg width="676" height="294" viewBox="0 0 676 294" fill="none" xmlns="http://www.w3.org/2000/svg">
<g filter="url(#filter0_d_693_565)">
<g clip-path="url(#clip0_693_565)">
<rect x="8" y="8" width="660" height="278" rx="16" fill="white" fill-opacity="0.04" shape-rendering="crispEdges"/>
<g filter="url(#filter1_f_693_565)">
<circle cx="8" cy="8" r="217" fill="#6100DE"/>
</g>
<rect x="209.697" y="51.9782" width="258" height="73" rx="36.5" transform="rotate(-35.081 209.697 51.9782)" stroke="white" stroke-opacity="0.08"/>
<rect x="297.697" y="51.9782" width="258" height="73" rx="36.5" transform="rotate(-35.081 297.697 51.9782)" stroke="white" stroke-opacity="0.08"/>
<line x1="587.713" y1="219.126" x2="690.997" y2="146.591" stroke="url(#paint0_linear_693_565)"/>
<circle cx="588" cy="219" r="6" fill="#BA85FF" fill-opacity="0.2"/>
<circle cx="588" cy="219" r="3" fill="#BA85FF" fill-opacity="0.5"/>
<g opacity="0.2" filter="url(#filter2_b_693_565)">
<rect x="403" y="85" width="320" height="62" rx="12" fill="white" fill-opacity="0.1"/>
<rect x="403.5" y="85.5" width="319" height="61" rx="11.5" stroke="white" stroke-opacity="0.08"/>
</g>
<g opacity="0.4" filter="url(#filter3_b_693_565)">
<rect x="391" y="71" width="320" height="62" rx="12" fill="white" fill-opacity="0.1"/>
<rect x="391.5" y="71.5" width="319" height="61" rx="11.5" stroke="white" stroke-opacity="0.08"/>
</g>
<g opacity="0.6" filter="url(#filter4_b_693_565)">
<rect x="379" y="57" width="320" height="62" rx="12" fill="white" fill-opacity="0.1"/>
<rect x="379.5" y="57.5" width="319" height="61" rx="11.5" stroke="white" stroke-opacity="0.08"/>
</g>
<g opacity="0.8" filter="url(#filter5_b_693_565)">
<rect x="367" y="43" width="320" height="62" rx="12" fill="white" fill-opacity="0.1"/>
<rect x="367.5" y="43.5" width="319" height="61" rx="11.5" stroke="white" stroke-opacity="0.08"/>
</g>
<g filter="url(#filter6_b_693_565)">
<rect x="355" y="29" width="320" height="62" rx="12" fill="white" fill-opacity="0.1"/>
<rect x="355.5" y="29.5" width="319" height="61" rx="11.5" stroke="white" stroke-opacity="0.08"/>
<g filter="url(#filter7_di_693_565)">
<path d="M395.438 60.7188C396.581 60.7188 397.678 61.1731 398.487 61.9819C399.296 62.7906 399.75 63.8875 399.75 65.0312V66.4688C399.75 72.1354 394.403 77.9688 385.375 77.9688C376.347 77.9688 371 72.1354 371 66.4688V65.0312C371 63.8875 371.454 62.7906 372.263 61.9819C373.072 61.1731 374.169 60.7188 375.312 60.7188H395.438ZM385.375 42.0312C387.472 42.0312 389.483 42.8642 390.966 44.3469C392.448 45.8296 393.281 47.8406 393.281 49.9375C393.281 52.0344 392.448 54.0454 390.966 55.5281C389.483 57.0108 387.472 57.8438 385.375 57.8438C383.278 57.8438 381.267 57.0108 379.784 55.5281C378.302 54.0454 377.469 52.0344 377.469 49.9375C377.469 47.8406 378.302 45.8296 379.784 44.3469C381.267 42.8642 383.278 42.0312 385.375 42.0312Z" fill="url(#paint1_linear_693_565)"/>
<path d="M395.438 60.7188C396.581 60.7188 397.678 61.1731 398.487 61.9819C399.296 62.7906 399.75 63.8875 399.75 65.0312V66.4688C399.75 72.1354 394.403 77.9688 385.375 77.9688C376.347 77.9688 371 72.1354 371 66.4688V65.0312C371 63.8875 371.454 62.7906 372.263 61.9819C373.072 61.1731 374.169 60.7188 375.312 60.7188H395.438ZM385.375 42.0312C387.472 42.0312 389.483 42.8642 390.966 44.3469C392.448 45.8296 393.281 47.8406 393.281 49.9375C393.281 52.0344 392.448 54.0454 390.966 55.5281C389.483 57.0108 387.472 57.8438 385.375 57.8438C383.278 57.8438 381.267 57.0108 379.784 55.5281C378.302 54.0454 377.469 52.0344 377.469 49.9375C377.469 47.8406 378.302 45.8296 379.784 44.3469C381.267 42.8642 383.278 42.0312 385.375 42.0312Z" fill="white"/>
</g>
<g filter="url(#filter8_d_693_565)">
<path d="M413.489 43.3636H415.58V51.5455C415.576 52.2955 415.417 52.9413 415.102 53.483C414.788 54.0208 414.348 54.4356 413.784 54.7273C413.223 55.0152 412.57 55.1591 411.824 55.1591C411.142 55.1591 410.528 55.0379 409.983 54.7955C409.441 54.5492 409.011 54.1856 408.693 53.7045C408.375 53.2235 408.216 52.625 408.216 51.9091H410.312C410.316 52.2235 410.384 52.4943 410.517 52.7216C410.653 52.9489 410.841 53.1231 411.08 53.2443C411.318 53.3655 411.593 53.4261 411.903 53.4261C412.241 53.4261 412.527 53.3561 412.761 53.2159C412.996 53.072 413.174 52.8598 413.295 52.5795C413.42 52.2992 413.485 51.9545 413.489 51.5455V43.3636ZM421.582 55.1705C420.73 55.1705 419.991 54.983 419.366 54.608C418.741 54.233 418.257 53.7083 417.912 53.0341C417.571 52.3598 417.401 51.572 417.401 50.6705C417.401 49.7689 417.571 48.9792 417.912 48.3011C418.257 47.6231 418.741 47.0966 419.366 46.7216C419.991 46.3466 420.73 46.1591 421.582 46.1591C422.435 46.1591 423.173 46.3466 423.798 46.7216C424.423 47.0966 424.906 47.6231 425.247 48.3011C425.592 48.9792 425.764 49.7689 425.764 50.6705C425.764 51.572 425.592 52.3598 425.247 53.0341C424.906 53.7083 424.423 54.233 423.798 54.608C423.173 54.983 422.435 55.1705 421.582 55.1705ZM421.594 53.5227C422.056 53.5227 422.442 53.3958 422.753 53.142C423.063 52.8845 423.295 52.5398 423.446 52.108C423.601 51.6761 423.679 51.1951 423.679 50.6648C423.679 50.1307 423.601 49.6477 423.446 49.2159C423.295 48.7803 423.063 48.4337 422.753 48.1761C422.442 47.9186 422.056 47.7898 421.594 47.7898C421.12 47.7898 420.726 47.9186 420.412 48.1761C420.101 48.4337 419.868 48.7803 419.713 49.2159C419.562 49.6477 419.486 50.1307 419.486 50.6648C419.486 51.1951 419.562 51.6761 419.713 52.108C419.868 52.5398 420.101 52.8845 420.412 53.142C420.726 53.3958 421.12 53.5227 421.594 53.5227ZM429.567 49.8864V55H427.51V43.3636H429.521V47.7557H429.624C429.828 47.2633 430.144 46.875 430.572 46.5909C431.004 46.303 431.554 46.1591 432.22 46.1591C432.826 46.1591 433.355 46.286 433.805 46.5398C434.256 46.7936 434.605 47.1648 434.851 47.6534C435.101 48.142 435.226 48.7386 435.226 49.4432V55H433.169V49.7614C433.169 49.1742 433.018 48.7178 432.714 48.392C432.415 48.0625 431.995 47.8977 431.453 47.8977C431.089 47.8977 430.764 47.9773 430.476 48.1364C430.192 48.2917 429.968 48.517 429.805 48.8125C429.646 49.108 429.567 49.4659 429.567 49.8864ZM439.379 49.8864V55H437.322V46.2727H439.288V47.7557H439.391C439.591 47.267 439.911 46.8788 440.351 46.5909C440.794 46.303 441.341 46.1591 441.993 46.1591C442.595 46.1591 443.12 46.2879 443.567 46.5455C444.018 46.803 444.366 47.1761 444.612 47.6648C444.862 48.1534 444.985 48.7462 444.982 49.4432V55H442.925V49.7614C442.925 49.178 442.773 48.7216 442.47 48.392C442.171 48.0625 441.756 47.8977 441.226 47.8977C440.866 47.8977 440.546 47.9773 440.266 48.1364C439.989 48.2917 439.771 48.517 439.612 48.8125C439.457 49.108 439.379 49.4659 439.379 49.8864ZM449.129 49.8864V55H447.072V46.2727H449.038V47.7557H449.141C449.341 47.267 449.661 46.8788 450.101 46.5909C450.544 46.303 451.091 46.1591 451.743 46.1591C452.345 46.1591 452.87 46.2879 453.317 46.5455C453.768 46.803 454.116 47.1761 454.362 47.6648C454.612 48.1534 454.735 48.7462 454.732 49.4432V55H452.675V49.7614C452.675 49.178 452.523 48.7216 452.22 48.392C451.921 48.0625 451.506 47.8977 450.976 47.8977C450.616 47.8977 450.296 47.9773 450.016 48.1364C449.739 48.2917 449.521 48.517 449.362 48.8125C449.207 49.108 449.129 49.4659 449.129 49.8864ZM457.788 58.2727C457.508 58.2727 457.249 58.25 457.01 58.2045C456.775 58.1629 456.588 58.1136 456.447 58.0568L456.925 56.4545C457.224 56.5417 457.491 56.5833 457.726 56.5795C457.961 56.5758 458.167 56.5019 458.345 56.358C458.527 56.2178 458.68 55.983 458.805 55.6534L458.982 55.1818L455.817 46.2727H457.999L460.01 52.8636H460.101L462.118 46.2727H464.305L460.811 56.0568C460.648 56.5189 460.432 56.9148 460.163 57.2443C459.894 57.5777 459.565 57.8314 459.175 58.0057C458.788 58.1837 458.326 58.2727 457.788 58.2727ZM469.788 55V43.3636H474.152C475.046 43.3636 475.796 43.5303 476.402 43.8636C477.012 44.197 477.472 44.6553 477.783 45.2386C478.097 45.8182 478.254 46.4773 478.254 47.2159C478.254 47.9621 478.097 48.625 477.783 49.2045C477.468 49.7841 477.004 50.2405 476.391 50.5739C475.777 50.9034 475.021 51.0682 474.124 51.0682H471.232V49.3352H473.839C474.362 49.3352 474.79 49.2443 475.124 49.0625C475.457 48.8807 475.703 48.6307 475.862 48.3125C476.025 47.9943 476.107 47.6288 476.107 47.2159C476.107 46.803 476.025 46.4394 475.862 46.125C475.703 45.8106 475.455 45.5663 475.118 45.392C474.785 45.214 474.355 45.125 473.828 45.125H471.896V55H469.788ZM480.714 55.125C480.37 55.125 480.074 55.0038 479.828 54.7614C479.582 54.5189 479.461 54.2235 479.464 53.875C479.461 53.5341 479.582 53.2424 479.828 53C480.074 52.7576 480.37 52.6364 480.714 52.6364C481.048 52.6364 481.338 52.7576 481.584 53C481.834 53.2424 481.961 53.5341 481.964 53.875C481.961 54.1061 481.9 54.3163 481.783 54.5057C481.669 54.6951 481.518 54.8466 481.328 54.9602C481.143 55.0701 480.938 55.125 480.714 55.125ZM497.749 47.2898H495.624C495.563 46.9413 495.451 46.6326 495.288 46.3636C495.125 46.0909 494.923 45.8598 494.68 45.6705C494.438 45.4811 494.161 45.339 493.851 45.2443C493.544 45.1458 493.213 45.0966 492.857 45.0966C492.224 45.0966 491.663 45.2557 491.175 45.5739C490.686 45.8883 490.304 46.3504 490.027 46.9602C489.75 47.5663 489.612 48.3068 489.612 49.1818C489.612 50.072 489.75 50.822 490.027 51.4318C490.307 52.0379 490.69 52.4962 491.175 52.8068C491.663 53.1136 492.222 53.267 492.851 53.267C493.199 53.267 493.525 53.2216 493.828 53.1307C494.135 53.036 494.41 52.8977 494.652 52.7159C494.898 52.5341 495.105 52.3106 495.271 52.0455C495.442 51.7803 495.559 51.4773 495.624 51.1364L497.749 51.1477C497.669 51.7008 497.497 52.2197 497.232 52.7045C496.97 53.1894 496.627 53.6174 496.203 53.9886C495.779 54.3561 495.283 54.6439 494.714 54.8523C494.146 55.0568 493.516 55.1591 492.822 55.1591C491.8 55.1591 490.887 54.9223 490.084 54.4489C489.281 53.9754 488.648 53.2917 488.186 52.3977C487.724 51.5038 487.493 50.4318 487.493 49.1818C487.493 47.928 487.726 46.8561 488.192 45.9659C488.658 45.072 489.292 44.3883 490.095 43.9148C490.898 43.4413 491.807 43.2045 492.822 43.2045C493.47 43.2045 494.072 43.2955 494.629 43.4773C495.186 43.6591 495.682 43.9261 496.118 44.2784C496.554 44.6269 496.911 45.0549 497.192 45.5625C497.476 46.0663 497.661 46.642 497.749 47.2898ZM502.099 55.1761C501.546 55.1761 501.048 55.0777 500.605 54.8807C500.166 54.6799 499.817 54.3845 499.56 53.9943C499.306 53.6042 499.179 53.1231 499.179 52.5511C499.179 52.0587 499.27 51.6515 499.452 51.3295C499.634 51.0076 499.882 50.75 500.196 50.5568C500.51 50.3636 500.865 50.2178 501.259 50.1193C501.656 50.017 502.067 49.9432 502.491 49.8977C503.003 49.8447 503.418 49.7973 503.736 49.7557C504.054 49.7102 504.285 49.642 504.429 49.5511C504.577 49.4564 504.651 49.3106 504.651 49.1136V49.0795C504.651 48.6515 504.524 48.3201 504.27 48.0852C504.016 47.8504 503.651 47.733 503.173 47.733C502.67 47.733 502.27 47.8428 501.974 48.0625C501.683 48.2822 501.486 48.5417 501.384 48.8409L499.463 48.5682C499.615 48.0379 499.865 47.5947 500.213 47.2386C500.562 46.8788 500.988 46.6098 501.491 46.4318C501.995 46.25 502.552 46.1591 503.162 46.1591C503.582 46.1591 504.001 46.2083 504.418 46.3068C504.834 46.4053 505.215 46.5682 505.56 46.7955C505.904 47.0189 506.181 47.3239 506.389 47.7102C506.601 48.0966 506.707 48.5795 506.707 49.1591V55H504.73V53.8011H504.662C504.537 54.0436 504.361 54.2708 504.134 54.483C503.91 54.6913 503.628 54.8598 503.287 54.9886C502.95 55.1136 502.554 55.1761 502.099 55.1761ZM502.634 53.6648C503.046 53.6648 503.404 53.5833 503.707 53.4205C504.01 53.2538 504.243 53.0341 504.406 52.7614C504.573 52.4886 504.656 52.1913 504.656 51.8693V50.8409C504.592 50.8939 504.482 50.9432 504.327 50.9886C504.175 51.0341 504.005 51.0739 503.815 51.108C503.626 51.142 503.438 51.1723 503.253 51.1989C503.067 51.2254 502.906 51.2481 502.77 51.267C502.463 51.3087 502.188 51.3769 501.946 51.4716C501.704 51.5663 501.512 51.6989 501.372 51.8693C501.232 52.036 501.162 52.2519 501.162 52.517C501.162 52.8958 501.3 53.1818 501.577 53.375C501.853 53.5682 502.205 53.6648 502.634 53.6648ZM512.014 55.1534C511.329 55.1534 510.715 54.9773 510.173 54.625C509.632 54.2727 509.204 53.7614 508.889 53.0909C508.575 52.4205 508.418 51.6061 508.418 50.6477C508.418 49.678 508.577 48.8598 508.895 48.1932C509.217 47.5227 509.651 47.017 510.196 46.6761C510.741 46.3314 511.349 46.1591 512.02 46.1591C512.531 46.1591 512.952 46.2462 513.281 46.4205C513.611 46.5909 513.872 46.7973 514.065 47.0398C514.259 47.2784 514.408 47.5038 514.514 47.7159H514.599V43.3636H516.662V55H514.639V53.625H514.514C514.408 53.8371 514.255 54.0625 514.054 54.3011C513.853 54.536 513.588 54.7367 513.259 54.9034C512.929 55.0701 512.514 55.1534 512.014 55.1534ZM512.588 53.4659C513.024 53.4659 513.395 53.3485 513.702 53.1136C514.009 52.875 514.241 52.5436 514.401 52.1193C514.56 51.6951 514.639 51.2008 514.639 50.6364C514.639 50.072 514.56 49.5814 514.401 49.1648C514.245 48.7481 514.014 48.4242 513.707 48.1932C513.404 47.9621 513.031 47.8466 512.588 47.8466C512.13 47.8466 511.747 47.9659 511.44 48.2045C511.134 48.4432 510.902 48.7727 510.747 49.1932C510.592 49.6136 510.514 50.0947 510.514 50.6364C510.514 51.1818 510.592 51.6686 510.747 52.0966C510.906 52.5208 511.139 52.8561 511.446 53.1023C511.757 53.3447 512.137 53.4659 512.588 53.4659ZM522.092 55.1534C521.407 55.1534 520.793 54.9773 520.251 54.625C519.71 54.2727 519.282 53.7614 518.967 53.0909C518.653 52.4205 518.496 51.6061 518.496 50.6477C518.496 49.678 518.655 48.8598 518.973 48.1932C519.295 47.5227 519.729 47.017 520.274 46.6761C520.82 46.3314 521.428 46.1591 522.098 46.1591C522.609 46.1591 523.03 46.2462 523.359 46.4205C523.689 46.5909 523.95 46.7973 524.143 47.0398C524.337 47.2784 524.486 47.5038 524.592 47.7159H524.678V43.3636H526.74V55H524.717V53.625H524.592C524.486 53.8371 524.333 54.0625 524.132 54.3011C523.931 54.536 523.666 54.7367 523.337 54.9034C523.007 55.0701 522.592 55.1534 522.092 55.1534ZM522.666 53.4659C523.102 53.4659 523.473 53.3485 523.78 53.1136C524.087 52.875 524.32 52.5436 524.479 52.1193C524.638 51.6951 524.717 51.2008 524.717 50.6364C524.717 50.072 524.638 49.5814 524.479 49.1648C524.323 48.7481 524.092 48.4242 523.786 48.1932C523.482 47.9621 523.109 47.8466 522.666 47.8466C522.208 47.8466 521.825 47.9659 521.518 48.2045C521.212 48.4432 520.981 48.7727 520.825 49.1932C520.67 49.6136 520.592 50.0947 520.592 50.6364C520.592 51.1818 520.67 51.6686 520.825 52.0966C520.984 52.5208 521.217 52.8561 521.524 53.1023C521.835 53.3447 522.215 53.4659 522.666 53.4659ZM530.21 58.2727C529.93 58.2727 529.67 58.25 529.432 58.2045C529.197 58.1629 529.009 58.1136 528.869 58.0568L529.347 56.4545C529.646 56.5417 529.913 56.5833 530.148 56.5795C530.383 56.5758 530.589 56.5019 530.767 56.358C530.949 56.2178 531.102 55.983 531.227 55.6534L531.403 55.1818L528.239 46.2727H530.42L532.432 52.8636H532.523L534.54 46.2727H536.727L533.233 56.0568C533.07 56.5189 532.854 56.9148 532.585 57.2443C532.316 57.5777 531.987 57.8314 531.597 58.0057C531.21 58.1837 530.748 58.2727 530.21 58.2727Z" fill="white"/>
</g>
<g filter="url(#filter9_d_693_565)">
<path d="M408.33 70.2102V69.2727H414.875V70.2102H412.131V78H411.074V70.2102H408.33ZM416.506 78V69.2727H421.773V70.2102H417.563V73.1591H421.5V74.0966H417.563V77.0625H421.841V78H416.506ZM424.036 78H422.928L426.132 69.2727H427.223L430.428 78H429.32L426.712 70.6534H426.644L424.036 78ZM424.445 74.5909H428.911V75.5284H424.445V74.5909ZM431.787 69.2727H433.049L436.015 76.517H436.117L439.083 69.2727H440.344V78H439.355V71.3693H439.27L436.543 78H435.588L432.861 71.3693H432.776V78H431.787V69.2727ZM448.531 78.1193C447.889 78.1193 447.342 77.9446 446.891 77.5952C446.439 77.2429 446.094 76.733 445.855 76.0653C445.616 75.3949 445.497 74.5852 445.497 73.6364C445.497 72.6932 445.616 71.8878 445.855 71.2202C446.097 70.5497 446.443 70.0384 446.895 69.6861C447.349 69.331 447.895 69.1534 448.531 69.1534C449.168 69.1534 449.712 69.331 450.163 69.6861C450.618 70.0384 450.964 70.5497 451.203 71.2202C451.445 71.8878 451.565 72.6932 451.565 73.6364C451.565 74.5852 451.446 75.3949 451.207 76.0653C450.969 76.733 450.624 77.2429 450.172 77.5952C449.72 77.9446 449.173 78.1193 448.531 78.1193ZM448.531 77.1818C449.168 77.1818 449.662 76.875 450.014 76.2614C450.366 75.6477 450.543 74.7727 450.543 73.6364C450.543 72.8807 450.462 72.2372 450.3 71.706C450.141 71.1747 449.911 70.7699 449.609 70.4915C449.311 70.2131 448.952 70.0739 448.531 70.0739C447.901 70.0739 447.408 70.3849 447.053 71.0071C446.697 71.6264 446.52 72.5028 446.52 73.6364C446.52 74.392 446.599 75.0341 446.759 75.5625C446.918 76.0909 447.146 76.4929 447.445 76.7685C447.746 77.044 448.108 77.1818 448.531 77.1818ZM453.185 78V77.233L456.065 74.0795C456.403 73.7102 456.682 73.3892 456.901 73.1165C457.119 72.8409 457.281 72.5824 457.386 72.3409C457.494 72.0966 457.548 71.8409 457.548 71.5739C457.548 71.267 457.474 71.0014 457.327 70.777C457.182 70.5526 456.983 70.3793 456.73 70.2571C456.477 70.1349 456.193 70.0739 455.878 70.0739C455.543 70.0739 455.25 70.1435 455 70.2827C454.753 70.419 454.561 70.6108 454.425 70.858C454.291 71.1051 454.224 71.3949 454.224 71.7273H453.219C453.219 71.2159 453.337 70.767 453.572 70.3807C453.808 69.9943 454.129 69.6932 454.536 69.4773C454.945 69.2614 455.403 69.1534 455.912 69.1534C456.423 69.1534 456.876 69.2614 457.271 69.4773C457.666 69.6932 457.976 69.9844 458.2 70.3509C458.425 70.7173 458.537 71.125 458.537 71.5739C458.537 71.8949 458.479 72.2088 458.362 72.5156C458.249 72.8196 458.05 73.1591 457.766 73.5341C457.484 73.9062 457.094 74.3608 456.594 74.8977L454.634 76.9943V77.0625H458.69V78H453.185ZM464.2 73.6364C464.2 72.5625 464.339 71.5753 464.618 70.6747C464.899 69.7713 465.3 68.9403 465.82 68.1818H466.706C466.501 68.4631 466.31 68.8097 466.131 69.2216C465.955 69.6307 465.8 70.081 465.666 70.5724C465.533 71.0611 465.428 71.5668 465.351 72.0895C465.277 72.6122 465.24 73.1278 465.24 73.6364C465.24 74.3125 465.305 74.9986 465.436 75.6946C465.567 76.3906 465.743 77.0369 465.964 77.6335C466.186 78.2301 466.433 78.7159 466.706 79.0909H465.82C465.3 78.3324 464.899 77.5028 464.618 76.6023C464.339 75.6989 464.2 74.7102 464.2 73.6364ZM468.326 69.2727H469.588L472.554 76.517H472.656L475.622 69.2727H476.883V78H475.895V71.3693H475.809L473.082 78H472.127L469.4 71.3693H469.315V78H468.326V69.2727ZM479.002 78V69.2727H484.269V70.2102H480.059V73.1591H483.996V74.0966H480.059V77.0625H484.337V78H479.002ZM486.174 69.2727H487.435L490.401 76.517H490.504L493.469 69.2727H494.731V78H493.742V71.3693H493.657L490.93 78H489.975L487.248 71.3693H487.163V78H486.174V69.2727ZM496.85 78V69.2727H499.901C500.509 69.2727 501.01 69.3778 501.405 69.5881C501.8 69.7955 502.094 70.0753 502.287 70.4276C502.48 70.777 502.577 71.1648 502.577 71.5909C502.577 71.9659 502.51 72.2756 502.377 72.5199C502.246 72.7642 502.073 72.9574 501.857 73.0994C501.644 73.2415 501.412 73.3466 501.162 73.4148V73.5C501.429 73.517 501.698 73.6108 501.968 73.7812C502.238 73.9517 502.463 74.196 502.645 74.5142C502.827 74.8324 502.918 75.2216 502.918 75.6818C502.918 76.1193 502.819 76.5128 502.62 76.8622C502.421 77.2116 502.107 77.4886 501.678 77.6932C501.249 77.8977 500.691 78 500.003 78H496.85ZM497.907 77.0625H500.003C500.694 77.0625 501.184 76.929 501.473 76.6619C501.766 76.392 501.912 76.0653 501.912 75.6818C501.912 75.3864 501.837 75.1136 501.686 74.8636C501.536 74.6108 501.321 74.4091 501.043 74.2585C500.765 74.1051 500.435 74.0284 500.054 74.0284H497.907V77.0625ZM497.907 73.108H499.867C500.185 73.108 500.472 73.0455 500.728 72.9205C500.986 72.7955 501.191 72.6193 501.341 72.392C501.495 72.1648 501.571 71.8977 501.571 71.5909C501.571 71.2074 501.438 70.8821 501.171 70.6151C500.904 70.3452 500.48 70.2102 499.901 70.2102H497.907V73.108ZM504.654 78V69.2727H509.922V70.2102H505.711V73.1591H509.649V74.0966H505.711V77.0625H509.99V78H504.654ZM511.826 78V69.2727H514.775C515.457 69.2727 516.017 69.3892 516.454 69.6222C516.892 69.8523 517.216 70.169 517.426 70.5724C517.636 70.9759 517.741 71.4347 517.741 71.9489C517.741 72.4631 517.636 72.919 517.426 73.3168C517.216 73.7145 516.893 74.027 516.458 74.2543C516.024 74.4787 515.468 74.5909 514.792 74.5909H512.406V73.6364H514.758C515.224 73.6364 515.599 73.5682 515.883 73.4318C516.17 73.2955 516.377 73.1023 516.505 72.8523C516.636 72.5994 516.701 72.2983 516.701 71.9489C516.701 71.5994 516.636 71.294 516.505 71.0327C516.375 70.7713 516.166 70.5696 515.879 70.4276C515.592 70.2827 515.213 70.2102 514.741 70.2102H512.883V78H511.826ZM515.934 74.0795L518.082 78H516.855L514.741 74.0795H515.934ZM521.513 73.6364C521.513 74.7102 521.373 75.6989 521.092 76.6023C520.813 77.5028 520.414 78.3324 519.894 79.0909H519.008C519.212 78.8097 519.403 78.4631 519.579 78.0511C519.758 77.642 519.914 77.1932 520.048 76.7045C520.181 76.2131 520.285 75.706 520.359 75.1832C520.435 74.6577 520.474 74.142 520.474 73.6364C520.474 72.9602 520.408 72.2741 520.278 71.5781C520.147 70.8821 519.971 70.2358 519.749 69.6392C519.528 69.0426 519.281 68.5568 519.008 68.1818H519.894C520.414 68.9403 520.813 69.7713 521.092 70.6747C521.373 71.5753 521.513 72.5625 521.513 73.6364Z" fill="white" fill-opacity="0.85" shape-rendering="crispEdges"/>
</g>
</g>
</g>
<rect x="8.5" y="8.5" width="659" height="277" rx="15.5" stroke="white" stroke-opacity="0.24" shape-rendering="crispEdges"/>
</g>
<defs>
<filter id="filter0_d_693_565" x="0" y="0" width="676" height="294" filterUnits="userSpaceOnUse" color-interpolation-filters="sRGB">
<feFlood flood-opacity="0" result="BackgroundImageFix"/>
<feColorMatrix in="SourceAlpha" type="matrix" values="0 0 0 0 0 0 0 0 0 0 0 0 0 0 0 0 0 0 127 0" result="hardAlpha"/>
<feOffset/>
<feGaussianBlur stdDeviation="4"/>
<feComposite in2="hardAlpha" operator="out"/>
<feColorMatrix type="matrix" values="0 0 0 0 1 0 0 0 0 1 0 0 0 0 1 0 0 0 0.12 0"/>
<feBlend mode="normal" in2="BackgroundImageFix" result="effect1_dropShadow_693_565"/>
<feBlend mode="normal" in="SourceGraphic" in2="effect1_dropShadow_693_565" result="shape"/>
</filter>
<filter id="filter1_f_693_565" x="-779.7" y="-779.7" width="1575.4" height="1575.4" filterUnits="userSpaceOnUse" color-interpolation-filters="sRGB">
<feFlood flood-opacity="0" result="BackgroundImageFix"/>
<feBlend mode="normal" in="SourceGraphic" in2="BackgroundImageFix" result="shape"/>
<feGaussianBlur stdDeviation="285.35" result="effect1_foregroundBlur_693_565"/>
</filter>
<filter id="filter2_b_693_565" x="293" y="-25" width="540" height="282" filterUnits="userSpaceOnUse" color-interpolation-filters="sRGB">
<feFlood flood-opacity="0" result="BackgroundImageFix"/>
<feGaussianBlur in="BackgroundImageFix" stdDeviation="55"/>
<feComposite in2="SourceAlpha" operator="in" result="effect1_backgroundBlur_693_565"/>
<feBlend mode="normal" in="SourceGraphic" in2="effect1_backgroundBlur_693_565" result="shape"/>
</filter>
<filter id="filter3_b_693_565" x="281" y="-39" width="540" height="282" filterUnits="userSpaceOnUse" color-interpolation-filters="sRGB">
<feFlood flood-opacity="0" result="BackgroundImageFix"/>
<feGaussianBlur in="BackgroundImageFix" stdDeviation="55"/>
<feComposite in2="SourceAlpha" operator="in" result="effect1_backgroundBlur_693_565"/>
<feBlend mode="normal" in="SourceGraphic" in2="effect1_backgroundBlur_693_565" result="shape"/>
</filter>
<filter id="filter4_b_693_565" x="269" y="-53" width="540" height="282" filterUnits="userSpaceOnUse" color-interpolation-filters="sRGB">
<feFlood flood-opacity="0" result="BackgroundImageFix"/>
<feGaussianBlur in="BackgroundImageFix" stdDeviation="55"/>
<feComposite in2="SourceAlpha" operator="in" result="effect1_backgroundBlur_693_565"/>
<feBlend mode="normal" in="SourceGraphic" in2="effect1_backgroundBlur_693_565" result="shape"/>
</filter>
<filter id="filter5_b_693_565" x="257" y="-67" width="540" height="282" filterUnits="userSpaceOnUse" color-interpolation-filters="sRGB">
<feFlood flood-opacity="0" result="BackgroundImageFix"/>
<feGaussianBlur in="BackgroundImageFix" stdDeviation="55"/>
<feComposite in2="SourceAlpha" operator="in" result="effect1_backgroundBlur_693_565"/>
<feBlend mode="normal" in="SourceGraphic" in2="effect1_backgroundBlur_693_565" result="shape"/>
</filter>
<filter id="filter6_b_693_565" x="245" y="-81" width="540" height="282" filterUnits="userSpaceOnUse" color-interpolation-filters="sRGB">
<feFlood flood-opacity="0" result="BackgroundImageFix"/>
<feGaussianBlur in="BackgroundImageFix" stdDeviation="55"/>
<feComposite in2="SourceAlpha" operator="in" result="effect1_backgroundBlur_693_565"/>
<feBlend mode="normal" in="SourceGraphic" in2="effect1_backgroundBlur_693_565" result="shape"/>
</filter>
<filter id="filter7_di_693_565" x="363.8" y="34.8313" width="43.15" height="50.3375" filterUnits="userSpaceOnUse" color-interpolation-filters="sRGB">
<feFlood flood-opacity="0" result="BackgroundImageFix"/>
<feColorMatrix in="SourceAlpha" type="matrix" values="0 0 0 0 0 0 0 0 0 0 0 0 0 0 0 0 0 0 127 0" result="hardAlpha"/>
<feOffset/>
<feGaussianBlur stdDeviation="3.6"/>
<feComposite in2="hardAlpha" operator="out"/>
<feColorMatrix type="matrix" values="0 0 0 0 1 0 0 0 0 1 0 0 0 0 1 0 0 0 0.5 0"/>
<feBlend mode="normal" in2="BackgroundImageFix" result="effect1_dropShadow_693_565"/>
<feBlend mode="normal" in="SourceGraphic" in2="effect1_dropShadow_693_565" result="shape"/>
<feColorMatrix in="SourceAlpha" type="matrix" values="0 0 0 0 0 0 0 0 0 0 0 0 0 0 0 0 0 0 127 0" result="hardAlpha"/>
<feOffset/>
<feGaussianBlur stdDeviation="2"/>
<feComposite in2="hardAlpha" operator="arithmetic" k2="-1" k3="1"/>
<feColorMatrix type="matrix" values="0 0 0 0 1 0 0 0 0 1 0 0 0 0 1 0 0 0 0.2 0"/>
<feBlend mode="normal" in2="shape" result="effect2_innerShadow_693_565"/>
</filter>
<filter id="filter8_d_693_565" x="398.216" y="33.2046" width="148.511" height="35.0684" filterUnits="userSpaceOnUse" color-interpolation-filters="sRGB">
<feFlood flood-opacity="0" result="BackgroundImageFix"/>
<feColorMatrix in="SourceAlpha" type="matrix" values="0 0 0 0 0 0 0 0 0 0 0 0 0 0 0 0 0 0 127 0" result="hardAlpha"/>
<feOffset/>
<feGaussianBlur stdDeviation="5"/>
<feComposite in2="hardAlpha" operator="out"/>
<feColorMatrix type="matrix" values="0 0 0 0 1 0 0 0 0 1 0 0 0 0 1 0 0 0 0.25 0"/>
<feBlend mode="normal" in2="BackgroundImageFix" result="effect1_dropShadow_693_565"/>
<feBlend mode="normal" in="SourceGraphic" in2="effect1_dropShadow_693_565" result="shape"/>
</filter>
<filter id="filter9_d_693_565" x="406.33" y="66.1816" width="117.184" height="14.9092" filterUnits="userSpaceOnUse" color-interpolation-filters="sRGB">
<feFlood flood-opacity="0" result="BackgroundImageFix"/>
<feColorMatrix in="SourceAlpha" type="matrix" values="0 0 0 0 0 0 0 0 0 0 0 0 0 0 0 0 0 0 127 0" result="hardAlpha"/>
<feOffset/>
<feGaussianBlur stdDeviation="1"/>
<feComposite in2="hardAlpha" operator="out"/>
<feColorMatrix type="matrix" values="0 0 0 0 1 0 0 0 0 1 0 0 0 0 1 0 0 0 0.25 0"/>
<feBlend mode="normal" in2="BackgroundImageFix" result="effect1_dropShadow_693_565"/>
<feBlend mode="normal" in="SourceGraphic" in2="effect1_dropShadow_693_565" result="shape"/>
</filter>
<linearGradient id="paint0_linear_693_565" x1="601.031" y1="211.868" x2="691.282" y2="143.149" gradientUnits="userSpaceOnUse">
<stop stop-color="white" stop-opacity="0.27"/>
<stop offset="0.771564" stop-color="white" stop-opacity="0"/>
</linearGradient>
<linearGradient id="paint1_linear_693_565" x1="367.875" y1="42.7188" x2="407.601" y2="68.586" gradientUnits="userSpaceOnUse">
<stop stop-color="#B27EF4"/>
<stop offset="1" stop-color="#461683"/>
</linearGradient>
<clipPath id="clip0_693_565">
<rect x="8" y="8" width="660" height="278" rx="16" fill="white"/>
</clipPath>
</defs>
</svg>
