<svg width="676" height="294" viewBox="0 0 676 294" fill="none" xmlns="http://www.w3.org/2000/svg">
<g filter="url(#filter0_d_693_472)">
<g clip-path="url(#clip0_693_472)">
<rect x="8" y="8" width="660" height="278" rx="16" fill="white" fill-opacity="0.04" shape-rendering="crispEdges"/>
<g filter="url(#filter1_f_693_472)">
<circle cx="8" cy="8" r="217" fill="#6100DE"/>
</g>
<g opacity="0.3">
<g filter="url(#filter2_f_693_472)">
<path d="M494.59 -37.193C495.005 -37.5581 495.076 -38.2155 494.75 -38.6612C494.424 -39.1069 493.824 -39.1722 493.41 -38.807L494.59 -37.193ZM493.41 -38.807L312.41 120.718L313.59 122.332L494.59 -37.193L493.41 -38.807Z" fill="url(#paint0_linear_693_472)"/>
</g>
<path d="M494.59 -37.193C495.005 -37.5581 495.076 -38.2155 494.75 -38.6612C494.424 -39.1069 493.824 -39.1722 493.41 -38.807L494.59 -37.193ZM493.41 -38.807L312.41 120.718L313.59 122.332L494.59 -37.193L493.41 -38.807Z" fill="url(#paint1_linear_693_472)"/>
</g>
<g filter="url(#filter3_f_693_472)">
<path d="M658.59 -51.193C659.005 -51.5581 659.076 -52.2155 658.75 -52.6612C658.424 -53.1069 657.824 -53.1722 657.41 -52.807L658.59 -51.193ZM657.41 -52.807L476.41 106.718L477.59 108.332L658.59 -51.193L657.41 -52.807Z" fill="url(#paint2_linear_693_472)"/>
</g>
<path d="M658.59 -51.193C659.005 -51.5581 659.076 -52.2155 658.75 -52.6612C658.424 -53.1069 657.824 -53.1722 657.41 -52.807L658.59 -51.193ZM657.41 -52.807L476.41 106.718L477.59 108.332L658.59 -51.193L657.41 -52.807Z" fill="url(#paint3_linear_693_472)"/>
<g opacity="0.1">
<g filter="url(#filter4_f_693_472)">
<path d="M357.59 -36.193C358.005 -36.5581 358.076 -37.2155 357.75 -37.6612C357.424 -38.1069 356.824 -38.1722 356.41 -37.807L357.59 -36.193ZM356.41 -37.807L175.41 121.718L176.59 123.332L357.59 -36.193L356.41 -37.807Z" fill="url(#paint4_linear_693_472)"/>
</g>
<path d="M357.59 -36.193C358.005 -36.5581 358.076 -37.2155 357.75 -37.6612C357.424 -38.1069 356.824 -38.1722 356.41 -37.807L357.59 -36.193ZM356.41 -37.807L175.41 121.718L176.59 123.332L357.59 -36.193L356.41 -37.807Z" fill="url(#paint5_linear_693_472)"/>
</g>
<g opacity="0.5">
<g filter="url(#filter5_f_693_472)">
<path d="M780.59 91.807C781.005 91.4419 781.076 90.7845 780.75 90.3388C780.424 89.8931 779.824 89.8278 779.41 90.193L780.59 91.807ZM779.41 90.193L554.41 288.498L555.59 290.112L780.59 91.807L779.41 90.193Z" fill="url(#paint6_linear_693_472)"/>
</g>
<path d="M780.59 91.807C781.005 91.4419 781.076 90.7845 780.75 90.3388C780.424 89.8931 779.824 89.8278 779.41 90.193L780.59 91.807ZM779.41 90.193L554.41 288.498L555.59 290.112L780.59 91.807L779.41 90.193Z" fill="url(#paint7_linear_693_472)"/>
</g>
<g filter="url(#filter6_di_693_472)">
<path d="M609.883 67.2241H488.283C486.67 67.2241 485.124 66.5871 483.984 65.4534C482.844 64.3196 482.203 62.782 482.203 61.1786C482.203 59.5752 482.844 58.0376 483.984 56.9038C485.124 55.7701 486.67 55.1331 488.283 55.1331H591.643C593.255 55.1331 594.802 54.4962 595.942 53.3625C597.082 52.2287 597.723 50.691 597.723 49.0877C597.723 47.4843 597.082 45.9467 595.942 44.8129C594.802 43.6792 593.255 43.0422 591.643 43.0422H488.283C483.445 43.0422 478.806 44.953 475.385 48.3543C471.965 51.7555 470.043 56.3685 470.043 61.1786V157.906C470.043 162.716 471.965 167.329 475.385 170.73C478.806 174.131 483.445 176.042 488.283 176.042H609.883C613.108 176.042 616.201 174.768 618.481 172.501C620.762 170.233 622.043 167.158 622.043 163.951V79.315C622.043 76.1083 620.762 73.0329 618.481 70.7654C616.201 68.4979 613.108 67.2241 609.883 67.2241ZM582.523 127.679C580.719 127.679 578.956 127.147 577.456 126.15C575.956 125.154 574.787 123.738 574.097 122.081C573.407 120.424 573.226 118.6 573.578 116.841C573.93 115.082 574.799 113.466 576.074 112.198C577.35 110.93 578.975 110.066 580.744 109.716C582.513 109.367 584.347 109.546 586.013 110.233C587.679 110.919 589.104 112.081 590.106 113.572C591.108 115.064 591.643 116.817 591.643 118.61C591.643 121.015 590.682 123.322 588.972 125.023C587.261 126.723 584.942 127.679 582.523 127.679Z" fill="url(#paint8_linear_693_472)"/>
</g>
<g filter="url(#filter7_i_693_472)">
<path d="M503.91 122.721C503.758 122.636 503.573 122.636 503.421 122.721L499.975 124.651C499.535 124.898 499.048 124.411 499.294 123.97L501.224 120.524C501.309 120.372 501.309 120.187 501.224 120.035L499.294 116.589C499.048 116.149 499.535 115.662 499.975 115.908L503.421 117.838C503.573 117.923 503.758 117.923 503.91 117.838L507.356 115.908C507.797 115.662 508.284 116.149 508.037 116.589L506.107 120.035C506.022 120.187 506.022 120.372 506.107 120.524L508.037 123.97C508.284 124.411 507.797 124.898 507.356 124.651L503.91 122.721ZM528.561 142.978C528.713 143.063 528.898 143.063 529.05 142.978L532.496 141.048C532.937 140.802 533.423 141.289 533.177 141.729L531.247 145.175C531.162 145.327 531.162 145.512 531.247 145.664L533.177 149.11C533.423 149.551 532.937 150.037 532.496 149.791L529.05 147.861C528.898 147.776 528.713 147.776 528.561 147.861L525.115 149.791C524.674 150.037 524.188 149.551 524.434 149.11L526.364 145.664C526.449 145.512 526.449 145.327 526.364 145.175L524.434 141.729C524.188 141.289 524.674 140.802 525.115 141.048L528.561 142.978ZM532.496 115.908C532.937 115.662 533.423 116.149 533.177 116.589L531.247 120.035C531.162 120.187 531.162 120.372 531.247 120.524L533.177 123.97C533.423 124.411 532.937 124.898 532.496 124.651L529.05 122.721C528.898 122.636 528.713 122.636 528.561 122.721L525.115 124.651C524.674 124.898 524.188 124.411 524.434 123.97L526.364 120.524C526.449 120.372 526.449 120.187 526.364 120.035L524.434 116.589C524.188 116.149 524.674 115.662 525.115 115.908L528.561 117.838C528.713 117.923 528.898 117.923 529.05 117.838L532.496 115.908ZM515.547 137.273C515.742 137.468 516.059 137.468 516.254 137.273L520.659 132.868C520.854 132.673 520.854 132.356 520.659 132.161L516.924 128.427C516.729 128.231 516.412 128.231 516.217 128.427L511.813 132.831C511.617 133.027 511.617 133.343 511.813 133.538L515.547 137.273ZM518.058 126.125L522.96 131.027C523.778 131.802 523.778 133.164 522.96 133.981L498.512 158.429C497.695 159.246 496.333 159.246 495.558 158.429L490.656 153.527C489.839 152.752 489.839 151.39 490.656 150.573L515.104 126.125C515.921 125.308 517.283 125.308 518.058 126.125Z" fill="white" fill-opacity="0.4"/>
</g>
<path d="M517.877 126.297L517.877 126.297L517.881 126.302L522.784 131.204L522.784 131.204L522.788 131.208C523.499 131.882 523.506 133.082 522.784 133.804L498.335 158.253C497.613 158.975 496.413 158.968 495.739 158.257L495.739 158.257L495.735 158.253L490.833 153.35L490.833 153.35L490.828 153.346C490.117 152.672 490.11 151.472 490.833 150.75L515.281 126.302C516.003 125.579 517.203 125.586 517.877 126.297ZM504.032 122.503C503.804 122.375 503.527 122.375 503.299 122.503L499.853 124.433C499.633 124.556 499.389 124.313 499.512 124.093L501.442 120.646C501.57 120.418 501.57 120.141 501.442 119.913L499.512 116.467C499.389 116.247 499.633 116.003 499.853 116.127L503.299 118.057C503.527 118.184 503.804 118.184 504.032 118.057L507.479 116.127C507.699 116.003 507.942 116.247 507.819 116.467L505.889 119.913C505.761 120.141 505.761 120.418 505.889 120.646L507.819 124.093C507.942 124.313 507.699 124.556 507.479 124.433L504.032 122.503ZM528.439 143.196C528.667 143.324 528.944 143.324 529.172 143.196L532.618 141.266C532.839 141.143 533.082 141.387 532.959 141.607L531.029 145.053C530.901 145.281 530.901 145.558 531.029 145.786L532.959 149.232C533.082 149.453 532.839 149.696 532.618 149.573L529.172 147.643C528.944 147.515 528.667 147.515 528.439 147.643L524.993 149.573C524.772 149.696 524.529 149.453 524.652 149.232L526.582 145.786C526.71 145.558 526.71 145.281 526.582 145.053L524.652 141.607C524.529 141.387 524.772 141.143 524.993 141.266L528.439 143.196ZM532.618 116.127C532.839 116.003 533.082 116.247 532.959 116.467L531.029 119.913C530.901 120.141 530.901 120.418 531.029 120.646L532.959 124.093C533.082 124.313 532.839 124.556 532.618 124.433L529.172 122.503C528.944 122.375 528.667 122.375 528.439 122.503L524.993 124.433C524.772 124.556 524.529 124.313 524.652 124.093L526.582 120.646C526.71 120.418 526.71 120.141 526.582 119.913L524.652 116.467C524.529 116.247 524.772 116.003 524.993 116.127L528.439 118.057C528.667 118.184 528.944 118.184 529.172 118.057L532.618 116.127ZM515.37 137.449C515.663 137.742 516.138 137.742 516.431 137.449L520.835 133.045C521.128 132.752 521.128 132.277 520.835 131.984L517.101 128.25C516.808 127.957 516.333 127.957 516.04 128.25L511.636 132.655C511.343 132.947 511.343 133.422 511.636 133.715L515.37 137.449Z" stroke="white" stroke-opacity="0.06" stroke-width="0.5"/>
<g filter="url(#filter8_diii_693_472)">
<circle cx="630" cy="74" r="28" fill="white" fill-opacity="0.04" shape-rendering="crispEdges"/>
<circle cx="630" cy="74" r="27.5" stroke="white" stroke-opacity="0.04" shape-rendering="crispEdges"/>
</g>
<g filter="url(#filter9_f_693_472)">
<path fill-rule="evenodd" clip-rule="evenodd" d="M614.354 74.4721L640.993 69.245C641.327 69.1796 641.66 69.2618 641.96 69.4686L647.053 73.075C647.992 73.7469 647.71 75.2489 646.599 75.4669L619.96 80.694C619.627 80.7594 619.293 80.6772 618.993 80.4704L613.901 76.864C612.961 76.1922 613.243 74.6902 614.354 74.4721ZM612.311 68.7618L615.663 63.4984C615.835 63.1989 616.14 62.9914 616.474 62.926L643.085 57.7043C644.196 57.4863 645.025 58.7703 644.409 59.7473L641.084 65.0053C640.912 65.3048 640.607 65.5123 640.274 65.5777L613.635 70.8048C612.524 71.0228 611.695 69.7388 612.311 68.7618ZM648.609 81.1543L645.257 86.4177C645.057 86.7226 644.78 86.9247 644.446 86.9901L617.835 92.2118C616.724 92.4298 615.895 91.1458 616.511 90.1687L619.863 84.9053C620.035 84.6059 620.341 84.3983 620.674 84.3329L647.285 79.1113C648.396 78.8932 649.225 80.1773 648.609 81.1543Z" fill="url(#paint9_linear_693_472)" fill-opacity="0.6"/>
</g>
<path fill-rule="evenodd" clip-rule="evenodd" d="M615.257 74.1674L641.12 69.0924C641.444 69.0289 641.768 69.1087 642.059 69.3095L647.004 72.811C647.916 73.4633 647.642 74.9216 646.563 75.1333L620.699 80.2083C620.376 80.2718 620.052 80.192 619.761 79.9912L614.816 76.4897C613.904 75.8374 614.178 74.3791 615.257 74.1674ZM613.273 68.6232L616.527 63.513C616.694 63.2222 616.991 63.0207 617.314 62.9572L643.151 57.8875C644.23 57.6758 645.035 58.9225 644.436 59.8711L641.209 64.976C641.042 65.2668 640.745 65.4683 640.422 65.5318L614.558 70.6068C613.479 70.8185 612.675 69.5718 613.273 68.6232ZM648.515 80.6552L645.26 85.7654C645.066 86.0614 644.797 86.2577 644.473 86.3212L618.637 91.3909C617.558 91.6026 616.753 90.3559 617.351 89.4073L620.605 84.297C620.772 84.0063 621.069 83.8048 621.393 83.7413L647.229 78.6716C648.308 78.4599 649.113 79.7065 648.515 80.6552Z" fill="url(#paint10_linear_693_472)"/>
<g filter="url(#filter10_diii_693_472)">
<circle cx="449" cy="70" r="28" transform="rotate(-37.0168 449 70)" fill="white" fill-opacity="0.04" shape-rendering="crispEdges"/>
<circle cx="449" cy="70" r="27.5" transform="rotate(-37.0168 449 70)" stroke="white" stroke-opacity="0.04" shape-rendering="crispEdges"/>
</g>
<g filter="url(#filter11_di_693_472)">
<path d="M441.801 52.8153L438.382 74.7089L451.475 76.7398L459.477 66.1789L441.801 52.8153ZM439.231 76.8075L455.718 87.233L460.325 68.2775L452.324 78.8384L439.231 76.8075Z" fill="#00C2FF"/>
</g>
<g filter="url(#filter12_diii_693_472)">
<circle cx="568" cy="187" r="28" fill="white" fill-opacity="0.04" shape-rendering="crispEdges"/>
<circle cx="568" cy="187" r="27.5" stroke="white" stroke-opacity="0.04" shape-rendering="crispEdges"/>
</g>
<g filter="url(#filter13_di_693_472)">
<path d="M570.392 182.06C571.11 184.57 567.052 185.427 565.817 185.739L564.564 181.321C565.844 181.006 569.63 179.434 570.392 182.06ZM566.484 187.996L567.884 192.872C569.387 192.452 574.183 191.405 573.396 188.652C572.582 185.772 567.976 187.559 566.484 187.996ZM587.53 181.27C590.634 192.12 584.376 203.422 573.526 206.526C562.676 209.629 551.379 203.368 548.27 192.521C547.531 189.943 547.306 187.245 547.61 184.58C547.914 181.916 548.74 179.337 550.04 176.992C551.341 174.647 553.091 172.581 555.19 170.912C557.289 169.243 559.696 168.003 562.274 167.265C573.107 164.171 584.409 170.43 587.53 181.27ZM567.775 177.651L566.733 174.007L564.532 174.688L565.52 178.198C564.936 178.37 564.351 178.543 563.759 178.743L562.73 175.163L560.536 175.816L561.568 179.442C561.083 179.581 560.607 179.738 560.157 179.856L557.097 180.726L557.762 183.102C557.762 183.102 559.406 182.601 559.381 182.639C560.289 182.374 560.717 182.787 560.937 183.25L563.796 193.227C563.851 193.526 563.751 194.008 563.187 194.215C563.215 194.223 561.568 194.679 561.568 194.679L561.889 197.441L564.769 196.628C565.318 196.476 565.849 196.334 566.371 196.175L567.416 199.864L569.647 199.236L568.595 195.575C569.207 195.41 569.792 195.238 570.369 195.093L571.401 198.719L573.633 198.091L572.588 194.402C576.218 193.131 578.587 191.433 577.887 187.852C577.392 184.953 575.691 184.048 573.401 184.167C574.481 183.096 574.976 181.749 574.241 179.862C573.236 177.305 570.707 177.091 567.775 177.651Z" fill="#FCC42B"/>
</g>
</g>
<rect x="8.5" y="8.5" width="659" height="277" rx="15.5" stroke="white" stroke-opacity="0.24" shape-rendering="crispEdges"/>
</g>
<defs>
<filter id="filter0_d_693_472" x="0" y="0" width="676" height="294" filterUnits="userSpaceOnUse" color-interpolation-filters="sRGB">
<feFlood flood-opacity="0" result="BackgroundImageFix"/>
<feColorMatrix in="SourceAlpha" type="matrix" values="0 0 0 0 0 0 0 0 0 0 0 0 0 0 0 0 0 0 127 0" result="hardAlpha"/>
<feOffset/>
<feGaussianBlur stdDeviation="4"/>
<feComposite in2="hardAlpha" operator="out"/>
<feColorMatrix type="matrix" values="0 0 0 0 1 0 0 0 0 1 0 0 0 0 1 0 0 0 0.12 0"/>
<feBlend mode="normal" in2="BackgroundImageFix" result="effect1_dropShadow_693_472"/>
<feBlend mode="normal" in="SourceGraphic" in2="effect1_dropShadow_693_472" result="shape"/>
</filter>
<filter id="filter1_f_693_472" x="-779.7" y="-779.7" width="1575.4" height="1575.4" filterUnits="userSpaceOnUse" color-interpolation-filters="sRGB">
<feFlood flood-opacity="0" result="BackgroundImageFix"/>
<feBlend mode="normal" in="SourceGraphic" in2="BackgroundImageFix" result="shape"/>
<feGaussianBlur stdDeviation="285.35" result="effect1_foregroundBlur_693_472"/>
</filter>
<filter id="filter2_f_693_472" x="306.409" y="-45.0435" width="194.545" height="173.376" filterUnits="userSpaceOnUse" color-interpolation-filters="sRGB">
<feFlood flood-opacity="0" result="BackgroundImageFix"/>
<feBlend mode="normal" in="SourceGraphic" in2="BackgroundImageFix" result="shape"/>
<feGaussianBlur stdDeviation="3" result="effect1_foregroundBlur_693_472"/>
</filter>
<filter id="filter3_f_693_472" x="470.409" y="-59.0435" width="194.545" height="173.376" filterUnits="userSpaceOnUse" color-interpolation-filters="sRGB">
<feFlood flood-opacity="0" result="BackgroundImageFix"/>
<feBlend mode="normal" in="SourceGraphic" in2="BackgroundImageFix" result="shape"/>
<feGaussianBlur stdDeviation="3" result="effect1_foregroundBlur_693_472"/>
</filter>
<filter id="filter4_f_693_472" x="169.409" y="-44.0435" width="194.545" height="173.376" filterUnits="userSpaceOnUse" color-interpolation-filters="sRGB">
<feFlood flood-opacity="0" result="BackgroundImageFix"/>
<feBlend mode="normal" in="SourceGraphic" in2="BackgroundImageFix" result="shape"/>
<feGaussianBlur stdDeviation="3" result="effect1_foregroundBlur_693_472"/>
</filter>
<filter id="filter5_f_693_472" x="548.409" y="83.9565" width="238.545" height="212.156" filterUnits="userSpaceOnUse" color-interpolation-filters="sRGB">
<feFlood flood-opacity="0" result="BackgroundImageFix"/>
<feBlend mode="normal" in="SourceGraphic" in2="BackgroundImageFix" result="shape"/>
<feGaussianBlur stdDeviation="3" result="effect1_foregroundBlur_693_472"/>
</filter>
<filter id="filter6_di_693_472" x="465.043" y="38.0422" width="162" height="143" filterUnits="userSpaceOnUse" color-interpolation-filters="sRGB">
<feFlood flood-opacity="0" result="BackgroundImageFix"/>
<feColorMatrix in="SourceAlpha" type="matrix" values="0 0 0 0 0 0 0 0 0 0 0 0 0 0 0 0 0 0 127 0" result="hardAlpha"/>
<feOffset/>
<feGaussianBlur stdDeviation="2.5"/>
<feComposite in2="hardAlpha" operator="out"/>
<feColorMatrix type="matrix" values="0 0 0 0 0 0 0 0 0 0 0 0 0 0 0 0 0 0 0.08 0"/>
<feBlend mode="normal" in2="BackgroundImageFix" result="effect1_dropShadow_693_472"/>
<feBlend mode="normal" in="SourceGraphic" in2="effect1_dropShadow_693_472" result="shape"/>
<feColorMatrix in="SourceAlpha" type="matrix" values="0 0 0 0 0 0 0 0 0 0 0 0 0 0 0 0 0 0 127 0" result="hardAlpha"/>
<feOffset/>
<feGaussianBlur stdDeviation="6"/>
<feComposite in2="hardAlpha" operator="arithmetic" k2="-1" k3="1"/>
<feColorMatrix type="matrix" values="0 0 0 0 1 0 0 0 0 1 0 0 0 0 1 0 0 0 0.2 0"/>
<feBlend mode="normal" in2="shape" result="effect2_innerShadow_693_472"/>
</filter>
<filter id="filter7_i_693_472" x="490.043" y="115.842" width="43.2004" height="43.2004" filterUnits="userSpaceOnUse" color-interpolation-filters="sRGB">
<feFlood flood-opacity="0" result="BackgroundImageFix"/>
<feBlend mode="normal" in="SourceGraphic" in2="BackgroundImageFix" result="shape"/>
<feColorMatrix in="SourceAlpha" type="matrix" values="0 0 0 0 0 0 0 0 0 0 0 0 0 0 0 0 0 0 127 0" result="hardAlpha"/>
<feOffset/>
<feGaussianBlur stdDeviation="6"/>
<feComposite in2="hardAlpha" operator="arithmetic" k2="-1" k3="1"/>
<feColorMatrix type="matrix" values="0 0 0 0 1 0 0 0 0 1 0 0 0 0 1 0 0 0 0.08 0"/>
<feBlend mode="normal" in2="shape" result="effect1_innerShadow_693_472"/>
</filter>
<filter id="filter8_diii_693_472" x="574" y="18" width="112" height="112" filterUnits="userSpaceOnUse" color-interpolation-filters="sRGB">
<feFlood flood-opacity="0" result="BackgroundImageFix"/>
<feColorMatrix in="SourceAlpha" type="matrix" values="0 0 0 0 0 0 0 0 0 0 0 0 0 0 0 0 0 0 127 0" result="hardAlpha"/>
<feOffset/>
<feGaussianBlur stdDeviation="14"/>
<feComposite in2="hardAlpha" operator="out"/>
<feColorMatrix type="matrix" values="0 0 0 0 1 0 0 0 0 1 0 0 0 0 1 0 0 0 0.02 0"/>
<feBlend mode="normal" in2="BackgroundImageFix" result="effect1_dropShadow_693_472"/>
<feBlend mode="normal" in="SourceGraphic" in2="effect1_dropShadow_693_472" result="shape"/>
<feColorMatrix in="SourceAlpha" type="matrix" values="0 0 0 0 0 0 0 0 0 0 0 0 0 0 0 0 0 0 127 0" result="hardAlpha"/>
<feOffset dy="2"/>
<feGaussianBlur stdDeviation="3.5"/>
<feComposite in2="hardAlpha" operator="arithmetic" k2="-1" k3="1"/>
<feColorMatrix type="matrix" values="0 0 0 0 0 0 0 0 0 0 0 0 0 0 0 0 0 0 0.12 0"/>
<feBlend mode="normal" in2="shape" result="effect2_innerShadow_693_472"/>
<feColorMatrix in="SourceAlpha" type="matrix" values="0 0 0 0 0 0 0 0 0 0 0 0 0 0 0 0 0 0 127 0" result="hardAlpha"/>
<feOffset dy="-1"/>
<feGaussianBlur stdDeviation="1.15"/>
<feComposite in2="hardAlpha" operator="arithmetic" k2="-1" k3="1"/>
<feColorMatrix type="matrix" values="0 0 0 0 1 0 0 0 0 1 0 0 0 0 1 0 0 0 0.06 0"/>
<feBlend mode="normal" in2="effect2_innerShadow_693_472" result="effect3_innerShadow_693_472"/>
<feColorMatrix in="SourceAlpha" type="matrix" values="0 0 0 0 0 0 0 0 0 0 0 0 0 0 0 0 0 0 127 0" result="hardAlpha"/>
<feOffset/>
<feGaussianBlur stdDeviation="0.5"/>
<feComposite in2="hardAlpha" operator="arithmetic" k2="-1" k3="1"/>
<feColorMatrix type="matrix" values="0 0 0 0 1 0 0 0 0 1 0 0 0 0 1 0 0 0 0.16 0"/>
<feBlend mode="normal" in2="effect3_innerShadow_693_472" result="effect4_innerShadow_693_472"/>
</filter>
<filter id="filter9_f_693_472" x="604.101" y="49.6799" width="52.7183" height="50.5564" filterUnits="userSpaceOnUse" color-interpolation-filters="sRGB">
<feFlood flood-opacity="0" result="BackgroundImageFix"/>
<feBlend mode="normal" in="SourceGraphic" in2="BackgroundImageFix" result="shape"/>
<feGaussianBlur stdDeviation="4" result="effect1_foregroundBlur_693_472"/>
</filter>
<filter id="filter10_diii_693_472" x="392.998" y="13.9983" width="112.003" height="112.003" filterUnits="userSpaceOnUse" color-interpolation-filters="sRGB">
<feFlood flood-opacity="0" result="BackgroundImageFix"/>
<feColorMatrix in="SourceAlpha" type="matrix" values="0 0 0 0 0 0 0 0 0 0 0 0 0 0 0 0 0 0 127 0" result="hardAlpha"/>
<feOffset/>
<feGaussianBlur stdDeviation="14"/>
<feComposite in2="hardAlpha" operator="out"/>
<feColorMatrix type="matrix" values="0 0 0 0 1 0 0 0 0 1 0 0 0 0 1 0 0 0 0.02 0"/>
<feBlend mode="normal" in2="BackgroundImageFix" result="effect1_dropShadow_693_472"/>
<feBlend mode="normal" in="SourceGraphic" in2="effect1_dropShadow_693_472" result="shape"/>
<feColorMatrix in="SourceAlpha" type="matrix" values="0 0 0 0 0 0 0 0 0 0 0 0 0 0 0 0 0 0 127 0" result="hardAlpha"/>
<feOffset dy="2"/>
<feGaussianBlur stdDeviation="3.5"/>
<feComposite in2="hardAlpha" operator="arithmetic" k2="-1" k3="1"/>
<feColorMatrix type="matrix" values="0 0 0 0 0 0 0 0 0 0 0 0 0 0 0 0 0 0 0.12 0"/>
<feBlend mode="normal" in2="shape" result="effect2_innerShadow_693_472"/>
<feColorMatrix in="SourceAlpha" type="matrix" values="0 0 0 0 0 0 0 0 0 0 0 0 0 0 0 0 0 0 127 0" result="hardAlpha"/>
<feOffset dy="-1"/>
<feGaussianBlur stdDeviation="1.15"/>
<feComposite in2="hardAlpha" operator="arithmetic" k2="-1" k3="1"/>
<feColorMatrix type="matrix" values="0 0 0 0 1 0 0 0 0 1 0 0 0 0 1 0 0 0 0.06 0"/>
<feBlend mode="normal" in2="effect2_innerShadow_693_472" result="effect3_innerShadow_693_472"/>
<feColorMatrix in="SourceAlpha" type="matrix" values="0 0 0 0 0 0 0 0 0 0 0 0 0 0 0 0 0 0 127 0" result="hardAlpha"/>
<feOffset/>
<feGaussianBlur stdDeviation="0.5"/>
<feComposite in2="hardAlpha" operator="arithmetic" k2="-1" k3="1"/>
<feColorMatrix type="matrix" values="0 0 0 0 1 0 0 0 0 1 0 0 0 0 1 0 0 0 0.16 0"/>
<feBlend mode="normal" in2="effect3_innerShadow_693_472" result="effect4_innerShadow_693_472"/>
</filter>
<filter id="filter11_di_693_472" x="427.882" y="42.3154" width="42.9434" height="55.4175" filterUnits="userSpaceOnUse" color-interpolation-filters="sRGB">
<feFlood flood-opacity="0" result="BackgroundImageFix"/>
<feColorMatrix in="SourceAlpha" type="matrix" values="0 0 0 0 0 0 0 0 0 0 0 0 0 0 0 0 0 0 127 0" result="hardAlpha"/>
<feOffset/>
<feGaussianBlur stdDeviation="5.25"/>
<feComposite in2="hardAlpha" operator="out"/>
<feColorMatrix type="matrix" values="0 0 0 0 0 0 0 0 0 0.760784 0 0 0 0 1 0 0 0 0.5 0"/>
<feBlend mode="normal" in2="BackgroundImageFix" result="effect1_dropShadow_693_472"/>
<feBlend mode="normal" in="SourceGraphic" in2="effect1_dropShadow_693_472" result="shape"/>
<feColorMatrix in="SourceAlpha" type="matrix" values="0 0 0 0 0 0 0 0 0 0 0 0 0 0 0 0 0 0 127 0" result="hardAlpha"/>
<feOffset/>
<feGaussianBlur stdDeviation="1"/>
<feComposite in2="hardAlpha" operator="arithmetic" k2="-1" k3="1"/>
<feColorMatrix type="matrix" values="0 0 0 0 1 0 0 0 0 1 0 0 0 0 1 0 0 0 0.4 0"/>
<feBlend mode="normal" in2="shape" result="effect2_innerShadow_693_472"/>
</filter>
<filter id="filter12_diii_693_472" x="512" y="131" width="112" height="112" filterUnits="userSpaceOnUse" color-interpolation-filters="sRGB">
<feFlood flood-opacity="0" result="BackgroundImageFix"/>
<feColorMatrix in="SourceAlpha" type="matrix" values="0 0 0 0 0 0 0 0 0 0 0 0 0 0 0 0 0 0 127 0" result="hardAlpha"/>
<feOffset/>
<feGaussianBlur stdDeviation="14"/>
<feComposite in2="hardAlpha" operator="out"/>
<feColorMatrix type="matrix" values="0 0 0 0 1 0 0 0 0 1 0 0 0 0 1 0 0 0 0.02 0"/>
<feBlend mode="normal" in2="BackgroundImageFix" result="effect1_dropShadow_693_472"/>
<feBlend mode="normal" in="SourceGraphic" in2="effect1_dropShadow_693_472" result="shape"/>
<feColorMatrix in="SourceAlpha" type="matrix" values="0 0 0 0 0 0 0 0 0 0 0 0 0 0 0 0 0 0 127 0" result="hardAlpha"/>
<feOffset dy="2"/>
<feGaussianBlur stdDeviation="3.5"/>
<feComposite in2="hardAlpha" operator="arithmetic" k2="-1" k3="1"/>
<feColorMatrix type="matrix" values="0 0 0 0 0 0 0 0 0 0 0 0 0 0 0 0 0 0 0.12 0"/>
<feBlend mode="normal" in2="shape" result="effect2_innerShadow_693_472"/>
<feColorMatrix in="SourceAlpha" type="matrix" values="0 0 0 0 0 0 0 0 0 0 0 0 0 0 0 0 0 0 127 0" result="hardAlpha"/>
<feOffset dy="-1"/>
<feGaussianBlur stdDeviation="1.15"/>
<feComposite in2="hardAlpha" operator="arithmetic" k2="-1" k3="1"/>
<feColorMatrix type="matrix" values="0 0 0 0 1 0 0 0 0 1 0 0 0 0 1 0 0 0 0.06 0"/>
<feBlend mode="normal" in2="effect2_innerShadow_693_472" result="effect3_innerShadow_693_472"/>
<feColorMatrix in="SourceAlpha" type="matrix" values="0 0 0 0 0 0 0 0 0 0 0 0 0 0 0 0 0 0 127 0" result="hardAlpha"/>
<feOffset/>
<feGaussianBlur stdDeviation="0.5"/>
<feComposite in2="hardAlpha" operator="arithmetic" k2="-1" k3="1"/>
<feColorMatrix type="matrix" values="0 0 0 0 1 0 0 0 0 1 0 0 0 0 1 0 0 0 0.16 0"/>
<feBlend mode="normal" in2="effect3_innerShadow_693_472" result="effect4_innerShadow_693_472"/>
</filter>
<filter id="filter13_di_693_472" x="536.979" y="155.974" width="61.8467" height="61.8459" filterUnits="userSpaceOnUse" color-interpolation-filters="sRGB">
<feFlood flood-opacity="0" result="BackgroundImageFix"/>
<feColorMatrix in="SourceAlpha" type="matrix" values="0 0 0 0 0 0 0 0 0 0 0 0 0 0 0 0 0 0 127 0" result="hardAlpha"/>
<feOffset/>
<feGaussianBlur stdDeviation="5.25"/>
<feComposite in2="hardAlpha" operator="out"/>
<feColorMatrix type="matrix" values="0 0 0 0 0.988235 0 0 0 0 0.768627 0 0 0 0 0.168627 0 0 0 0.5 0"/>
<feBlend mode="normal" in2="BackgroundImageFix" result="effect1_dropShadow_693_472"/>
<feBlend mode="normal" in="SourceGraphic" in2="effect1_dropShadow_693_472" result="shape"/>
<feColorMatrix in="SourceAlpha" type="matrix" values="0 0 0 0 0 0 0 0 0 0 0 0 0 0 0 0 0 0 127 0" result="hardAlpha"/>
<feOffset/>
<feGaussianBlur stdDeviation="1"/>
<feComposite in2="hardAlpha" operator="arithmetic" k2="-1" k3="1"/>
<feColorMatrix type="matrix" values="0 0 0 0 1 0 0 0 0 1 0 0 0 0 1 0 0 0 0.4 0"/>
<feBlend mode="normal" in2="shape" result="effect2_innerShadow_693_472"/>
</filter>
<linearGradient id="paint0_linear_693_472" x1="471.67" y1="-19.9311" x2="306.471" y2="120.737" gradientUnits="userSpaceOnUse">
<stop stop-color="white" stop-opacity="0.27"/>
<stop offset="0.771564" stop-color="white" stop-opacity="0"/>
</linearGradient>
<linearGradient id="paint1_linear_693_472" x1="471.67" y1="-19.9311" x2="306.471" y2="120.737" gradientUnits="userSpaceOnUse">
<stop stop-color="white" stop-opacity="0.27"/>
<stop offset="0.771564" stop-color="white" stop-opacity="0"/>
</linearGradient>
<linearGradient id="paint2_linear_693_472" x1="635.67" y1="-33.9311" x2="470.471" y2="106.737" gradientUnits="userSpaceOnUse">
<stop stop-color="white" stop-opacity="0.27"/>
<stop offset="0.771564" stop-color="white" stop-opacity="0"/>
</linearGradient>
<linearGradient id="paint3_linear_693_472" x1="635.67" y1="-33.9311" x2="470.471" y2="106.737" gradientUnits="userSpaceOnUse">
<stop stop-color="white" stop-opacity="0.27"/>
<stop offset="0.771564" stop-color="white" stop-opacity="0"/>
</linearGradient>
<linearGradient id="paint4_linear_693_472" x1="334.67" y1="-18.9311" x2="169.471" y2="121.737" gradientUnits="userSpaceOnUse">
<stop stop-color="white" stop-opacity="0.27"/>
<stop offset="0.771564" stop-color="white" stop-opacity="0"/>
</linearGradient>
<linearGradient id="paint5_linear_693_472" x1="334.67" y1="-18.9311" x2="169.471" y2="121.737" gradientUnits="userSpaceOnUse">
<stop stop-color="white" stop-opacity="0.27"/>
<stop offset="0.771564" stop-color="white" stop-opacity="0"/>
</linearGradient>
<linearGradient id="paint6_linear_693_472" x1="752.416" y1="113.7" x2="550.205" y2="292.252" gradientUnits="userSpaceOnUse">
<stop stop-color="white" stop-opacity="0.27"/>
<stop offset="0.771564" stop-color="white" stop-opacity="0"/>
</linearGradient>
<linearGradient id="paint7_linear_693_472" x1="752.416" y1="113.7" x2="550.205" y2="292.252" gradientUnits="userSpaceOnUse">
<stop stop-color="white" stop-opacity="0.27"/>
<stop offset="0.771564" stop-color="white" stop-opacity="0"/>
</linearGradient>
<linearGradient id="paint8_linear_693_472" x1="393.543" y1="-3.45776" x2="599.389" y2="178.63" gradientUnits="userSpaceOnUse">
<stop stop-color="#B27EF4"/>
<stop offset="1" stop-color="#461683"/>
</linearGradient>
<linearGradient id="paint9_linear_693_472" x1="643" y1="57.4534" x2="618.5" y2="92.4534" gradientUnits="userSpaceOnUse">
<stop offset="0.07" stop-color="#0EDA9B"/>
<stop offset="0.355" stop-color="#4C9AB4"/>
<stop offset="0.58" stop-color="#7D67C9"/>
<stop offset="0.875" stop-color="#BA2DE1"/>
</linearGradient>
<linearGradient id="paint10_linear_693_472" x1="643.069" y1="57.6439" x2="619.282" y2="91.6254" gradientUnits="userSpaceOnUse">
<stop offset="0.07" stop-color="#0EDA9B"/>
<stop offset="0.355" stop-color="#4C9AB4"/>
<stop offset="0.58" stop-color="#7D67C9"/>
<stop offset="0.875" stop-color="#BA2DE1"/>
</linearGradient>
<clipPath id="clip0_693_472">
<rect x="8" y="8" width="660" height="278" rx="16" fill="white"/>
</clipPath>
</defs>
</svg>
