<svg width="89" height="90" viewBox="0 0 89 90" fill="none" xmlns="http://www.w3.org/2000/svg">
<path d="M44.6026 0.960938C35.8446 0.960938 27.2832 3.55799 20.0012 8.42367C12.7192 13.2894 7.04356 20.2051 3.69202 28.2965C0.340475 36.3878 -0.536441 45.2913 1.17216 53.881C2.88076 62.4708 7.09814 70.3609 13.291 76.5538C19.4838 82.7466 27.374 86.964 35.9637 88.6726C44.5534 90.3812 53.4569 89.5043 61.5483 86.1527C69.6396 82.8012 76.5554 77.1255 81.4211 69.8435C86.2868 62.5615 88.8838 54.0002 88.8838 45.2422C88.8714 33.5019 84.2021 22.246 75.9004 13.9443C67.5988 5.64265 56.3429 0.973335 44.6026 0.960938ZM15.6494 21.4708C20.4301 27.2582 23.3443 34.3587 24.0075 41.8359H7.29135C7.9635 34.3609 10.8766 27.2629 15.6494 21.4708ZM48.0088 41.8359V7.93098C55.6451 8.62285 62.8825 11.6514 68.7358 16.6041C62.6824 23.698 59.0464 32.536 58.3553 41.8359H48.0088ZM41.1963 41.8359H30.8498C30.1587 32.536 26.5227 23.698 20.4693 16.6041C26.3226 11.6514 33.5601 8.62285 41.1963 7.93098V41.8359ZM24.0075 48.6484C23.3443 56.1256 20.4301 63.2262 15.6494 69.0136C10.8766 63.2215 7.9635 56.1235 7.29135 48.6484H24.0075ZM30.8498 48.6484H41.1963V82.5534C33.5601 81.8615 26.3226 78.833 20.4693 73.8802C26.5217 66.7857 30.1575 57.9481 30.8498 48.6484ZM48.0088 48.6484H58.3553C59.0476 57.9481 62.6835 66.7857 68.7358 73.8802C62.8825 78.833 55.6451 81.8615 48.0088 82.5534V48.6484ZM65.1976 48.6484H81.9138C81.2416 56.1235 78.3285 63.2215 73.5557 69.0136C68.775 63.2262 65.8609 56.1256 65.1976 48.6484ZM65.1976 41.8359C65.8609 34.3587 68.775 27.2582 73.5557 21.4708C78.3285 27.2629 81.2416 34.3609 81.9138 41.8359H65.1976Z" fill="#FF2424"/>
</svg>
