<svg width="37" height="28" viewBox="0 0 37 28" fill="none" xmlns="http://www.w3.org/2000/svg">
<path d="M8.75931 27.3271V13.5993L4.47971 9.70437L0.64209 7.54297V24.9045C0.64209 26.245 1.73379 27.3271 3.07731 27.3271H8.75931Z" fill="#4285F4"/>
<path d="M28.2405 27.3275H33.9225C35.27 27.3275 36.3577 26.2413 36.3577 24.9049V7.54346L32.011 10.0191L28.2405 13.5996V27.3275Z" fill="#34A853"/>
<path d="M8.75933 13.5997L8.177 8.23581L8.75933 3.10205L18.4999 10.3697L28.2406 3.10205L28.892 7.95864L28.2406 13.5997L18.4999 20.8674L8.75933 13.5997Z" fill="#EA4335"/>
<path d="M28.2405 3.10173V13.5994L36.3577 7.54305V4.31296C36.3577 1.31715 32.9201 -0.390683 30.5134 1.40597L28.2405 3.10173Z" fill="#FBBC04"/>
<path d="M0.64209 7.54312L4.37535 10.3287L8.75931 13.5994V3.10179L6.48634 1.40604C4.07554 -0.390759 0.64209 1.31721 0.64209 4.31288V7.54312Z" fill="#C5221F"/>
</svg>
