<svg width="90" height="97" viewBox="0 0 90 97" fill="none" xmlns="http://www.w3.org/2000/svg">
<path d="M81.8379 7.74219H70.6816V4.02344C70.6816 3.03716 70.2898 2.09128 69.5924 1.39388C68.895 0.696483 67.9492 0.304688 66.9629 0.304688C65.9766 0.304688 65.0307 0.696483 64.3333 1.39388C63.6359 2.09128 63.2441 3.03716 63.2441 4.02344V7.74219H26.0566V4.02344C26.0566 3.03716 25.6648 2.09128 24.9674 1.39388C24.27 0.696483 23.3242 0.304688 22.3379 0.304688C21.3516 0.304688 20.4057 0.696483 19.7083 1.39388C19.0109 2.09128 18.6191 3.03716 18.6191 4.02344V7.74219H7.46289C5.49034 7.74219 3.59859 8.52578 2.20378 9.92058C0.808982 11.3154 0.0253906 13.2071 0.0253906 15.1797V89.5547C0.0253906 91.5272 0.808982 93.419 2.20378 94.8138C3.59859 96.2086 5.49034 96.9922 7.46289 96.9922H81.8379C83.8104 96.9922 85.7022 96.2086 87.097 94.8138C88.4918 93.419 89.2754 91.5272 89.2754 89.5547V15.1797C89.2754 13.2071 88.4918 11.3154 87.097 9.92058C85.7022 8.52578 83.8104 7.74219 81.8379 7.74219ZM18.6191 15.1797V18.8984C18.6191 19.8847 19.0109 20.8306 19.7083 21.528C20.4057 22.2254 21.3516 22.6172 22.3379 22.6172C23.3242 22.6172 24.27 22.2254 24.9674 21.528C25.6648 20.8306 26.0566 19.8847 26.0566 18.8984V15.1797H63.2441V18.8984C63.2441 19.8847 63.6359 20.8306 64.3333 21.528C65.0307 22.2254 65.9766 22.6172 66.9629 22.6172C67.9492 22.6172 68.895 22.2254 69.5924 21.528C70.2898 20.8306 70.6816 19.8847 70.6816 18.8984V15.1797H81.8379V30.0547H7.46289V15.1797H18.6191ZM81.8379 89.5547H7.46289V37.4922H81.8379V89.5547ZM37.2129 48.6484V78.3984C37.2129 79.3847 36.8211 80.3306 36.1237 81.028C35.4263 81.7254 34.4804 82.1172 33.4941 82.1172C32.5079 82.1172 31.562 81.7254 30.8646 81.028C30.1672 80.3306 29.7754 79.3847 29.7754 78.3984V54.6635L27.7208 55.6955C26.8381 56.1368 25.8162 56.2094 24.8799 55.8974C23.9437 55.5853 23.1697 54.914 22.7284 54.0313C22.287 53.1486 22.2144 52.1267 22.5265 51.1905C22.8386 50.2542 23.5098 49.4803 24.3925 49.0389L31.83 45.3202C32.3972 45.0363 33.0275 44.9023 33.6611 44.9308C34.2946 44.9592 34.9104 45.1493 35.4498 45.4828C35.9893 45.8163 36.4344 46.2823 36.743 46.8364C37.0516 47.3904 37.2133 48.0142 37.2129 48.6484ZM64.7131 62.8029L55.8066 74.6797H63.2441C64.2304 74.6797 65.1763 75.0715 65.8737 75.7689C66.5711 76.4663 66.9629 77.4122 66.9629 78.3984C66.9629 79.3847 66.5711 80.3306 65.8737 81.028C65.1763 81.7254 64.2304 82.1172 63.2441 82.1172H48.3691C47.6785 82.1172 47.0015 81.9249 46.4141 81.5618C45.8266 81.1987 45.3518 80.6792 45.043 80.0615C44.7341 79.4438 44.6034 78.7523 44.6654 78.0645C44.7274 77.3766 44.9798 76.7197 45.3941 76.1672L58.7723 58.3311C59.0766 57.926 59.2949 57.463 59.4139 56.9705C59.5328 56.478 59.5498 55.9664 59.4639 55.467C59.378 54.9677 59.1909 54.4912 58.9142 54.0668C58.6375 53.6424 58.277 53.2789 57.8548 52.9988C57.4326 52.7188 56.9576 52.5279 56.459 52.438C55.9604 52.348 55.4486 52.361 54.9552 52.4759C54.4617 52.5909 53.997 52.8055 53.5895 53.1065C53.1819 53.4076 52.8402 53.7887 52.5853 54.2266C52.3483 54.663 52.0263 55.0475 51.6383 55.3574C51.2503 55.6674 50.8042 55.8965 50.3262 56.0312C49.8483 56.166 49.3482 56.2036 48.8554 56.1419C48.3627 56.0803 47.8872 55.9205 47.4572 55.6721C47.0272 55.4238 46.6513 55.0918 46.3517 54.6957C46.0521 54.2997 45.8348 53.8477 45.7127 53.3664C45.5906 52.885 45.5661 52.3841 45.6407 51.8931C45.7154 51.4022 45.8876 50.9311 46.1472 50.5078C47.3756 48.382 49.271 46.7208 51.5394 45.7817C53.8079 44.8426 56.3229 44.6781 58.6944 45.3136C61.0659 45.9491 63.1615 47.3492 64.6564 49.2968C66.1514 51.2444 66.9621 53.6307 66.9629 56.0859C66.9708 58.5112 66.1801 60.8717 64.7131 62.8029Z" fill="#F8C33B"/>
</svg>
