<svg width="112" height="112" viewBox="0 0 112 112" fill="none" xmlns="http://www.w3.org/2000/svg">
<g clip-path="url(#clip0_1129_61)">
<path d="M110.722 47.6559L99.6569 25.5166C99.2493 24.7017 98.6851 23.9752 97.9966 23.3783C97.3082 22.7815 96.5089 22.3262 95.6444 22.0383C94.7799 21.7504 93.8672 21.6356 92.9584 21.7005C92.0496 21.7654 91.1624 22.0086 90.3476 22.4164L79.5642 27.806L56.8482 21.7964C56.2653 21.6447 55.6533 21.6447 55.0704 21.7964L32.3545 27.806L21.571 22.4164C20.7562 22.0086 19.869 21.7654 18.9602 21.7005C18.0514 21.6356 17.1387 21.7504 16.2742 22.0383C15.4098 22.3262 14.6105 22.7815 13.922 23.3783C13.2335 23.9752 12.6694 24.7017 12.2617 25.5166L1.19642 47.6516C0.788654 48.4664 0.545383 49.3535 0.480502 50.2623C0.415621 51.1712 0.530401 52.0839 0.818288 52.9483C1.10617 53.8128 1.56153 54.6121 2.15834 55.3006C2.75516 55.989 3.48175 56.5532 4.29662 56.9608L16.0036 62.8187L40.0638 80.002C40.4185 80.2539 40.8169 80.4377 41.2388 80.544L68.9888 87.4815C69.5699 87.6272 70.1789 87.62 70.7564 87.4604C71.3339 87.3008 71.8602 86.9944 72.2841 86.5709L96.1621 62.6886L107.618 56.9608C109.262 56.1376 110.513 54.695 111.094 52.9501C111.675 51.2053 111.54 49.301 110.718 47.6559H110.722ZM86.9222 62.1249L72.0023 50.1751C71.3339 49.6398 70.4911 49.3707 69.6362 49.4195C68.7812 49.4683 67.9746 49.8317 67.3715 50.4396C59.6492 58.2183 51.0424 57.234 45.5531 53.7652L64.3017 35.5543H78.0943L89.8924 59.1461L86.9222 62.1249ZM18.4665 28.6168L27.3421 33.0481L16.2551 55.1831L7.39681 50.7561L18.4665 28.6168ZM68.7633 80.2708L43.5672 73.975L22.2344 58.7386L34.375 34.4573L55.9593 28.7382L60.2085 29.8612L40.6968 48.8006L40.6621 48.8396C39.9276 49.5741 39.3675 50.4641 39.0229 51.444C38.6784 52.4239 38.5583 53.4687 38.6715 54.5012C38.7847 55.5338 39.1283 56.5277 39.677 57.4097C40.2256 58.2917 40.9653 59.0392 41.8415 59.5971C50.7562 65.2902 61.5136 64.3666 69.9861 57.4291L81.9749 67.0592L68.7633 80.2708ZM95.6461 55.1788L84.5808 33.0655L93.4522 28.6168L104.522 50.7561L95.6461 55.1788ZM57.5983 95.3599C57.4109 96.1096 56.9785 96.7753 56.3698 97.2513C55.761 97.7273 55.0107 97.9864 54.2379 97.9875C53.9529 97.9877 53.6689 97.9527 53.3924 97.8834L35.3246 93.3654C34.902 93.261 34.5032 93.077 34.1495 92.8234L22.7244 84.6631C22.0218 84.1116 21.5592 83.3103 21.4327 82.4261C21.3062 81.5419 21.5256 80.6431 22.0453 79.9166C22.565 79.1902 23.3448 78.6922 24.2225 78.5264C25.1001 78.3606 26.0079 78.5397 26.7568 79.0264L37.6443 86.8051L55.0921 91.1584C55.9844 91.3816 56.7515 91.9501 57.2248 92.7388C57.698 93.5275 57.8386 94.4719 57.6156 95.3642L57.5983 95.3599Z" fill="#60FFB3"/>
</g>
<defs>
<clipPath id="clip0_1129_61">
<rect width="111" height="111" fill="white" transform="translate(0.458984 0.867188)"/>
</clipPath>
</defs>
</svg>
