<svg width="55" height="22" viewBox="0 0 55 22" fill="none" xmlns="http://www.w3.org/2000/svg">
<path d="M54.835 11.3672C54.835 7.6075 52.9749 4.64085 49.42 4.64085C45.8499 4.64085 43.6899 7.6076 43.6899 11.3379C43.6899 15.7584 46.24 17.9907 49.8999 17.9907C51.6849 17.9907 53.0349 17.5942 54.0549 17.0361V14.0988C53.035 14.5982 51.865 14.9066 50.38 14.9066C48.9249 14.9066 47.6349 14.4073 47.47 12.6743H54.805C54.805 12.4833 54.835 11.7196 54.835 11.3672ZM47.4249 9.97202C47.4249 8.31247 48.46 7.62216 49.405 7.62216C50.32 7.62216 51.295 8.31247 51.295 9.97202H47.4249ZM37.9001 4.64085C36.4299 4.64085 35.4849 5.3164 34.96 5.78645L34.7649 4.87588H31.465V22L35.2149 21.2217L35.23 17.0655C35.77 17.4473 36.5649 17.9907 37.885 17.9907C40.57 17.9907 43.015 15.8759 43.015 11.2204C43 6.96128 40.525 4.64085 37.8999 4.64085M36.9999 14.7597C36.1149 14.7597 35.5898 14.4514 35.2299 14.0695L35.2148 8.62082C35.6048 8.19496 36.1448 7.90128 36.9999 7.90128C38.3649 7.90128 39.3099 9.39921 39.3099 11.3231C39.3099 13.2911 38.3798 14.7597 36.9999 14.7597ZM26.3049 3.77437L30.07 2.98131V0L26.3049 0.778397V3.77437ZM26.3049 4.89054H30.07V17.741H26.3049V4.89054ZM22.27 5.97728L22.03 4.89054H18.79V17.741H22.54V9.03211C23.4249 7.90128 24.925 8.10688 25.39 8.26838V4.89054C24.91 4.71427 23.155 4.39116 22.27 5.97728ZM14.7699 1.70363L11.1099 2.46727L11.095 14.231C11.095 16.4047 12.76 18.0054 14.98 18.0054C16.21 18.0054 17.1099 17.7851 17.6049 17.5208V14.5394C17.125 14.7304 14.7549 15.4059 14.7549 13.2323V8.01869H17.6049V4.89054H14.7549L14.7699 1.70363ZM4.62994 8.62082C4.62994 8.04812 5.10993 7.82776 5.90505 7.82776C7.04496 7.82776 8.48493 8.16563 9.62494 8.76776V5.3164C8.37998 4.83178 7.15001 4.64085 5.90505 4.64085C2.85996 4.64085 0.834961 6.19765 0.834961 8.79719C0.834961 12.8505 6.53491 12.2044 6.53491 13.9521C6.53491 14.6275 5.93501 14.8479 5.09495 14.8479C3.85 14.8479 2.25995 14.3485 0.999914 13.673V17.1683C2.39495 17.7558 3.80496 18.0054 5.09495 18.0054C8.21493 18.0054 10.3599 16.4928 10.3599 13.8639C10.345 9.4874 4.62994 10.2657 4.62994 8.62082Z" fill="#635BFF"/>
</svg>
