<svg width="81" height="56" viewBox="0 0 81 56" fill="none" xmlns="http://www.w3.org/2000/svg">
<path d="M77.6875 50.4922H75.0312V5.33594C75.0312 3.92697 74.4715 2.57572 73.4753 1.57943C72.479 0.583145 71.1277 0.0234375 69.7188 0.0234375H11.2812C9.87229 0.0234375 8.52103 0.583145 7.52474 1.57943C6.52846 2.57572 5.96875 3.92697 5.96875 5.33594V50.4922H3.3125C2.60802 50.4922 1.93239 50.772 1.43425 51.2702C0.936104 51.7683 0.65625 52.444 0.65625 53.1484C0.65625 53.8529 0.936104 54.5285 1.43425 55.0267C1.93239 55.5248 2.60802 55.8047 3.3125 55.8047H77.6875C78.392 55.8047 79.0676 55.5248 79.5658 55.0267C80.0639 54.5285 80.3438 53.8529 80.3438 53.1484C80.3438 52.444 80.0639 51.7683 79.5658 51.2702C79.0676 50.772 78.392 50.4922 77.6875 50.4922ZM11.2812 5.33594H69.7188V50.4922H64.4062V42.5234C64.4062 41.819 64.1264 41.1433 63.6283 40.6452C63.1301 40.147 62.4545 39.8672 61.75 39.8672H37.8438C37.1393 39.8672 36.4636 40.147 35.9655 40.6452C35.4674 41.1433 35.1875 41.819 35.1875 42.5234V50.4922H21.9062V15.9609H59.0938V31.8984C59.0938 32.6029 59.3736 33.2785 59.8717 33.7767C60.3699 34.2748 61.0455 34.5547 61.75 34.5547C62.4545 34.5547 63.1301 34.2748 63.6283 33.7767C64.1264 33.2785 64.4062 32.6029 64.4062 31.8984V13.3047C64.4062 12.6002 64.1264 11.9246 63.6283 11.4264C63.1301 10.9283 62.4545 10.6484 61.75 10.6484H19.25C18.5455 10.6484 17.8699 10.9283 17.3717 11.4264C16.8736 11.9246 16.5938 12.6002 16.5938 13.3047V50.4922H11.2812V5.33594ZM59.0938 50.4922H40.5V45.1797H59.0938V50.4922Z" fill="#FEC1FF"/>
</svg>
