<svg width="73" height="72" viewBox="0 0 73 72" fill="none" xmlns="http://www.w3.org/2000/svg">
<path d="M48.5 39H39.5C37.85 39 36.5 40.35 36.5 42V51C36.5 52.65 37.85 54 39.5 54H48.5C50.15 54 51.5 52.65 51.5 51V42C51.5 40.35 50.15 39 48.5 39ZM48.5 9V12H24.5V9C24.5 7.35 23.15 6 21.5 6C19.85 6 18.5 7.35 18.5 9V12H15.5C12.17 12 9.53 14.7 9.53 18L9.5 60C9.5 61.5913 10.1321 63.1174 11.2574 64.2426C12.3826 65.3679 13.9087 66 15.5 66H57.5C60.8 66 63.5 63.3 63.5 60V18C63.5 14.7 60.8 12 57.5 12H54.5V9C54.5 7.35 53.15 6 51.5 6C49.85 6 48.5 7.35 48.5 9ZM54.5 60H18.5C16.85 60 15.5 58.65 15.5 57V27H57.5V57C57.5 58.65 56.15 60 54.5 60Z" fill="white"/>
<path d="M48.5 39H39.5C37.85 39 36.5 40.35 36.5 42V51C36.5 52.65 37.85 54 39.5 54H48.5C50.15 54 51.5 52.65 51.5 51V42C51.5 40.35 50.15 39 48.5 39ZM48.5 9V12H24.5V9C24.5 7.35 23.15 6 21.5 6C19.85 6 18.5 7.35 18.5 9V12H15.5C12.17 12 9.53 14.7 9.53 18L9.5 60C9.5 61.5913 10.1321 63.1174 11.2574 64.2426C12.3826 65.3679 13.9087 66 15.5 66H57.5C60.8 66 63.5 63.3 63.5 60V18C63.5 14.7 60.8 12 57.5 12H54.5V9C54.5 7.35 53.15 6 51.5 6C49.85 6 48.5 7.35 48.5 9ZM54.5 60H18.5C16.85 60 15.5 58.65 15.5 57V27H57.5V57C57.5 58.65 56.15 60 54.5 60Z" fill="url(#paint0_linear_475_2108)"/>
<defs>
<linearGradient id="paint0_linear_475_2108" x1="36.5" y1="6" x2="36.5" y2="66" gradientUnits="userSpaceOnUse">
<stop stop-color="#F4EBFF"/>
<stop offset="1" stop-color="#F4EBFF"/>
</linearGradient>
</defs>
</svg>
