<svg width="101" height="81" viewBox="0 0 101 81" fill="none" xmlns="http://www.w3.org/2000/svg">
<path d="M25.9925 26.0941L9.01462 40.2423L25.9925 54.3905C26.3396 54.6684 26.6278 55.0127 26.8403 55.4033C27.0527 55.7939 27.1851 56.2229 27.2297 56.6653C27.2743 57.1077 27.2303 57.5545 27.1002 57.9796C26.97 58.4048 26.7564 58.7997 26.4718 59.1413C26.1872 59.4829 25.8373 59.7643 25.4426 59.969C25.0479 60.1738 24.6164 60.2978 24.1732 60.3337C23.73 60.3696 23.2842 60.3169 22.8616 60.1784C22.4391 60.04 22.0485 59.8186 21.7125 59.5274L1.65001 42.8086C1.27356 42.4948 0.970688 42.1021 0.762844 41.6582C0.555001 41.2144 0.447266 40.7303 0.447266 40.2402C0.447266 39.7501 0.555001 39.266 0.762844 38.8222C0.970688 38.3783 1.27356 37.9856 1.65001 37.6718L21.7125 20.953C22.3943 20.3855 23.2735 20.112 24.1569 20.1927C25.0403 20.2735 25.8555 20.7018 26.423 21.3835C26.9906 22.0653 27.2641 22.9446 27.1833 23.828C27.1026 24.7114 26.6743 25.5265 25.9925 26.0941ZM99.555 37.6718L79.4925 20.953C79.155 20.672 78.7653 20.4602 78.3459 20.3298C77.9265 20.1993 77.4855 20.1527 77.0481 20.1927C76.6107 20.2327 76.1854 20.3584 75.7966 20.5628C75.4078 20.7671 75.063 21.046 74.782 21.3835C74.2145 22.0653 73.9409 22.9446 74.0217 23.828C74.1024 24.7114 74.5308 25.5265 75.2125 26.0941L92.1904 40.2423L75.2125 54.3905C74.8654 54.6684 74.5772 55.0127 74.3648 55.4033C74.1523 55.7939 74.0199 56.2229 73.9753 56.6653C73.9307 57.1077 73.9747 57.5545 74.1049 57.9796C74.235 58.4048 74.4487 58.7997 74.7333 59.1413C75.0179 59.4829 75.3678 59.7643 75.7624 59.969C76.1571 60.1738 76.5887 60.2978 77.0318 60.3337C77.475 60.3696 77.9209 60.3169 78.3434 60.1784C78.7659 60.04 79.1566 59.8186 79.4925 59.5274L99.555 42.8086C99.9315 42.4948 100.234 42.1021 100.442 41.6582C100.65 41.2144 100.758 40.7303 100.758 40.2402C100.758 39.7501 100.65 39.266 100.442 38.8222C100.234 38.3783 99.9315 37.9856 99.555 37.6718ZM65.1186 0.317923C64.7058 0.168066 64.2676 0.100978 63.8289 0.12049C63.3902 0.140002 62.9596 0.245733 62.5618 0.431644C62.164 0.617555 61.8067 0.880004 61.5103 1.20401C61.2139 1.52801 60.9842 1.90723 60.8344 2.31999L34.0844 75.8825C33.9339 76.2955 33.8663 76.7341 33.8855 77.1733C33.9047 77.6124 34.0103 78.0435 34.1962 78.4418C34.3822 78.8401 34.6449 79.1978 34.9692 79.4945C35.2935 79.7912 35.6732 80.021 36.0865 80.1709C36.4527 80.3014 36.8387 80.3678 37.2275 80.3673C37.9142 80.3673 38.5842 80.1559 39.1466 79.7618C39.7089 79.3677 40.1363 78.8101 40.3706 78.1646L67.1206 4.6021C67.2705 4.18934 67.3376 3.75111 67.3181 3.31242C67.2986 2.87373 67.1928 2.44318 67.0069 2.04536C66.821 1.64753 66.5586 1.29022 66.2346 0.993825C65.9106 0.697431 65.5313 0.467759 65.1186 0.317923Z" fill="white"/>
</svg>
