<svg width="86" height="86" viewBox="0 0 86 86" fill="none" xmlns="http://www.w3.org/2000/svg">
<path d="M31.8849 17.6314C31.1436 16.892 30.228 16.3513 29.2227 16.0591C28.2173 15.7669 27.1545 15.7326 26.1324 15.9594C25.1103 16.1863 24.1617 16.6669 23.3744 17.3569C22.587 18.047 21.9861 18.9243 21.6271 19.9078L0.918174 76.8702C0.577976 77.8096 0.468088 78.8168 0.597733 79.8074C0.727379 80.798 1.09278 81.7431 1.66325 82.5632C2.23372 83.3834 2.99263 84.0547 3.87625 84.5208C4.75988 84.987 5.74244 85.2344 6.74145 85.2422C7.477 85.2372 8.20602 85.1037 8.8956 84.8477L65.8541 64.1348C66.8379 63.7763 67.7156 63.1757 68.4061 62.3885C69.0965 61.6013 69.5776 60.6528 69.8048 59.6307C70.0321 58.6085 69.9982 57.5456 69.7062 56.54C69.4143 55.5344 68.8737 54.6185 68.1345 53.877L31.8849 17.6314ZM28.5985 70.9759L14.7899 57.1673L19.9819 42.8814L42.8845 65.7839L28.5985 70.9759ZM6.89927 78.8666L12.4227 63.7126L22.069 73.3589L6.89927 78.8666ZM49.4455 63.4009L22.3649 36.3203L27.4938 22.1685L63.5658 58.2405L49.4455 63.4009ZM51.0236 25.2734C51.0829 23.1397 51.5996 21.0435 52.5386 19.1266C54.6297 14.9486 58.575 12.6484 63.6486 12.6484C66.292 12.6484 67.9885 11.745 69.034 9.80387C69.5845 8.71791 69.9004 7.52828 69.9611 6.31227C69.9643 5.47518 70.2998 4.67362 70.894 4.08393C71.4881 3.49423 72.2921 3.16471 73.1292 3.16785C73.9663 3.17099 74.7679 3.50653 75.3576 4.10066C75.9473 4.6948 76.2768 5.49885 76.2736 6.33594C76.2736 11.4096 72.9122 18.9609 63.6486 18.9609C61.0053 18.9609 59.3088 19.8644 58.2633 21.8055C57.7128 22.8915 57.3969 24.0811 57.3361 25.2971C57.3346 25.7116 57.2514 26.1217 57.0914 26.5041C56.9313 26.8864 56.6975 27.2335 56.4033 27.5254C56.1091 27.8174 55.7603 28.0486 55.3768 28.2058C54.9933 28.363 54.5825 28.4431 54.1681 28.4415C53.7536 28.44 53.3434 28.3568 52.9611 28.1967C52.5788 28.0367 52.2317 27.8029 51.9397 27.5087C51.6477 27.2145 51.4165 26.8657 51.2594 26.4822C51.1022 26.0987 51.0221 25.6879 51.0236 25.2734ZM41.5549 12.6484V3.17969C41.5549 2.3426 41.8874 1.53979 42.4793 0.947882C43.0712 0.35597 43.8741 0.0234375 44.7111 0.0234375C45.5482 0.0234375 46.351 0.35597 46.9429 0.947882C47.5349 1.53979 47.8674 2.3426 47.8674 3.17969V12.6484C47.8674 13.4855 47.5349 14.2883 46.9429 14.8802C46.351 15.4722 45.5482 15.8047 44.7111 15.8047C43.8741 15.8047 43.0712 15.4722 42.4793 14.8802C41.8874 14.2883 41.5549 13.4855 41.5549 12.6484ZM81.6629 45.1341C81.9559 45.4274 82.1883 45.7755 82.3467 46.1585C82.5052 46.5416 82.5867 46.9521 82.5865 47.3666C82.5863 47.7811 82.5045 48.1916 82.3457 48.5745C82.1869 48.9574 81.9542 49.3053 81.661 49.5983C81.3677 49.8913 81.0196 50.1236 80.6366 50.2821C80.2535 50.4405 79.843 50.522 79.4285 50.5218C79.014 50.5216 78.6035 50.4398 78.2206 50.281C77.8377 50.1222 77.4898 49.8895 77.1968 49.5963L70.8843 43.2838C70.2921 42.6915 69.9594 41.8883 69.9594 41.0507C69.9594 40.2132 70.2921 39.4099 70.8843 38.8177C71.4766 38.2255 72.2798 37.8927 73.1174 37.8927C73.9549 37.8927 74.7582 38.2255 75.3504 38.8177L81.6629 45.1341ZM83.5843 28.2679L74.1155 31.4242C73.3214 31.6889 72.4545 31.6273 71.7058 31.2529C70.957 30.8785 70.3876 30.222 70.1229 29.4279C69.8582 28.6337 69.9198 27.7668 70.2942 27.0181C70.6685 26.2693 71.325 25.6999 72.1192 25.4352L81.588 22.2789C82.3822 22.0142 83.249 22.0758 83.9977 22.4502C84.7465 22.8246 85.3159 23.4811 85.5806 24.2753C85.8454 25.0695 85.7838 25.9363 85.4094 26.6851C85.035 27.4338 84.3785 28.0032 83.5843 28.2679Z" fill="white"/>
</svg>
