<svg width="73" height="72" viewBox="0 0 73 72" fill="none" xmlns="http://www.w3.org/2000/svg">
<path d="M60.5 12H12.5C9.2 12 6.53 14.7 6.53 18L6.5 54C6.5 57.3 9.2 60 12.5 60H60.5C63.8 60 66.5 57.3 66.5 54V18C66.5 14.7 63.8 12 60.5 12ZM59.3 24.75L38.09 38.01C37.13 38.61 35.87 38.61 34.91 38.01L13.7 24.75C13.3992 24.5811 13.1358 24.353 12.9257 24.0794C12.7156 23.8057 12.5632 23.4923 12.4777 23.1581C12.3923 22.8239 12.3755 22.4758 12.4285 22.1349C12.4814 21.794 12.603 21.4674 12.7858 21.1749C12.9687 20.8824 13.209 20.63 13.4922 20.433C13.7754 20.236 14.0956 20.0985 14.4335 20.0289C14.7714 19.9593 15.1198 19.9589 15.4579 20.0278C15.7959 20.0968 16.1164 20.2336 16.4 20.43L36.5 33L56.6 20.43C56.8836 20.2336 57.2041 20.0968 57.5421 20.0278C57.8802 19.9589 58.2286 19.9593 58.5665 20.0289C58.9044 20.0985 59.2246 20.236 59.5078 20.433C59.791 20.63 60.0313 20.8824 60.2142 21.1749C60.397 21.4674 60.5186 21.794 60.5715 22.1349C60.6245 22.4758 60.6077 22.8239 60.5223 23.1581C60.4368 23.4923 60.2844 23.8057 60.0743 24.0794C59.8642 24.353 59.6008 24.5811 59.3 24.75Z" fill="white"/>
<path d="M60.5 12H12.5C9.2 12 6.53 14.7 6.53 18L6.5 54C6.5 57.3 9.2 60 12.5 60H60.5C63.8 60 66.5 57.3 66.5 54V18C66.5 14.7 63.8 12 60.5 12ZM59.3 24.75L38.09 38.01C37.13 38.61 35.87 38.61 34.91 38.01L13.7 24.75C13.3992 24.5811 13.1358 24.353 12.9257 24.0794C12.7156 23.8057 12.5632 23.4923 12.4777 23.1581C12.3923 22.8239 12.3755 22.4758 12.4285 22.1349C12.4814 21.794 12.603 21.4674 12.7858 21.1749C12.9687 20.8824 13.209 20.63 13.4922 20.433C13.7754 20.236 14.0956 20.0985 14.4335 20.0289C14.7714 19.9593 15.1198 19.9589 15.4579 20.0278C15.7959 20.0968 16.1164 20.2336 16.4 20.43L36.5 33L56.6 20.43C56.8836 20.2336 57.2041 20.0968 57.5421 20.0278C57.8802 19.9589 58.2286 19.9593 58.5665 20.0289C58.9044 20.0985 59.2246 20.236 59.5078 20.433C59.791 20.63 60.0313 20.8824 60.2142 21.1749C60.397 21.4674 60.5186 21.794 60.5715 22.1349C60.6245 22.4758 60.6077 22.8239 60.5223 23.1581C60.4368 23.4923 60.2844 23.8057 60.0743 24.0794C59.8642 24.353 59.6008 24.5811 59.3 24.75Z" fill="url(#paint0_linear_475_2106)"/>
<defs>
<linearGradient id="paint0_linear_475_2106" x1="36.5" y1="12" x2="36.5" y2="60" gradientUnits="userSpaceOnUse">
<stop stop-color="#F4EBFF"/>
<stop offset="1" stop-color="#F4EBFF"/>
</linearGradient>
</defs>
</svg>
