<svg width="72" height="72" viewBox="0 0 72 72" fill="none" xmlns="http://www.w3.org/2000/svg">
<path d="M60.1853 56.0927C63.4165 52.2049 65.6639 47.5961 66.7373 42.6561C67.8106 37.7161 67.6784 32.5902 66.3518 27.7121C65.0252 22.834 62.5431 18.3472 59.1157 14.6312C55.6883 10.9152 51.4163 8.07939 46.6611 6.36361C41.9059 4.64783 36.8074 4.10257 31.7969 4.77397C26.7864 5.44537 22.0113 7.31368 17.8756 10.2208C13.7399 13.128 10.3652 16.9885 8.03698 21.4757C5.70878 25.9629 4.49558 30.9449 4.50001 36.0002C4.5019 43.3491 7.09161 50.4626 11.8148 56.0927L11.7698 56.131C11.9273 56.32 12.1073 56.482 12.2693 56.6687C12.4718 56.9005 12.69 57.1187 12.8993 57.3437C13.5263 58.0292 14.1788 58.6817 14.8568 59.3012C15.0668 59.4872 15.2768 59.6687 15.4868 59.8457C16.2068 60.4682 16.9493 61.0547 17.7143 61.6052C17.8133 61.6727 17.9033 61.7604 18.0023 61.8302V61.8032C23.2719 65.5119 29.5584 67.5023 36.0023 67.5023C42.4461 67.5023 48.7327 65.5119 54.0023 61.8032V61.8302C54.1013 61.7604 54.189 61.6727 54.2903 61.6052C55.0553 61.0532 55.7978 60.4667 56.5178 59.8457C56.7278 59.6672 56.9378 59.4857 57.1478 59.3012C57.8243 58.6817 58.4768 58.0292 59.1053 57.3437C59.3145 57.1187 59.5305 56.9005 59.7353 56.6687C59.895 56.482 60.0773 56.3199 60.2348 56.1287L60.1853 56.0927ZM36 18.0002C38.0025 18.0002 39.9601 18.594 41.6252 19.7066C43.2902 20.8191 44.588 22.4004 45.3543 24.2505C46.1206 26.1006 46.3211 28.1364 45.9305 30.1005C45.5398 32.0645 44.5755 33.8686 43.1595 35.2847C41.7435 36.7007 39.9394 37.665 37.9753 38.0556C36.0112 38.4463 33.9754 38.2458 32.1253 37.4795C30.2752 36.7131 28.6939 35.4154 27.5814 33.7503C26.4688 32.0853 25.875 30.1277 25.875 28.1252C25.875 25.4399 26.9418 22.8645 28.8406 20.9657C30.7394 19.0669 33.3147 18.0002 36 18.0002ZM18.0158 56.0927C18.0548 53.1384 19.2554 50.3182 21.3578 48.2423C23.4602 46.1664 26.2954 45.0017 29.25 45.0002H42.75C45.7046 45.0017 48.5398 46.1664 50.6422 48.2423C52.7446 50.3182 53.9452 53.1384 53.9843 56.0927C49.0497 60.5394 42.6426 63.0004 36 63.0004C29.3574 63.0004 22.9504 60.5394 18.0158 56.0927Z" fill="white"/>
<path d="M60.1853 56.0927C63.4165 52.2049 65.6639 47.5961 66.7373 42.6561C67.8106 37.7161 67.6784 32.5902 66.3518 27.7121C65.0252 22.834 62.5431 18.3472 59.1157 14.6312C55.6883 10.9152 51.4163 8.07939 46.6611 6.36361C41.9059 4.64783 36.8074 4.10257 31.7969 4.77397C26.7864 5.44537 22.0113 7.31368 17.8756 10.2208C13.7399 13.128 10.3652 16.9885 8.03698 21.4757C5.70878 25.9629 4.49558 30.9449 4.50001 36.0002C4.5019 43.3491 7.09161 50.4626 11.8148 56.0927L11.7698 56.131C11.9273 56.32 12.1073 56.482 12.2693 56.6687C12.4718 56.9005 12.69 57.1187 12.8993 57.3437C13.5263 58.0292 14.1788 58.6817 14.8568 59.3012C15.0668 59.4872 15.2768 59.6687 15.4868 59.8457C16.2068 60.4682 16.9493 61.0547 17.7143 61.6052C17.8133 61.6727 17.9033 61.7604 18.0023 61.8302V61.8032C23.2719 65.5119 29.5584 67.5023 36.0023 67.5023C42.4461 67.5023 48.7327 65.5119 54.0023 61.8032V61.8302C54.1013 61.7604 54.189 61.6727 54.2903 61.6052C55.0553 61.0532 55.7978 60.4667 56.5178 59.8457C56.7278 59.6672 56.9378 59.4857 57.1478 59.3012C57.8243 58.6817 58.4768 58.0292 59.1053 57.3437C59.3145 57.1187 59.5305 56.9005 59.7353 56.6687C59.895 56.482 60.0773 56.3199 60.2348 56.1287L60.1853 56.0927ZM36 18.0002C38.0025 18.0002 39.9601 18.594 41.6252 19.7066C43.2902 20.8191 44.588 22.4004 45.3543 24.2505C46.1206 26.1006 46.3211 28.1364 45.9305 30.1005C45.5398 32.0645 44.5755 33.8686 43.1595 35.2847C41.7435 36.7007 39.9394 37.665 37.9753 38.0556C36.0112 38.4463 33.9754 38.2458 32.1253 37.4795C30.2752 36.7131 28.6939 35.4154 27.5814 33.7503C26.4688 32.0853 25.875 30.1277 25.875 28.1252C25.875 25.4399 26.9418 22.8645 28.8406 20.9657C30.7394 19.0669 33.3147 18.0002 36 18.0002ZM18.0158 56.0927C18.0548 53.1384 19.2554 50.3182 21.3578 48.2423C23.4602 46.1664 26.2954 45.0017 29.25 45.0002H42.75C45.7046 45.0017 48.5398 46.1664 50.6422 48.2423C52.7446 50.3182 53.9452 53.1384 53.9843 56.0927C49.0497 60.5394 42.6426 63.0004 36 63.0004C29.3574 63.0004 22.9504 60.5394 18.0158 56.0927Z" fill="url(#paint0_linear_475_2099)"/>
<defs>
<linearGradient id="paint0_linear_475_2099" x1="35.9775" y1="4.49512" x2="35.9775" y2="67.5023" gradientUnits="userSpaceOnUse">
<stop stop-color="#F4EBFF"/>
<stop offset="1" stop-color="#F4EBFF"/>
</linearGradient>
</defs>
</svg>
