<svg width="34" height="28" viewBox="0 0 34 28" fill="none" xmlns="http://www.w3.org/2000/svg">
<path d="M17.0105 14.9761L7.44263 0.978516V12.9942L12.9061 20.993L17.0011 14.988L17.0105 14.9761Z" fill="#1A1918"/>
<path d="M17.0105 14.9761L21.1311 21.0059L26.5597 13.0944V0.978516L17.0105 14.9762" fill="#ED9D4A"/>
<path d="M17.0015 14.9878L12.9062 20.9929L17.0148 27.0055L21.1312 21.0057L17.0106 14.9761L17.0013 14.9878" fill="#BB7731"/>
<path d="M0.647705 27.0215H7.44262V12.994L0.647705 3.05225V27.0215Z" fill="#4CB2D4"/>
<path d="M0.647705 0.978516V3.05265L7.44262 12.9942V0.978516H0.647705Z" fill="#1B82AD"/>
<path d="M26.5596 13.0943V27.0215H33.352V3.19678L26.5596 13.0943Z" fill="#C02439"/>
<path d="M33.3518 0.978516H26.5596V13.0944L33.352 3.19686V0.978516" fill="#8F202F"/>
</svg>
