<svg width="65" height="72" viewBox="0 0 65 72" fill="none" xmlns="http://www.w3.org/2000/svg">
<g clip-path="url(#clip0_475_2110)">
<path d="M64.9508 62.8565C64.9573 64.1219 64.6949 65.3743 64.1808 66.5306C63.6667 67.687 62.9127 68.7208 61.9688 69.5637C61.0249 70.4066 59.9126 71.0392 58.7057 71.4196C57.4988 71.8001 56.2248 71.9197 54.9681 71.7705C50.3936 71.0936 47.0415 67.1131 47.1531 62.4901V9.3412C47.0426 4.71343 50.403 0.730609 54.9833 0.0610596C56.2388 -0.0859206 57.5112 0.0353269 58.7163 0.416783C59.9214 0.798238 61.0318 1.43121 61.974 2.27383C62.9162 3.11645 63.6688 4.14951 64.1819 5.30469C64.6951 6.45987 64.9572 7.71084 64.9508 8.97486V62.8565Z" fill="white"/>
<path d="M64.9508 62.8565C64.9573 64.1219 64.6949 65.3743 64.1808 66.5306C63.6667 67.687 62.9127 68.7208 61.9688 69.5637C61.0249 70.4066 59.9126 71.0392 58.7057 71.4196C57.4988 71.8001 56.2248 71.9197 54.9681 71.7705C50.3936 71.0936 47.0415 67.1131 47.1531 62.4901V9.3412C47.0426 4.71343 50.403 0.730609 54.9833 0.0610596C56.2388 -0.0859206 57.5112 0.0353269 58.7163 0.416783C59.9214 0.798238 61.0318 1.43121 61.974 2.27383C62.9162 3.11645 63.6688 4.14951 64.1819 5.30469C64.6951 6.45987 64.9572 7.71084 64.9508 8.97486V62.8565Z" fill="url(#paint0_linear_475_2110)"/>
<path d="M8.94767 54.0488C13.8624 54.0488 17.8465 58.0332 17.8465 62.9477C17.8465 67.8624 13.8624 71.8465 8.94767 71.8465C4.03291 71.8465 0.0488281 67.8624 0.0488281 62.9479C0.0488281 58.0332 4.03291 54.0488 8.94767 54.0488ZM32.3624 27.0775C27.4245 27.3482 23.5931 31.4903 23.7079 36.4344V60.3377C23.7079 66.8248 26.5623 70.763 30.7444 71.6024C32.041 71.8652 33.3798 71.8361 34.6637 71.5173C35.9477 71.1984 37.1445 70.5978 38.1675 69.7589C39.1905 68.9201 40.014 67.864 40.5781 66.6674C41.1423 65.4708 41.4331 64.1636 41.4293 62.8407V36.0225C41.4315 34.8369 41.1975 33.6627 40.7411 32.5685C40.2847 31.4743 39.6149 30.482 38.7709 29.6494C37.9269 28.8167 36.9256 28.1605 35.8253 27.719C34.725 27.2775 33.5478 27.0592 32.3624 27.0775Z" fill="white"/>
<path d="M8.94767 54.0488C13.8624 54.0488 17.8465 58.0332 17.8465 62.9477C17.8465 67.8624 13.8624 71.8465 8.94767 71.8465C4.03291 71.8465 0.0488281 67.8624 0.0488281 62.9479C0.0488281 58.0332 4.03291 54.0488 8.94767 54.0488ZM32.3624 27.0775C27.4245 27.3482 23.5931 31.4903 23.7079 36.4344V60.3377C23.7079 66.8248 26.5623 70.763 30.7444 71.6024C32.041 71.8652 33.3798 71.8361 34.6637 71.5173C35.9477 71.1984 37.1445 70.5978 38.1675 69.7589C39.1905 68.9201 40.014 67.864 40.5781 66.6674C41.1423 65.4708 41.4331 64.1636 41.4293 62.8407V36.0225C41.4315 34.8369 41.1975 33.6627 40.7411 32.5685C40.2847 31.4743 39.6149 30.482 38.7709 29.6494C37.9269 28.8167 36.9256 28.1605 35.8253 27.719C34.725 27.2775 33.5478 27.0592 32.3624 27.0775Z" fill="url(#paint1_linear_475_2110)"/>
</g>
<defs>
<linearGradient id="paint0_linear_475_2110" x1="56.0506" y1="0.000488281" x2="56.0506" y2="71.8328" gradientUnits="userSpaceOnUse">
<stop stop-color="#F4EBFF"/>
<stop offset="1" stop-color="#F4EBFF"/>
</linearGradient>
<linearGradient id="paint1_linear_475_2110" x1="20.7391" y1="27.0767" x2="20.7391" y2="71.8465" gradientUnits="userSpaceOnUse">
<stop stop-color="#F4EBFF"/>
<stop offset="1" stop-color="#F4EBFF"/>
</linearGradient>
<clipPath id="clip0_475_2110">
<rect width="64.9014" height="72" fill="white" transform="translate(0.0488281)"/>
</clipPath>
</defs>
</svg>
