<svg width="38" height="42" viewBox="0 0 38 42" fill="none" xmlns="http://www.w3.org/2000/svg">
<path d="M37.1653 36.1211C37.169 36.8316 37.022 37.5347 36.7343 38.1839C36.4465 38.8331 36.0244 39.4136 35.4961 39.8868C34.9677 40.36 34.3451 40.7152 33.6695 40.9288C32.9939 41.1424 32.2807 41.2095 31.5773 41.1258C29.0166 40.7457 27.1402 38.5109 27.2027 35.9154V6.07575C27.1408 3.47755 29.0219 1.24146 31.5858 0.86555C32.2886 0.78303 33.0008 0.851103 33.6754 1.06527C34.35 1.27943 34.9715 1.6348 35.499 2.10788C36.0264 2.58095 36.4477 3.16095 36.7349 3.80951C37.0222 4.45807 37.1689 5.16041 37.1653 5.87007V36.1211Z" fill="#F9AB00"/>
<path d="M5.81626 31.1763C8.5674 31.1763 10.7976 33.4133 10.7976 36.1725C10.7976 38.9318 8.5674 41.1686 5.81626 41.1686C3.06513 41.1686 0.834961 38.9318 0.834961 36.1726C0.834961 33.4133 3.06513 31.1763 5.81626 31.1763ZM18.9231 16.0337C16.1591 16.1857 14.0143 18.5112 14.0786 21.287V34.7071C14.0786 38.3492 15.6764 40.5602 18.0174 41.0315C18.7432 41.1791 19.4926 41.1627 20.2113 40.9837C20.93 40.8047 21.6 40.4675 22.1727 39.9965C22.7453 39.5256 23.2062 38.9327 23.522 38.2608C23.8378 37.589 24.0006 36.8551 23.9985 36.1124V21.0557C23.9997 20.3901 23.8687 19.7309 23.6133 19.1165C23.3578 18.5022 22.9829 17.9451 22.5104 17.4776C22.038 17.0101 21.4775 16.6417 20.8615 16.3938C20.2456 16.1459 19.5867 16.0234 18.9231 16.0337Z" fill="#E37400"/>
</svg>
