<svg width="80" height="84" viewBox="0 0 80 84" fill="none" xmlns="http://www.w3.org/2000/svg">
<path d="M73.6348 9.33594H43.0098V3.14844C43.0098 2.32792 42.6871 1.54102 42.1128 0.960826C41.5385 0.380635 40.7595 0.0546875 39.9473 0.0546875C39.135 0.0546875 38.3561 0.380635 37.7818 0.960826C37.2074 1.54102 36.8848 2.32792 36.8848 3.14844V9.33594H6.25977C4.63531 9.33594 3.0774 9.98783 1.92874 11.1482C0.780076 12.3086 0.134766 13.8824 0.134766 15.5234V61.9297C0.134766 63.5707 0.780076 65.1445 1.92874 66.3049C3.0774 67.4653 4.63531 68.1172 6.25977 68.1172H21.3273L13.0547 78.5586C12.547 79.1996 12.3123 80.0181 12.402 80.834C12.4917 81.6499 12.8987 82.3964 13.5332 82.9092C14.1678 83.422 14.978 83.6592 15.7856 83.5685C16.5933 83.4779 17.3322 83.0668 17.8398 82.4258L29.1673 68.1172H50.7273L62.0547 82.4258C62.306 82.7432 62.6168 83.0075 62.9693 83.2035C63.3218 83.3996 63.709 83.5236 64.1089 83.5685C64.5088 83.6134 64.9136 83.5783 65.3 83.4652C65.6865 83.352 66.0471 83.1631 66.3613 82.9092C66.6755 82.6553 66.9371 82.3413 67.1312 81.9852C67.3253 81.6292 67.4481 81.238 67.4925 80.834C67.537 80.43 67.5022 80.0211 67.3902 79.6307C67.2782 79.2403 67.0912 78.876 66.8398 78.5586L58.5673 68.1172H73.6348C75.2592 68.1172 76.8171 67.4653 77.9658 66.3049C79.1145 65.1445 79.7598 63.5707 79.7598 61.9297V15.5234C79.7598 13.8824 79.1145 12.3086 77.9658 11.1482C76.8171 9.98783 75.2592 9.33594 73.6348 9.33594ZM73.6348 61.9297H6.25977V15.5234H73.6348V61.9297Z" fill="#6AC9FF"/>
</svg>
