<svg width="47" height="28" viewBox="0 0 47 28" fill="none" xmlns="http://www.w3.org/2000/svg">
<path d="M13.7979 10.1691C13.7979 10.7454 13.8593 11.2125 13.9663 11.5552C14.1022 11.9406 14.2658 12.3154 14.4558 12.6764C14.5323 12.8009 14.5628 12.9255 14.5628 13.0346C14.5628 13.1902 14.4711 13.346 14.2722 13.5018L13.3084 14.1558C13.1707 14.2493 13.033 14.296 12.9105 14.296C12.7576 14.296 12.6046 14.2181 12.4515 14.0779C12.2454 13.8524 12.061 13.6073 11.9009 13.346C11.7478 13.0815 11.5948 12.7853 11.4265 12.4272C10.2332 13.8598 8.73375 14.5763 6.92857 14.5763C5.64354 14.5763 4.6184 14.2025 3.86868 13.4551C3.11914 12.7074 2.73669 11.7108 2.73669 10.465C2.73669 9.14136 3.19566 8.06683 4.12893 7.25702C5.06203 6.44722 6.3014 6.04231 7.87719 6.04231C8.39734 6.04231 8.93283 6.08898 9.49882 6.16687C10.065 6.24476 10.6463 6.36932 11.2583 6.50949V5.37268C11.2583 4.18902 11.0134 3.36378 10.5391 2.88098C10.0496 2.39819 9.2234 2.1645 8.0454 2.1645C7.5099 2.1645 6.95925 2.22697 6.39308 2.36714C5.82709 2.50713 5.27626 2.67853 4.74077 2.8966C4.49603 3.00554 4.31248 3.06782 4.20528 3.09905C4.09825 3.13028 4.02173 3.14571 3.96054 3.14571C3.74631 3.14571 3.63929 2.98992 3.63929 2.66292V1.89977C3.63929 1.65066 3.66997 1.46382 3.74631 1.35488C3.82284 1.24576 3.96054 1.13681 4.17478 1.02787C4.71027 0.747527 5.35278 0.513845 6.10232 0.327009C6.85223 0.124557 7.64779 0.0312312 8.4892 0.0312312C10.3099 0.0312312 11.641 0.451566 12.4977 1.2926C13.3391 2.13346 13.7676 3.41044 13.7676 5.12357V10.1691H13.7979ZM7.58643 12.5362C8.09142 12.5362 8.61157 12.4429 9.16222 12.2558C9.71305 12.069 10.2027 11.7264 10.6156 11.2592C10.8606 10.9634 11.0441 10.6364 11.1358 10.2626C11.2277 9.88889 11.2888 9.43714 11.2888 8.90768V8.25366C10.8249 8.13871 10.3549 8.05033 9.88126 7.98893C9.40428 7.92727 8.92398 7.89604 8.44318 7.89542C7.41804 7.89542 6.6685 8.09787 6.16369 8.51839C5.6587 8.93891 5.41397 9.53065 5.41397 10.3092C5.41397 11.0411 5.59752 11.5862 5.97996 11.9601C6.34724 12.3494 6.88273 12.5362 7.58643 12.5362ZM19.8717 14.2181C19.5963 14.2181 19.4127 14.1714 19.2903 14.0623C19.168 13.969 19.0608 13.7509 18.9691 13.4551L15.3739 1.41716C15.2818 1.10558 15.236 0.903132 15.236 0.79419C15.236 0.545076 15.3583 0.404719 15.6033 0.404719H17.1025C17.3931 0.404719 17.5922 0.451566 17.6992 0.560508C17.8216 0.654017 17.9134 0.872084 18.0051 1.16786L20.5754 11.4773L22.9621 1.16786C23.0386 0.856469 23.1305 0.654017 23.2526 0.560508C23.3752 0.467182 23.5894 0.404903 23.8648 0.404903H25.0887C25.3793 0.404903 25.5783 0.451566 25.7005 0.560508C25.8231 0.654017 25.9301 0.872084 25.9913 1.16786L28.4086 11.6018L31.0552 1.16786C31.1469 0.856469 31.2541 0.654017 31.3612 0.560508C31.4835 0.467182 31.6824 0.404903 31.9578 0.404903H33.3806C33.6255 0.404903 33.7632 0.52946 33.7632 0.79419C33.7632 0.872084 33.7479 0.949979 33.7325 1.0433C33.7172 1.13681 33.6867 1.26137 33.6255 1.43278L29.9382 13.4706C29.8465 13.7821 29.7395 13.9846 29.617 14.0779C29.4946 14.1714 29.2957 14.2337 29.0358 14.2337H27.7201C27.4294 14.2337 27.2305 14.187 27.1079 14.0779C26.9855 13.969 26.8785 13.7665 26.8173 13.4551L24.4458 3.41044L22.0898 13.4393C22.0134 13.7509 21.9216 13.9534 21.7992 14.0623C21.6768 14.1714 21.4626 14.2181 21.1874 14.2181H19.8717ZM39.531 14.6386C38.7355 14.6386 37.9399 14.5451 37.175 14.3583C36.41 14.1714 35.8135 13.9688 35.4157 13.7355C35.1708 13.5951 35.0024 13.4395 34.9414 13.2993C34.8818 13.1619 34.8505 13.0134 34.8495 12.8632V12.069C34.8495 11.742 34.9719 11.5862 35.2015 11.5862C35.2951 11.5866 35.3882 11.6024 35.4769 11.6331C35.5686 11.6643 35.7063 11.7264 35.8593 11.7887C36.3997 12.0306 36.9638 12.2133 37.5421 12.3337C38.1414 12.4575 38.7513 12.5201 39.3628 12.5206C40.3266 12.5206 41.0763 12.3494 41.5965 12.0067C42.1166 11.6641 42.392 11.1659 42.392 10.5273C42.392 10.0913 42.2543 9.7331 41.9789 9.43714C41.7035 9.14136 41.1834 8.87663 40.4338 8.62733L38.2153 7.92665C37.0985 7.56841 36.2724 7.03895 35.7674 6.33809C35.2626 5.65284 35.0026 4.88988 35.0026 4.08008C35.0026 3.42606 35.1403 2.84975 35.4157 2.35134C35.6909 1.85311 36.0582 1.41716 36.5172 1.07454C36.9761 0.716296 37.4963 0.451566 38.1083 0.26473C38.7201 0.0778942 39.3627 0 40.0358 0C40.3724 0 40.7244 0.0156156 41.061 0.0622786C41.4129 0.108942 41.7342 0.17122 42.0554 0.233499C42.3614 0.311393 42.6521 0.389287 42.9275 0.482797C43.2029 0.576123 43.417 0.669633 43.57 0.762959C43.7843 0.8877 43.9371 1.01226 44.029 1.15243C44.1209 1.27699 44.1667 1.44821 44.1667 1.66627V2.39819C44.1667 2.72519 44.0444 2.8966 43.8148 2.8966C43.6924 2.8966 43.4935 2.83414 43.2336 2.70958C42.3614 2.30468 41.3822 2.10223 40.2961 2.10223C39.424 2.10223 38.7355 2.2424 38.2612 2.53836C37.787 2.83414 37.5421 3.28589 37.5421 3.92429C37.5421 4.36042 37.6952 4.73409 38.0011 5.03006C38.3072 5.32583 38.8732 5.62179 39.6841 5.88652L41.8566 6.58739C42.958 6.94563 43.7536 7.44386 44.2279 8.08226C44.7022 8.72084 44.9318 9.45276 44.9318 10.2626C44.9318 10.9322 44.7939 11.5395 44.5338 12.069C44.2586 12.5985 43.8913 13.0657 43.417 13.4395C42.9427 13.8288 42.3767 14.1091 41.7188 14.3116C41.0303 14.5297 40.3113 14.6386 39.531 14.6386Z" fill="white"/>
<path d="M42.4227 22.2065C37.3894 25.9908 30.0763 27.9997 23.7884 27.9997C14.976 27.9997 7.03591 24.6826 1.03867 19.1697C0.564363 18.7338 0.992647 18.142 1.55864 18.4845C8.04553 22.3156 16.047 24.6359 24.3239 24.6359C29.908 24.6359 36.043 23.4524 41.6885 21.023C42.5299 20.6336 43.2489 21.5837 42.4227 22.2065ZM44.5188 19.7771C43.8763 18.9362 40.2656 19.3722 38.6286 19.5746C38.1389 19.6371 38.0624 19.201 38.5062 18.874C41.3824 16.8182 46.1099 17.4101 46.6606 18.0952C47.2114 18.7961 46.5075 23.6081 43.8149 25.9129C43.402 26.2712 43.0042 26.0843 43.1877 25.6171C43.7996 24.0752 45.1613 20.6025 44.5188 19.7771Z" fill="#FF9900"/>
</svg>
