<svg width="73" height="72" viewBox="0 0 73 72" fill="none" xmlns="http://www.w3.org/2000/svg">
<g clip-path="url(#clip0_475_2102)">
<path d="M54.5 6C56.0913 6 57.6174 6.63214 58.7426 7.75736C59.8679 8.88258 60.5 10.4087 60.5 12V60C60.5 61.5913 59.8679 63.1174 58.7426 64.2426C57.6174 65.3679 56.0913 66 54.5 66H18.5C16.9087 66 15.3826 65.3679 14.2574 64.2426C13.1321 63.1174 12.5 61.5913 12.5 60V12C12.5 10.4087 13.1321 8.88258 14.2574 7.75736C15.3826 6.63214 16.9087 6 18.5 6H54.5ZM36.5 39H27.5C26.7044 39 25.9413 39.3161 25.3787 39.8787C24.8161 40.4413 24.5 41.2043 24.5 42C24.5 42.7957 24.8161 43.5587 25.3787 44.1213C25.9413 44.6839 26.7044 45 27.5 45H36.5C37.2956 45 38.0587 44.6839 38.6213 44.1213C39.1839 43.5587 39.5 42.7957 39.5 42C39.5 41.2043 39.1839 40.4413 38.6213 39.8787C38.0587 39.3161 37.2956 39 36.5 39ZM45.5 24H27.5C26.7354 24.0008 25.9999 24.2936 25.4439 24.8185C24.8879 25.3435 24.5533 26.0609 24.5085 26.8242C24.4637 27.5875 24.712 28.3391 25.2028 28.9255C25.6936 29.5119 26.3897 29.8887 27.149 29.979L27.5 30H45.5C46.2646 29.9992 47.0001 29.7064 47.5561 29.1815C48.1121 28.6565 48.4467 27.9391 48.4915 27.1758C48.5363 26.4125 48.288 25.6609 47.7972 25.0745C47.3064 24.4881 46.6103 24.1113 45.851 24.021L45.5 24Z" fill="white"/>
<path d="M54.5 6C56.0913 6 57.6174 6.63214 58.7426 7.75736C59.8679 8.88258 60.5 10.4087 60.5 12V60C60.5 61.5913 59.8679 63.1174 58.7426 64.2426C57.6174 65.3679 56.0913 66 54.5 66H18.5C16.9087 66 15.3826 65.3679 14.2574 64.2426C13.1321 63.1174 12.5 61.5913 12.5 60V12C12.5 10.4087 13.1321 8.88258 14.2574 7.75736C15.3826 6.63214 16.9087 6 18.5 6H54.5ZM36.5 39H27.5C26.7044 39 25.9413 39.3161 25.3787 39.8787C24.8161 40.4413 24.5 41.2043 24.5 42C24.5 42.7957 24.8161 43.5587 25.3787 44.1213C25.9413 44.6839 26.7044 45 27.5 45H36.5C37.2956 45 38.0587 44.6839 38.6213 44.1213C39.1839 43.5587 39.5 42.7957 39.5 42C39.5 41.2043 39.1839 40.4413 38.6213 39.8787C38.0587 39.3161 37.2956 39 36.5 39ZM45.5 24H27.5C26.7354 24.0008 25.9999 24.2936 25.4439 24.8185C24.8879 25.3435 24.5533 26.0609 24.5085 26.8242C24.4637 27.5875 24.712 28.3391 25.2028 28.9255C25.6936 29.5119 26.3897 29.8887 27.149 29.979L27.5 30H45.5C46.2646 29.9992 47.0001 29.7064 47.5561 29.1815C48.1121 28.6565 48.4467 27.9391 48.4915 27.1758C48.5363 26.4125 48.288 25.6609 47.7972 25.0745C47.3064 24.4881 46.6103 24.1113 45.851 24.021L45.5 24Z" fill="url(#paint0_linear_475_2102)"/>
</g>
<defs>
<linearGradient id="paint0_linear_475_2102" x1="36.5" y1="6" x2="36.5" y2="66" gradientUnits="userSpaceOnUse">
<stop stop-color="#F4EBFF"/>
<stop offset="1" stop-color="#F4EBFF"/>
</linearGradient>
<clipPath id="clip0_475_2102">
<rect width="72" height="72" fill="white" transform="translate(0.5)"/>
</clipPath>
</defs>
</svg>
