<svg width="134" height="80" viewBox="0 0 134 80" fill="none" xmlns="http://www.w3.org/2000/svg">
<path d="M130.773 9.82422C130.07 9.4476 129.278 9.26867 128.482 9.3065C127.686 9.34432 126.915 9.59749 126.251 10.039L106.665 23.0705V9.27344C106.665 6.93622 105.737 4.69472 104.084 3.04206C102.431 1.38939 100.19 0.460938 97.8525 0.460938H9.72754C7.39032 0.460938 5.14882 1.38939 3.49616 3.04206C1.8435 4.69472 0.915039 6.93622 0.915039 9.27344V70.9609C0.915039 73.2982 1.8435 75.5396 3.49616 77.1923C5.14882 78.845 7.39032 79.7734 9.72754 79.7734H97.8525C100.19 79.7734 102.431 78.845 104.084 77.1923C105.737 75.5396 106.665 73.2982 106.665 70.9609V57.1914L126.251 70.2504C126.978 70.7228 127.829 70.97 128.696 70.9609C129.865 70.9609 130.986 70.4967 131.812 69.6704C132.638 68.844 133.103 67.7233 133.103 66.5547V13.6797C133.097 12.8869 132.878 12.1103 132.468 11.4317C132.058 10.7532 131.472 10.1978 130.773 9.82422ZM97.8525 70.9609H9.72754V9.27344H97.8525V70.9609ZM124.29 58.3205L106.665 46.5723V33.662L124.29 21.9414V58.3205Z" fill="#FF9331"/>
</svg>
