<svg width="88" height="89" viewBox="0 0 88 89" fill="none" xmlns="http://www.w3.org/2000/svg">
<path d="M1.42227 43.6861C1.77683 43.9545 2.18031 44.1497 2.60966 44.2607C3.039 44.3718 3.48581 44.3963 3.92456 44.3331C4.36332 44.2698 4.78543 44.12 5.16681 43.8921C5.54818 43.6642 5.88134 43.3627 6.14727 43.0048C8.19068 40.255 10.8404 38.0232 13.8865 36.486C16.9327 34.9488 20.2916 34.1486 23.6973 34.1486C27.103 34.1486 30.4619 34.9488 33.508 36.486C36.5541 38.0232 39.2038 40.255 41.2473 43.0048C41.785 43.7269 42.5848 44.2038 43.4709 44.3308C44.3569 44.4577 45.2567 44.2243 45.9723 43.6818C46.2275 43.4905 46.4535 43.2624 46.643 43.0048C48.6865 40.255 51.3362 38.0232 54.3823 36.486C57.4284 34.9488 60.7874 34.1486 64.193 34.1486C67.5987 34.1486 70.9576 34.9488 74.0038 36.486C77.0499 38.0232 79.6996 40.255 81.743 43.0048C82.2807 43.7275 83.0807 44.2051 83.9672 44.3325C84.8537 44.4598 85.7541 44.2265 86.4701 43.6839C87.1862 43.1413 87.6594 42.3339 87.7856 41.4392C87.9118 40.5444 87.6807 39.6358 87.143 38.9131C84.1556 34.871 80.1719 31.6885 75.5879 29.6821C78.1009 27.3665 79.8616 24.3381 80.6389 20.9945C81.4161 17.6508 81.1736 14.1482 79.9431 10.9461C78.7126 7.74411 76.5517 4.99233 73.744 3.05195C70.9362 1.11157 67.6128 0.0732422 64.2099 0.0732422C60.807 0.0732422 57.4836 1.11157 54.6759 3.05195C51.8681 4.99233 49.7072 7.74411 48.4767 10.9461C47.2463 14.1482 47.0037 17.6508 47.781 20.9945C48.5582 24.3381 50.3189 27.3665 52.8319 29.6821C49.5222 31.1269 46.5155 33.1947 43.9726 35.7751C41.4296 33.1947 38.4229 31.1269 35.1132 29.6821C37.6263 27.3665 39.3869 24.3381 40.1642 20.9945C40.9414 17.6508 40.6989 14.1482 39.4684 10.9461C38.238 7.74411 36.077 4.99233 33.2693 3.05195C30.4615 1.11157 27.1381 0.0732422 23.7352 0.0732422C20.3323 0.0732422 17.0089 1.11157 14.2012 3.05195C11.3934 4.99233 9.23252 7.74411 8.00205 10.9461C6.77159 14.1482 6.52906 17.6508 7.3063 20.9945C8.08353 24.3381 9.84421 27.3665 12.3573 29.6821C7.75334 31.6823 3.75004 34.8668 0.747266 38.9173C0.481339 39.2752 0.287853 39.6824 0.177857 40.1157C0.0678602 40.549 0.0435067 41 0.106186 41.4428C0.168866 41.8856 0.317351 42.3116 0.543165 42.6965C0.768978 43.0814 1.0677 43.4177 1.42227 43.6861ZM64.1973 6.89857C66.1998 6.89857 68.1574 7.49789 69.8224 8.62074C71.4875 9.74359 72.7852 11.3395 73.5515 13.2068C74.3179 15.074 74.5184 17.1287 74.1277 19.1109C73.737 21.0931 72.7727 22.914 71.3567 24.3431C69.9407 25.7722 68.1366 26.7454 66.1726 27.1397C64.2085 27.534 62.1727 27.3316 60.3226 26.5582C58.4725 25.7848 56.8912 24.475 55.7786 22.7946C54.6661 21.1141 54.0723 19.1384 54.0723 17.1173C54.0723 14.4071 55.139 11.808 57.0378 9.89157C58.9366 7.97518 61.5119 6.89857 64.1973 6.89857ZM23.6973 6.89857C25.6998 6.89857 27.6574 7.49789 29.3224 8.62074C30.9875 9.74359 32.2852 11.3395 33.0515 13.2068C33.8179 15.074 34.0184 17.1287 33.6277 19.1109C33.237 21.0931 32.2727 22.914 30.8567 24.3431C29.4407 25.7722 27.6366 26.7454 25.6726 27.1397C23.7085 27.534 21.6727 27.3316 19.8226 26.5582C17.9725 25.7848 16.3912 24.475 15.2786 22.7946C14.1661 21.1141 13.5723 19.1384 13.5723 17.1173C13.5723 14.4071 14.639 11.808 16.5378 9.89157C18.4366 7.97518 21.0119 6.89857 23.6973 6.89857ZM75.5879 73.9634C78.1009 71.6477 79.8616 68.6194 80.6389 65.2757C81.4161 61.9321 81.1736 58.4294 79.9431 55.2274C78.7126 52.0254 76.5517 49.2736 73.744 47.3332C70.9362 45.3928 67.6128 44.3545 64.2099 44.3545C60.807 44.3545 57.4836 45.3928 54.6759 47.3332C51.8681 49.2736 49.7072 52.0254 48.4767 55.2274C47.2463 58.4294 47.0037 61.9321 47.781 65.2757C48.5582 68.6194 50.3189 71.6477 52.8319 73.9634C49.5222 75.4081 46.5155 77.4759 43.9726 80.0563C41.4296 77.4759 38.4229 75.4081 35.1132 73.9634C37.6263 71.6477 39.3869 68.6194 40.1642 65.2757C40.9414 61.9321 40.6989 58.4294 39.4684 55.2274C38.238 52.0254 36.077 49.2736 33.2693 47.3332C30.4615 45.3928 27.1381 44.3545 23.7352 44.3545C20.3323 44.3545 17.0089 45.3928 14.2012 47.3332C11.3934 49.2736 9.23252 52.0254 8.00205 55.2274C6.77159 58.4294 6.52906 61.9321 7.3063 65.2757C8.08353 68.6194 9.84421 71.6477 12.3573 73.9634C7.75334 75.9636 3.75004 79.148 0.747266 83.1986C0.481339 83.5564 0.287853 83.9636 0.177857 84.3969C0.0678602 84.8303 0.0435067 85.2812 0.106186 85.724C0.168866 86.1669 0.317351 86.5929 0.543165 86.9778C0.768978 87.3627 1.0677 87.6989 1.42227 87.9673C1.77683 88.2357 2.18031 88.431 2.60966 88.542C3.039 88.653 3.48581 88.6776 3.92456 88.6143C4.36332 88.5511 4.78543 88.4012 5.16681 88.1733C5.54818 87.9454 5.88134 87.6439 6.14727 87.2861C8.19068 84.5363 10.8404 82.3044 13.8865 80.7673C16.9327 79.2301 20.2916 78.4298 23.6973 78.4298C27.103 78.4298 30.4619 79.2301 33.508 80.7673C36.5541 82.3044 39.2038 84.5363 41.2473 87.2861C41.785 88.0081 42.5848 88.4851 43.4709 88.612C44.3569 88.739 45.2567 88.5055 45.9723 87.9631C46.2275 87.7717 46.4535 87.5436 46.643 87.2861C48.6865 84.5363 51.3362 82.3044 54.3823 80.7673C57.4284 79.2301 60.7874 78.4298 64.193 78.4298C67.5987 78.4298 70.9576 79.2301 74.0038 80.7673C77.0499 82.3044 79.6996 84.5363 81.743 87.2861C82.2807 88.0088 83.0807 88.4864 83.9672 88.6137C84.8537 88.7411 85.7541 88.5078 86.4701 87.9652C87.1862 87.4226 87.6594 86.6151 87.7856 85.7204C87.9118 84.8257 87.6807 83.917 87.143 83.1943C84.1556 79.1522 80.1719 75.9698 75.5879 73.9634ZM23.6973 51.1798C25.6998 51.1798 27.6574 51.7791 29.3224 52.902C30.9875 54.0248 32.2852 55.6208 33.0515 57.488C33.8179 59.3553 34.0184 61.4099 33.6277 63.3922C33.237 65.3744 32.2727 67.1952 30.8567 68.6243C29.4407 70.0534 27.6366 71.0267 25.6726 71.421C23.7085 71.8153 21.6727 71.6129 19.8226 70.8395C17.9725 70.066 16.3912 68.7563 15.2786 67.0758C14.1661 65.3953 13.5723 63.4196 13.5723 61.3986C13.5723 58.6884 14.639 56.0892 16.5378 54.1728C18.4366 52.2564 21.0119 51.1798 23.6973 51.1798ZM64.1973 51.1798C66.1998 51.1798 68.1574 51.7791 69.8224 52.902C71.4875 54.0248 72.7852 55.6208 73.5515 57.488C74.3179 59.3553 74.5184 61.4099 74.1277 63.3922C73.737 65.3744 72.7727 67.1952 71.3567 68.6243C69.9407 70.0534 68.1366 71.0267 66.1726 71.421C64.2085 71.8153 62.1727 71.6129 60.3226 70.8395C58.4725 70.066 56.8912 68.7563 55.7786 67.0758C54.6661 65.3953 54.0723 63.4196 54.0723 61.3986C54.0723 58.6884 55.139 56.0892 57.0378 54.1728C58.9366 52.2564 61.5119 51.1798 64.1973 51.1798Z" fill="#6AC9FF"/>
</svg>
