<svg width="99" height="98" viewBox="0 0 99 98" fill="none" xmlns="http://www.w3.org/2000/svg">
<path d="M49.5 0.131836C39.7778 0.131836 30.274 2.99097 22.1903 8.34769C14.1066 13.7044 7.80609 21.3181 4.08557 30.226C0.365049 39.1339 -0.608409 48.9359 1.2883 58.3925C3.185 67.8491 7.86668 76.5355 14.7413 83.3533C21.6159 90.1711 30.3747 94.8141 39.9101 96.6951C49.4455 98.5761 59.3292 97.6107 68.3113 93.921C77.2934 90.2312 84.9706 83.9828 90.3719 75.9659C95.7733 67.949 98.6563 58.5237 98.6563 48.8818C98.6425 35.9567 93.4591 23.5649 84.2435 14.4255C75.0279 5.28601 62.5328 0.145485 49.5 0.131836ZM49.5 90.1318C41.2736 90.1318 33.2318 87.7126 26.3918 83.18C19.5517 78.6473 14.2205 72.205 11.0724 64.6675C7.92427 57.1301 7.10058 48.8361 8.70548 40.8344C10.3104 32.8326 14.2718 25.4826 20.0888 19.7137C25.9058 13.9448 33.3171 10.0161 41.3855 8.42444C49.4539 6.8328 57.817 7.64969 65.4173 10.7718C73.0175 13.8939 79.5136 19.181 84.084 25.9646C88.6543 32.7481 91.0938 40.7234 91.0938 48.8818C91.0813 59.8182 86.6951 70.3031 78.8974 78.0363C71.0998 85.7695 60.5275 90.1194 49.5 90.1318ZM60.4137 54.6053C63.3848 53.0274 65.7394 50.5106 67.1038 47.4544C68.4682 44.3981 68.7642 40.9774 67.9449 37.7353C67.1256 34.4931 65.2378 31.6152 62.5813 29.5584C59.9247 27.5015 56.6515 26.3835 53.2813 26.3818H38.1563C37.1534 26.3818 36.1916 26.7769 35.4825 27.4802C34.7734 28.1834 34.375 29.1373 34.375 30.1318V67.6318C34.375 68.6264 34.7734 69.5802 35.4825 70.2835C36.1916 70.9867 37.1534 71.3818 38.1563 71.3818C39.1591 71.3818 40.1209 70.9867 40.83 70.2835C41.5391 69.5802 41.9375 68.6264 41.9375 67.6318V56.3818H52.5203L61.5008 69.7131C62.0573 70.5411 62.9228 71.1159 63.9067 71.311C64.8906 71.5062 65.9124 71.3057 66.7473 70.7537C67.5821 70.2017 68.1617 69.3434 68.3585 68.3677C68.5553 67.3919 68.3531 66.3786 67.7965 65.5506L60.4137 54.6053ZM41.9375 33.8818H53.2813C55.287 33.8818 57.2105 34.672 58.6288 36.0785C60.047 37.4851 60.8438 39.3927 60.8438 41.3818C60.8438 43.371 60.047 45.2786 58.6288 46.6851C57.2105 48.0917 55.287 48.8818 53.2813 48.8818H41.9375V33.8818Z" fill="#41FF31"/>
</svg>
