<svg width="123" height="22" viewBox="0 0 123 22" fill="none" xmlns="http://www.w3.org/2000/svg">
<path d="M7.484 21.336C6.084 21.336 4.852 21.0373 3.788 20.44C2.724 19.824 1.89333 18.9653 1.296 17.864C0.698667 16.7627 0.4 15.4933 0.4 14.056C0.4 12.5627 0.689333 11.256 1.268 10.136C1.86533 9.016 2.696 8.13867 3.76 7.504C4.84267 6.86933 6.09333 6.552 7.512 6.552C8.89333 6.552 10.0973 6.86 11.124 7.476C12.1507 8.092 12.944 8.92267 13.504 9.968C14.064 10.9947 14.344 12.152 14.344 13.44C14.344 13.6267 14.344 13.832 14.344 14.056C14.344 14.28 14.3253 14.5133 14.288 14.756H2.808V12.6H10.956C10.9187 11.5733 10.5733 10.7707 9.92 10.192C9.26667 9.59467 8.45467 9.296 7.484 9.296C6.79333 9.296 6.15867 9.45467 5.58 9.772C5.00133 10.0893 4.544 10.5653 4.208 11.2C3.872 11.816 3.704 12.6 3.704 13.552V14.364C3.704 15.2413 3.86267 15.9973 4.18 16.632C4.516 17.2667 4.964 17.752 5.524 18.088C6.10267 18.4053 6.74667 18.564 7.456 18.564C8.24 18.564 8.884 18.396 9.388 18.06C9.91067 17.724 10.2933 17.276 10.536 16.716H13.952C13.6907 17.5933 13.2613 18.3867 12.664 19.096C12.0667 19.7867 11.3293 20.3373 10.452 20.748C9.57467 21.14 8.58533 21.336 7.484 21.336ZM21.7583 21.336C20.4516 21.336 19.285 21.0187 18.2583 20.384C17.2316 19.7493 16.429 18.872 15.8503 17.752C15.2903 16.632 15.0103 15.3627 15.0103 13.944C15.0103 12.5253 15.2996 11.2653 15.8783 10.164C16.457 9.044 17.2596 8.16667 18.2863 7.532C19.3316 6.87867 20.5076 6.552 21.8143 6.552C22.8783 6.552 23.8023 6.75733 24.5863 7.168C25.389 7.56 26.0236 8.12 26.4903 8.848V0.839999H29.8503V21H26.8263L26.4903 18.956C26.1916 19.3667 25.8276 19.7587 25.3983 20.132C24.969 20.4867 24.4556 20.776 23.8583 21C23.261 21.224 22.561 21.336 21.7583 21.336ZM22.4583 18.424C23.261 18.424 23.9703 18.2373 24.5863 17.864C25.2023 17.472 25.6783 16.94 26.0143 16.268C26.3503 15.596 26.5183 14.8213 26.5183 13.944C26.5183 13.0667 26.3503 12.292 26.0143 11.62C25.6783 10.948 25.2023 10.4253 24.5863 10.052C23.9703 9.67867 23.261 9.492 22.4583 9.492C21.693 9.492 21.0023 9.67867 20.3863 10.052C19.7703 10.4253 19.285 10.948 18.9303 11.62C18.5943 12.292 18.4263 13.0667 18.4263 13.944C18.4263 14.8213 18.5943 15.596 18.9303 16.268C19.285 16.94 19.7703 17.472 20.3863 17.864C21.0023 18.2373 21.693 18.424 22.4583 18.424ZM46.0838 21.336C44.9264 21.336 43.9651 21.14 43.1997 20.748C42.4344 20.356 41.8651 19.8333 41.4917 19.18C41.1184 18.5267 40.9317 17.8173 40.9317 17.052C40.9317 16.156 41.1557 15.3813 41.6037 14.728C42.0704 14.0747 42.7517 13.5707 43.6477 13.216C44.5438 12.8427 45.6451 12.656 46.9517 12.656H50.5078C50.5078 11.9093 50.4051 11.2933 50.1998 10.808C49.9944 10.304 49.6771 9.93067 49.2478 9.688C48.8184 9.44533 48.2678 9.324 47.5957 9.324C46.8304 9.324 46.1771 9.50133 45.6358 9.856C45.0944 10.192 44.7584 10.7147 44.6278 11.424H41.3237C41.4357 10.416 41.7717 9.55733 42.3317 8.848C42.8918 8.12 43.6291 7.56 44.5438 7.168C45.4771 6.75733 46.4944 6.552 47.5957 6.552C48.9211 6.552 50.0504 6.78533 50.9838 7.252C51.9171 7.7 52.6264 8.35333 53.1118 9.212C53.6158 10.052 53.8678 11.0693 53.8678 12.264V21H51.0118L50.6758 18.732C50.4891 19.1053 50.2464 19.4507 49.9478 19.768C49.6678 20.0853 49.3411 20.3653 48.9678 20.608C48.5944 20.832 48.1651 21.0093 47.6798 21.14C47.2131 21.2707 46.6811 21.336 46.0838 21.336ZM46.8398 18.676C47.3811 18.676 47.8571 18.5827 48.2678 18.396C48.6971 18.1907 49.0611 17.9107 49.3598 17.556C49.6771 17.1827 49.9198 16.772 50.0878 16.324C50.2558 15.876 50.3678 15.4 50.4238 14.896V14.84H47.3158C46.6624 14.84 46.1211 14.924 45.6918 15.092C45.2624 15.2413 44.9544 15.4653 44.7678 15.764C44.5811 16.0627 44.4877 16.408 44.4877 16.8C44.4877 17.192 44.5811 17.528 44.7678 17.808C44.9544 18.088 45.2251 18.3027 45.5798 18.452C45.9344 18.6013 46.3544 18.676 46.8398 18.676ZM55.4979 21V6.888H58.4659L58.7179 9.24C59.1472 8.41867 59.7632 7.76533 60.5659 7.28C61.3685 6.79467 62.3205 6.552 63.4219 6.552C64.5605 6.552 65.5312 6.79467 66.3339 7.28C67.1365 7.74667 67.7525 8.43733 68.1819 9.352C68.6299 10.2667 68.8539 11.4053 68.8539 12.768V21H65.4939V13.076C65.4939 11.9 65.2325 10.9947 64.7099 10.36C64.1872 9.72533 63.4125 9.408 62.3859 9.408C61.7139 9.408 61.1072 9.56667 60.5659 9.884C60.0432 10.2013 59.6232 10.668 59.3059 11.284C59.0072 11.8813 58.8579 12.6093 58.8579 13.468V21H55.4979ZM76.5683 21C75.6163 21 74.7856 20.8507 74.0763 20.552C73.3856 20.2533 72.8443 19.7587 72.4523 19.068C72.0603 18.3773 71.8643 17.444 71.8643 16.268V9.716H69.4563V6.888H71.8643L72.2563 3.164H75.2243V6.888H79.0603V9.716H75.2243V16.268C75.2243 16.9773 75.3736 17.472 75.6723 17.752C75.9896 18.0133 76.5123 18.144 77.2403 18.144H78.9763V21H76.5683ZM86.514 21.336C85.114 21.336 83.882 21.0373 82.818 20.44C81.754 19.824 80.9233 18.9653 80.326 17.864C79.7287 16.7627 79.43 15.4933 79.43 14.056C79.43 12.5627 79.7193 11.256 80.298 10.136C80.8953 9.016 81.726 8.13867 82.79 7.504C83.8727 6.86933 85.1233 6.552 86.542 6.552C87.9233 6.552 89.1273 6.86 90.154 7.476C91.1807 8.092 91.974 8.92267 92.534 9.968C93.094 10.9947 93.374 12.152 93.374 13.44C93.374 13.6267 93.374 13.832 93.374 14.056C93.374 14.28 93.3553 14.5133 93.318 14.756H81.838V12.6H89.986C89.9487 11.5733 89.6033 10.7707 88.95 10.192C88.2967 9.59467 87.4847 9.296 86.514 9.296C85.8233 9.296 85.1887 9.45467 84.61 9.772C84.0313 10.0893 83.574 10.5653 83.238 11.2C82.902 11.816 82.734 12.6 82.734 13.552V14.364C82.734 15.2413 82.8927 15.9973 83.21 16.632C83.546 17.2667 83.994 17.752 84.554 18.088C85.1327 18.4053 85.7767 18.564 86.486 18.564C87.27 18.564 87.914 18.396 88.418 18.06C88.9407 17.724 89.3233 17.276 89.566 16.716H92.982C92.7207 17.5933 92.2913 18.3867 91.694 19.096C91.0967 19.7867 90.3593 20.3373 89.482 20.748C88.6047 21.14 87.6153 21.336 86.514 21.336ZM101.208 21.336C99.827 21.336 98.5856 21.028 97.4843 20.412C96.4016 19.7773 95.5523 18.9093 94.9363 17.808C94.339 16.688 94.0403 15.4187 94.0403 14C94.0403 12.5253 94.339 11.2373 94.9363 10.136C95.5523 9.016 96.4016 8.13867 97.4843 7.504C98.5856 6.86933 99.8363 6.552 101.236 6.552C102.991 6.552 104.466 7.01867 105.66 7.952C106.855 8.86667 107.62 10.1267 107.956 11.732H104.428C104.242 11.0227 103.85 10.4627 103.252 10.052C102.674 9.64133 101.983 9.436 101.18 9.436C100.49 9.436 99.855 9.61333 99.2763 9.968C98.7163 10.3227 98.2683 10.836 97.9323 11.508C97.615 12.18 97.4563 12.992 97.4563 13.944C97.4563 14.672 97.5496 15.316 97.7363 15.876C97.923 16.436 98.1843 16.912 98.5203 17.304C98.875 17.6773 99.2763 17.9667 99.7243 18.172C100.172 18.3773 100.658 18.48 101.18 18.48C101.722 18.48 102.207 18.396 102.636 18.228C103.084 18.0413 103.458 17.7707 103.756 17.416C104.074 17.0613 104.298 16.6413 104.428 16.156H107.956C107.62 17.724 106.855 18.984 105.66 19.936C104.466 20.8693 102.982 21.336 101.208 21.336ZM109.236 21V0.839999H112.596V9.072C113.063 8.30667 113.697 7.7 114.5 7.252C115.303 6.78533 116.208 6.552 117.216 6.552C118.373 6.552 119.353 6.79467 120.156 7.28C120.959 7.74667 121.565 8.44667 121.976 9.38C122.405 10.2947 122.62 11.4427 122.62 12.824V21H119.288V13.132C119.288 11.9187 119.027 10.9947 118.504 10.36C118 9.72533 117.225 9.408 116.18 9.408C115.508 9.408 114.901 9.576 114.36 9.912C113.819 10.2293 113.389 10.696 113.072 11.312C112.755 11.9093 112.596 12.6467 112.596 13.524V21H109.236Z" fill="black"/>
</svg>
