<svg width="14" height="16" viewBox="0 0 14 16" fill="none" xmlns="http://www.w3.org/2000/svg">
<g clip-path="url(#clip0_241_322)">
<path d="M8.69483 4.18363C8.71399 4.16051 8.80356 4.08498 9.15534 4.08498L10.3087 4.08453C10.6839 4.08453 10.989 3.75814 10.989 3.35691V1.2013C10.989 0.800751 10.6843 0.474365 10.3098 0.473679L8.59659 0.470703C7.53922 0.470703 6.64036 0.843667 5.99716 1.54943C5.35686 2.25198 5.01835 3.23274 5.01835 4.38551V5.54811H3.70778C3.33257 5.54811 3.02734 5.8745 3.02734 6.27573V8.59728C3.02734 8.99851 3.33257 9.3249 3.70778 9.3249H5.01835V14.7431C5.01835 15.1443 5.32358 15.4707 5.69879 15.4707H7.94515C8.32037 15.4707 8.62559 15.1443 8.62559 14.7431V9.32502H10.2276C10.6028 9.32502 10.9079 8.99851 10.9079 8.59751L10.9088 6.27585C10.9088 6.01229 10.7747 5.76841 10.5587 5.63944C10.4586 5.5797 10.3422 5.54811 10.2221 5.54811H8.62559V4.62961C8.62559 4.33023 8.66326 4.22186 8.69483 4.18363Z" fill="#010A14"/>
</g>
<defs>
<clipPath id="clip0_241_322">
<rect width="14" height="15" fill="white" transform="translate(0 0.5)"/>
</clipPath>
</defs>
</svg>
