<svg width="16" height="16" viewBox="0 0 16 16" fill="none" xmlns="http://www.w3.org/2000/svg">
<path d="M15.1001 15.0998V9.8991C15.1001 7.34312 14.5499 5.39062 11.5684 5.39062C10.1309 5.39062 9.17254 6.17162 8.7821 6.91712H8.7466V5.62137H5.9248V15.0998H8.87083V10.3961C8.87083 9.15361 9.10155 7.96436 10.6278 7.96436C12.1363 7.96436 12.1541 9.36661 12.1541 10.4671V15.0821H15.1001V15.0998Z" fill="#010A14"/>
<path d="M1.13342 5.62207H4.07945V15.1005H1.13342V5.62207Z" fill="#010A14"/>
<path d="M2.60363 0.900391C1.66303 0.900391 0.899902 1.66364 0.899902 2.60438C0.899902 3.54513 1.66303 4.32613 2.60363 4.32613C3.54423 4.32613 4.30736 3.54513 4.30736 2.60438C4.30736 1.66364 3.54423 0.900391 2.60363 0.900391Z" fill="#010A14"/>
</svg>
