<svg width="16" height="12" viewBox="0 0 16 12" fill="none" xmlns="http://www.w3.org/2000/svg">
<path d="M1.66593 11.502H3.99936V5.83445L2.47139 3.16602L0.665894 3.33405V10.5018C0.665894 11.0544 1.11342 11.502 1.66593 11.502Z" fill="#010A14"/>
<path d="M12.0007 11.502H14.3342C14.8867 11.502 15.3342 11.0544 15.3342 10.5018V3.33405L13.5313 3.16602L12.0008 5.83445V11.502H12.0007Z" fill="#010A14"/>
<path d="M11.9981 1.50089L10.6274 4.11675L11.9981 5.83491L15.3316 3.33451V2.00098C15.3316 0.764949 13.9207 0.059005 12.9315 0.80079L11.9981 1.50089Z" fill="#010A14"/>
<path fill-rule="evenodd" clip-rule="evenodd" d="M4.00226 5.835L2.69617 3.07568L4.00226 1.50098L8.0024 4.50144L12.0025 1.50098V5.835L8.0024 8.83546L4.00226 5.835Z" fill="#010A14"/>
<path d="M0.665894 2.00098V3.33451L3.99936 5.83491V1.50089L3.06599 0.80079C2.07678 0.059005 0.665894 0.764949 0.665894 2.00098Z" fill="#010A14"/>
</svg>
