<svg xmlns="http://www.w3.org/2000/svg" width="432.029" height="84.025" viewBox="0 0 432.029 84.025">
  <path id="_22cd358caa3a3af7175f2362441d94cd" data-name="22cd358caa3a3af7175f2362441d94cd" d="M23.732,58.292C14.979,58.292,9.9,51.465,9.9,43.763c0-8.928,5.777-14.879,13.829-14.879,4.2,0,7,1.751,9.628,3.326l4.2-7.527a26.023,26.023,0,0,0-13.3-4.2C10.428,20.481.45,30.284.45,43.763c0,13.3,10.153,23.282,23.807,23.282,5.777,0,9.978-2.451,13.3-4.376l-4.2-7.527a19.066,19.066,0,0,1-9.628,3.151M53.316,0h8.928V65.82H53.316Zm60.393,21.882-1.05,3.851A18.85,18.85,0,0,0,99.7,20.481c-11.028,0-21.181,8.753-21.181,22.932,0,14.7,10.153,23.632,21.181,23.632a19.208,19.208,0,0,0,12.954-5.252l1.05,4.026h7.527V22.057h-7.527Zm-.875,22.232c0,9.978-6.127,14.529-11.9,14.529-5.952,0-12.779-4.026-12.779-15.054,0-7,3.676-14.529,12.079-14.529,6.3,0,12.6,5.077,12.6,14.529v.525Zm40.262,3.5c6.127,1.575,8.753,2.8,8.753,5.952,0,2.451-2.1,4.9-7,4.9-4.551,0-8.227-1.575-11.728-3.5l-4.026,7.527c3.151,1.926,9.978,4.551,15.755,4.551,9.8,0,15.58-6.652,15.58-13.3,0-11.553-11.378-13.3-14.354-14.354-6.3-1.751-7.877-2.976-7.877-5.6,0-2.8,2.451-4.726,7-4.726a20.8,20.8,0,0,1,9.8,2.626l4.2-7.527c-4.026-1.751-8.753-3.5-14-3.5-9.628,0-15.4,6.827-15.4,13.129-.175,9.978,8.4,12.6,13.3,13.829m47.789,0c6.127,1.575,8.753,2.8,8.753,5.952,0,2.451-2.1,4.9-7,4.9-4.551,0-8.227-1.575-11.728-3.5l-4.026,7.527c3.151,1.926,9.978,4.551,15.755,4.551,9.8,0,15.58-6.652,15.58-13.3,0-11.553-11.378-13.3-14.354-14.354-6.3-1.751-7.877-2.976-7.877-5.6,0-2.8,2.451-4.726,7-4.726a20.8,20.8,0,0,1,9.8,2.626l4.2-7.527c-4.026-1.751-8.753-3.5-14-3.5-9.628,0-15.4,6.827-15.4,13.129-.175,9.978,8.4,12.6,13.3,13.829M256.9,20.481a19.208,19.208,0,0,0-12.954,5.252l-1.05-4.026H235.37V84.025h8.4V62.319l.35-.175c2.451,2.626,7.352,4.726,12.079,4.726,11.378,0,21.882-7.352,21.882-23.632.175-14.7-9.978-22.757-21.181-22.757m-1.05,38.161c-5.777,0-11.9-4.551-11.9-14.529v-.525c0-9.628,6.3-14.529,12.6-14.529,8.4,0,12.079,7.527,12.079,14.529,0,11.028-6.827,15.054-12.779,15.054m72.122-36.761-1.05,4.026a18.85,18.85,0,0,0-12.954-5.252c-11.028,0-21.181,8.753-21.181,22.932,0,14.7,10.153,23.632,21.181,23.632a19.208,19.208,0,0,0,12.954-5.252l1.05,4.026H335.5V22.232h-7.527ZM327.1,44.113c0,9.978-6.127,14.529-11.9,14.529-5.952,0-12.779-4.026-12.779-15.054,0-7,3.676-14.529,12.079-14.529,6.3,0,12.6,5.077,12.6,14.529v.525Zm40.262,3.5c6.127,1.575,8.753,2.8,8.753,5.952,0,2.451-2.1,4.9-7,4.9-4.551,0-8.227-1.575-11.728-3.5l-4.026,7.527c3.151,1.926,9.978,4.551,15.755,4.551,9.8,0,15.58-6.652,15.58-13.3,0-11.553-11.378-13.3-14.354-14.354-6.3-1.751-7.877-2.976-7.877-5.6,0-2.8,2.451-4.726,7-4.726a20.8,20.8,0,0,1,9.8,2.626l4.2-7.527c-4.026-1.751-8.753-3.5-14-3.5-9.628,0-15.4,6.827-15.4,13.129-.175,9.978,8.4,12.6,13.3,13.829m47.789,0c6.127,1.575,8.753,2.8,8.753,5.952,0,2.451-2.1,4.9-7,4.9-4.551,0-8.227-1.575-11.728-3.5l-4.026,7.527c3.151,1.926,9.978,4.551,15.755,4.551,9.8,0,15.58-6.652,15.58-13.3,0-11.553-11.378-13.3-14.354-14.354-6.3-1.751-7.877-2.976-7.877-5.6,0-2.8,2.451-4.726,7-4.726a20.8,20.8,0,0,1,9.8,2.626l4.2-7.527c-4.026-1.751-8.753-3.5-14-3.5-9.628,0-15.4,6.827-15.4,13.129-.175,9.978,8.4,12.6,13.3,13.829" transform="translate(-0.45)" fill="#f7f7f7"/>
</svg>
